<svg width="65" height="65" viewBox="0 0 65 65" fill="none" xmlns="http://www.w3.org/2000/svg">
<path d="M53.8281 3.04688H16.25C15.7113 3.04688 15.1946 3.26088 14.8137 3.64181C14.4328 4.02275 14.2188 4.5394 14.2188 5.07812V8.125H11.1719C10.6332 8.125 10.1165 8.33901 9.73556 8.71994C9.35463 9.10087 9.14062 9.61753 9.14062 10.1562V58.9062C9.14062 59.445 9.35463 59.9616 9.73556 60.3426C10.1165 60.7235 10.6332 60.9375 11.1719 60.9375H25.673C25.8498 61.2453 26.1045 61.5011 26.4115 61.6794C26.7185 61.8577 27.0669 61.9521 27.4219 61.9531H41.6406C41.9956 61.9521 42.344 61.8577 42.651 61.6794C42.958 61.5011 43.2127 61.2453 43.3895 60.9375H48.75C49.2887 60.9375 49.8054 60.7235 50.1863 60.3426C50.5672 59.9616 50.7812 59.445 50.7812 58.9062V55.8594H53.8281C54.3668 55.8594 54.8835 55.6454 55.2644 55.2644C55.6454 54.8835 55.8594 54.3668 55.8594 53.8281V5.07812C55.8594 4.5394 55.6454 4.02275 55.2644 3.64181C54.8835 3.26088 54.3668 3.04688 53.8281 3.04688ZM31.1878 44.5646C30.9592 44.3374 30.778 44.0671 30.6545 43.7693C30.5311 43.4715 30.468 43.1522 30.4688 42.8299V38.8121C30.4469 37.7759 30.8078 36.768 31.4823 35.9811C32.1568 35.1941 33.0976 34.6834 34.125 34.5465C34.6903 34.4897 35.2613 34.5521 35.801 34.7297C36.3408 34.9073 36.8372 35.1961 37.2584 35.5775C37.6795 35.9589 38.0159 36.4244 38.246 36.944C38.476 37.4635 38.5945 38.0256 38.5938 38.5938V42.8299C38.5947 43.1522 38.5317 43.4714 38.4084 43.7692C38.2852 44.0669 38.1041 44.3373 37.8757 44.5646C37.458 44.9798 37.1268 45.4737 36.9014 46.0179C36.6759 46.562 36.5608 47.1454 36.5625 47.7344V51.7969H32.5V47.7344C32.5016 47.1455 32.3865 46.5622 32.1613 46.0181C31.9361 45.474 31.6052 44.98 31.1878 44.5646ZM31.4844 53.8281H40.625C41.255 53.8289 41.8693 54.0245 42.3837 54.3882C42.8981 54.7519 43.2874 55.2657 43.4982 55.8594H25.5643C25.7751 55.2657 26.1644 54.7519 26.6788 54.3882C27.1932 54.0245 27.8075 53.8289 28.4375 53.8281H31.4844ZM27.4219 59.9219V57.8906H41.6406V59.9219H27.4219ZM48.75 58.9062H43.6719V57.8906H44.6875C44.9569 57.8906 45.2152 57.7836 45.4057 57.5932C45.5961 57.4027 45.7031 57.1444 45.7031 56.875C45.7015 55.5287 45.166 54.238 44.214 53.286C43.262 52.334 41.9713 51.7985 40.625 51.7969H38.5938V47.7344C38.5957 47.0843 38.8541 46.4613 39.3128 46.0007C39.7301 45.585 40.0609 45.0908 40.2861 44.5466C40.5113 44.0024 40.6265 43.4189 40.625 42.8299V38.5938C40.6251 37.7433 40.4472 36.9022 40.1026 36.1246C39.7581 35.347 39.2547 34.6501 38.6246 34.0788C37.9946 33.5075 37.2519 33.0744 36.4444 32.8074C35.637 32.5404 34.7825 32.4454 33.9361 32.5284C32.4069 32.7156 31.0005 33.4601 29.9859 34.6194C28.9714 35.7788 28.4201 37.2716 28.4375 38.8121V42.8299C28.436 43.419 28.5512 44.0025 28.7766 44.5468C29.002 45.091 29.3331 45.5852 29.7507 46.0007C30.2088 46.4616 30.4668 47.0845 30.4688 47.7344V51.7969H28.4375C27.0912 51.7985 25.8005 52.334 24.8485 53.286C23.8965 54.238 23.361 55.5287 23.3594 56.875C23.3594 57.1444 23.4664 57.4027 23.6568 57.5932C23.8473 57.7836 24.1056 57.8906 24.375 57.8906H25.3906V58.9062H11.1719V10.1562H48.75V58.9062ZM53.8281 53.8281H50.7812V10.1562C50.7812 9.61753 50.5672 9.10087 50.1863 8.71994C49.8054 8.33901 49.2887 8.125 48.75 8.125H16.25V5.07812H53.8281V53.8281Z" fill="#4998D2"/>
<path d="M15.2344 16.25H26.4062C26.6756 16.25 26.9339 16.143 27.1244 15.9525C27.3149 15.7621 27.4219 15.5037 27.4219 15.2344C27.4219 14.965 27.3149 14.7067 27.1244 14.5162C26.9339 14.3258 26.6756 14.2188 26.4062 14.2188H15.2344C14.965 14.2188 14.7067 14.3258 14.5162 14.5162C14.3258 14.7067 14.2188 14.965 14.2188 15.2344C14.2188 15.5037 14.3258 15.7621 14.5162 15.9525C14.7067 16.143 14.965 16.25 15.2344 16.25Z" fill="#4998D2"/>
<path d="M15.2344 21.3281H25.3906C25.66 21.3281 25.9183 21.2211 26.1088 21.0307C26.2992 20.8402 26.4062 20.5819 26.4062 20.3125C26.4062 20.0431 26.2992 19.7848 26.1088 19.5943C25.9183 19.4039 25.66 19.2969 25.3906 19.2969H15.2344C14.965 19.2969 14.7067 19.4039 14.5162 19.5943C14.3258 19.7848 14.2188 20.0431 14.2188 20.3125C14.2188 20.5819 14.3258 20.8402 14.5162 21.0307C14.7067 21.2211 14.965 21.3281 15.2344 21.3281Z" fill="#4998D2"/>
<path d="M15.2344 26.4062H19.2969C19.5662 26.4062 19.8246 26.2992 20.015 26.1088C20.2055 25.9183 20.3125 25.66 20.3125 25.3906C20.3125 25.1213 20.2055 24.8629 20.015 24.6725C19.8246 24.482 19.5662 24.375 19.2969 24.375H15.2344C14.965 24.375 14.7067 24.482 14.5162 24.6725C14.3258 24.8629 14.2188 25.1213 14.2188 25.3906C14.2188 25.66 14.3258 25.9183 14.5162 26.1088C14.7067 26.2992 14.965 26.4062 15.2344 26.4062Z" fill="#4998D2"/>
<path d="M28.4375 29.4531H15.2344C14.965 29.4531 14.7067 29.5601 14.5162 29.7506C14.3258 29.9411 14.2188 30.1994 14.2188 30.4688C14.2188 30.7381 14.3258 30.9964 14.5162 31.1869C14.7067 31.3774 14.965 31.4844 15.2344 31.4844H28.4375C28.7069 31.4844 28.9652 31.3774 29.1557 31.1869C29.3461 30.9964 29.4531 30.7381 29.4531 30.4688C29.4531 30.1994 29.3461 29.9411 29.1557 29.7506C28.9652 29.5601 28.7069 29.4531 28.4375 29.4531Z" fill="#4998D2"/>
<path d="M25.3906 34.5312H15.2344C14.965 34.5312 14.7067 34.6383 14.5162 34.8287C14.3258 35.0192 14.2188 35.2775 14.2188 35.5469C14.2188 35.8162 14.3258 36.0746 14.5162 36.265C14.7067 36.4555 14.965 36.5625 15.2344 36.5625H25.3906C25.66 36.5625 25.9183 36.4555 26.1088 36.265C26.2992 36.0746 26.4062 35.8162 26.4062 35.5469C26.4062 35.2775 26.2992 35.0192 26.1088 34.8287C25.9183 34.6383 25.66 34.5312 25.3906 34.5312Z" fill="#4998D2"/>
<path d="M25.3906 39.6094H15.2344C14.965 39.6094 14.7067 39.7164 14.5162 39.9068C14.3258 40.0973 14.2188 40.3556 14.2188 40.625C14.2188 40.8944 14.3258 41.1527 14.5162 41.3432C14.7067 41.5336 14.965 41.6406 15.2344 41.6406H25.3906C25.66 41.6406 25.9183 41.5336 26.1088 41.3432C26.2992 41.1527 26.4062 40.8944 26.4062 40.625C26.4062 40.3556 26.2992 40.0973 26.1088 39.9068C25.9183 39.7164 25.66 39.6094 25.3906 39.6094Z" fill="#4998D2"/>
<path d="M19.2969 44.6875H15.2344C14.965 44.6875 14.7067 44.7945 14.5162 44.985C14.3258 45.1754 14.2188 45.4338 14.2188 45.7031C14.2188 45.9725 14.3258 46.2308 14.5162 46.4213C14.7067 46.6117 14.965 46.7188 15.2344 46.7188H19.2969C19.5662 46.7188 19.8246 46.6117 20.015 46.4213C20.2055 46.2308 20.3125 45.9725 20.3125 45.7031C20.3125 45.4338 20.2055 45.1754 20.015 44.985C19.8246 44.7945 19.5662 44.6875 19.2969 44.6875Z" fill="#4998D2"/>
<path d="M40.9228 18.5788L36.5627 22.9389L34.2339 20.61C34.0423 20.425 33.7858 20.3227 33.5195 20.325C33.2532 20.3273 32.9985 20.4341 32.8102 20.6224C32.6219 20.8107 32.515 21.0655 32.5127 21.3318C32.5104 21.598 32.6128 21.8546 32.7978 22.0461L35.8447 25.093C36.0351 25.2834 36.2934 25.3904 36.5627 25.3904C36.832 25.3904 37.0903 25.2834 37.2808 25.093L42.3589 20.0149C42.5439 19.8233 42.6463 19.5668 42.6439 19.3005C42.6416 19.0342 42.5348 18.7795 42.3465 18.5912C42.1582 18.4029 41.9035 18.2961 41.6372 18.2937C41.3709 18.2914 41.1143 18.3938 40.9228 18.5788Z" fill="#4998D2"/>
<path d="M37.5781 12.1875C35.7703 12.1875 34.003 12.7236 32.4999 13.728C30.9967 14.7324 29.8251 16.1599 29.1333 17.8302C28.4415 19.5004 28.2604 21.3383 28.6131 23.1114C28.9658 24.8845 29.8364 26.5132 31.1147 27.7915C32.3931 29.0699 34.0218 29.9404 35.7949 30.2931C37.568 30.6458 39.4059 30.4648 41.0761 29.773C42.7463 29.0811 44.1739 27.9096 45.1783 26.4064C46.1827 24.9032 46.7188 23.136 46.7188 21.3281C46.7158 18.9048 45.7518 16.5816 44.0383 14.868C42.3247 13.1544 40.0015 12.1905 37.5781 12.1875ZM37.5781 28.4375C36.172 28.4375 34.7975 28.0205 33.6284 27.2394C32.4592 26.4582 31.548 25.3478 31.0099 24.0488C30.4718 22.7497 30.331 21.3202 30.6054 19.9412C30.8797 18.5621 31.5568 17.2953 32.551 16.301C33.5453 15.3068 34.8121 14.6297 36.1912 14.3554C37.5702 14.081 38.9997 14.2218 40.2988 14.7599C41.5978 15.298 42.7082 16.2092 43.4894 17.3784C44.2705 18.5475 44.6875 19.922 44.6875 21.3281C44.6854 23.213 43.9356 25.02 42.6028 26.3528C41.27 27.6856 39.463 28.4354 37.5781 28.4375Z" fill="#4998D2"/>
</svg>
