<svg width="116" height="116" viewBox="0 0 116 116" fill="none" xmlns="http://www.w3.org/2000/svg">
<path d="M108.75 81.5625C110.192 81.5625 111.575 80.9896 112.595 79.9699C113.615 78.9502 114.188 77.5671 114.188 76.125V7.25C114.188 5.80789 113.615 4.42484 112.595 3.40511C111.575 2.38538 110.192 1.8125 108.75 1.8125H7.25C5.80789 1.8125 4.42484 2.38538 3.40511 3.40511C2.38538 4.42484 1.8125 5.80789 1.8125 7.25V76.125C1.8125 77.5671 2.38538 78.9502 3.40511 79.9699C4.42484 80.9896 5.80789 81.5625 7.25 81.5625H39.15C42.6504 87.1468 47.8421 91.4679 53.969 93.8966L48.1871 99.6875H41.6875V94.25C41.6875 92.8079 41.1146 91.4248 40.0949 90.4051C39.0752 89.3854 37.6921 88.8125 36.25 88.8125H14.5C13.0579 88.8125 11.6748 89.3854 10.6551 90.4051C9.63538 91.4248 9.0625 92.8079 9.0625 94.25V108.75C9.0625 110.192 9.63538 111.575 10.6551 112.595C11.6748 113.615 13.0579 114.188 14.5 114.188H36.25C37.6921 114.188 39.0752 113.615 40.0949 112.595C41.1146 111.575 41.6875 110.192 41.6875 108.75V103.312H48.9375C49.4182 103.312 49.8791 103.121 50.2189 102.781L57.8695 95.1309C61.865 96.1445 66.0254 96.332 70.096 95.6819C74.1665 95.0318 78.0615 93.5577 81.5426 91.35L86.2551 96.0625L85.724 96.5936C85.3842 96.9335 85.1933 97.3944 85.1933 97.875C85.1933 98.3556 85.3842 98.8165 85.724 99.1564L97.9711 111.404C98.8534 112.286 99.9009 112.986 101.054 113.463C102.207 113.941 103.442 114.187 104.69 114.187C105.938 114.187 107.173 113.941 108.326 113.463C109.479 112.986 110.527 112.286 111.409 111.404C112.291 110.521 112.991 109.474 113.469 108.321C113.946 107.168 114.192 105.932 114.192 104.685C114.192 103.437 113.946 102.201 113.469 101.048C112.991 99.8955 112.291 98.848 111.409 97.9656L99.1619 85.7186C98.822 85.3788 98.361 85.1879 97.8804 85.1879C97.3998 85.1879 96.9389 85.3788 96.599 85.7186L96.0625 86.2496L91.3754 81.5625H108.75ZM38.0625 108.75C38.0625 109.231 37.8715 109.692 37.5316 110.032C37.1917 110.372 36.7307 110.562 36.25 110.562H14.5C14.0193 110.562 13.5583 110.372 13.2184 110.032C12.8785 109.692 12.6875 109.231 12.6875 108.75V94.25C12.6875 93.7693 12.8785 93.3083 13.2184 92.9684C13.5583 92.6285 14.0193 92.4375 14.5 92.4375H36.25C36.7307 92.4375 37.1917 92.6285 37.5316 92.9684C37.8715 93.3083 38.0625 93.7693 38.0625 94.25V108.75ZM7.25 77.9375C6.7693 77.9375 6.30828 77.7465 5.96837 77.4066C5.62846 77.0667 5.4375 76.6057 5.4375 76.125V7.25C5.4375 6.7693 5.62846 6.30828 5.96837 5.96837C6.30828 5.62846 6.7693 5.4375 7.25 5.4375H108.75C109.231 5.4375 109.692 5.62846 110.032 5.96837C110.372 6.30828 110.562 6.7693 110.562 7.25V76.125C110.562 76.6057 110.372 77.0667 110.032 77.4066C109.692 77.7465 109.231 77.9375 108.75 77.9375H93.2966C94.9804 74.2444 95.9151 70.254 96.0467 66.1973C96.1782 62.1406 95.504 58.098 94.063 54.3036C92.6219 50.5092 90.4428 47.0381 87.6515 44.0914C84.8603 41.1447 81.5124 38.7807 77.8016 37.1363L87 27.9379V32.625H90.625V23.5625C90.625 23.0818 90.434 22.6208 90.0941 22.2809C89.7542 21.941 89.2932 21.75 88.8125 21.75H79.75V25.375H84.4371L74.0714 35.7407C71.5412 34.9904 68.9247 34.5701 66.2868 34.4901L57.7245 20.7894C57.5616 20.5287 57.335 20.3137 57.0661 20.1647C56.7973 20.0157 56.4949 19.9375 56.1875 19.9375H48.9375V14.5C48.9375 13.0579 48.3646 11.6748 47.3449 10.6551C46.3252 9.63538 44.9421 9.0625 43.5 9.0625H21.75C20.3079 9.0625 18.9248 9.63538 17.9051 10.6551C16.8854 11.6748 16.3125 13.0579 16.3125 14.5V29C16.3125 30.4421 16.8854 31.8252 17.9051 32.8449C18.9248 33.8646 20.3079 34.4375 21.75 34.4375H43.5C44.9421 34.4375 46.3252 33.8646 47.3449 32.8449C48.3646 31.8252 48.9375 30.4421 48.9375 29V23.5625H55.1834L62.0817 34.6006C54.2712 35.417 47.0687 39.1898 41.9503 45.1458L39.4128 42.2947C39.2442 42.1053 39.0377 41.9534 38.8066 41.8488C38.5756 41.7442 38.3252 41.6892 38.0716 41.6875H38.0625C37.8113 41.6875 37.5628 41.7397 37.3329 41.8408C37.1029 41.9419 36.8965 42.0896 36.7267 42.2747L16.7892 64.0248L19.4608 66.4753L38.0426 46.2043L39.6901 48.0603C35.1917 54.684 33.4872 62.8148 34.9468 70.6875H12.6875V21.75H9.0625V72.5C9.0625 72.9807 9.25346 73.4417 9.59337 73.7816C9.93328 74.1215 10.3943 74.3125 10.875 74.3125H35.8023C36.1912 75.5496 36.6592 76.7604 37.2034 77.9375H7.25ZM45.3125 14.5V29C45.3125 29.4807 45.1215 29.9417 44.7816 30.2816C44.4417 30.6215 43.9807 30.8125 43.5 30.8125H21.75C21.2693 30.8125 20.8083 30.6215 20.4684 30.2816C20.1285 29.9417 19.9375 29.4807 19.9375 29V14.5C19.9375 14.0193 20.1285 13.5583 20.4684 13.2184C20.8083 12.8785 21.2693 12.6875 21.75 12.6875H43.5C43.9807 12.6875 44.4417 12.8785 44.7816 13.2184C45.1215 13.5583 45.3125 14.0193 45.3125 14.5ZM38.0625 65.25C38.0625 59.8728 39.657 54.6164 42.6444 50.1454C45.6318 45.6745 49.8779 42.1898 54.8458 40.132C59.8137 38.0743 65.2802 37.5359 70.554 38.5849C75.8279 39.6339 80.6722 42.2233 84.4745 46.0255C88.2767 49.8278 90.8661 54.6721 91.9151 59.946C92.9641 65.2198 92.4257 70.6863 90.368 75.6542C88.3102 80.6221 84.8255 84.8682 80.3546 87.8556C75.8836 90.843 70.6272 92.4375 65.25 92.4375C58.0419 92.4293 51.1314 89.5623 46.0345 84.4655C40.9377 79.3686 38.0707 72.4581 38.0625 65.25ZM108.841 100.529C109.397 101.072 109.839 101.72 110.143 102.436C110.446 103.152 110.605 103.921 110.61 104.698C110.614 105.476 110.464 106.246 110.169 106.966C109.873 107.685 109.438 108.338 108.888 108.888C108.338 109.438 107.685 109.873 106.966 110.169C106.246 110.464 105.476 110.614 104.698 110.61C103.921 110.605 103.152 110.446 102.436 110.143C101.72 109.839 101.072 109.397 100.529 108.841L89.5629 97.875L97.875 89.5629L108.841 100.529ZM88.8125 93.4996L84.5477 89.2348C86.2732 87.8446 87.8446 86.2732 89.2348 84.5477L93.4996 88.8125L88.8125 93.4996Z" fill="#4998D2"/>
<path d="M65.25 41.6875C60.5898 41.6875 56.0342 43.0694 52.1594 45.6585C48.2846 48.2476 45.2645 51.9275 43.4811 56.233C41.6977 60.5385 41.2311 65.2761 42.1403 69.8468C43.0494 74.4175 45.2935 78.6159 48.5888 81.9112C51.8841 85.2065 56.0825 87.4506 60.6532 88.3598C65.2239 89.2689 69.9615 88.8023 74.267 87.0189C78.5725 85.2355 82.2524 82.2155 84.8415 78.3406C87.4306 74.4658 88.8125 69.9102 88.8125 65.25C88.8053 59.003 86.3205 53.014 81.9033 48.5967C77.486 44.1795 71.497 41.6947 65.25 41.6875ZM64.4598 45.3524L52.6404 57.1717L49.2692 53.3799C51.0404 50.9917 53.3244 49.0309 55.9532 47.6417C58.582 46.2525 61.4888 45.4702 64.4598 45.3524ZM65.25 85.1875C61.5789 85.1835 57.9801 84.166 54.8504 82.2471C51.7207 80.3282 49.1816 77.5825 47.5129 74.3125H68.875V70.6875H46.0846C44.7328 66.0109 45.1669 60.9988 47.3026 56.6243L51.2068 61.0178C51.3711 61.2026 51.5715 61.3517 51.7956 61.4561C52.0197 61.5606 52.2628 61.618 52.5099 61.625H52.5625C53.0432 61.6249 53.5041 61.4339 53.8439 61.0939L69.2248 45.7131C74.0672 46.6987 78.371 49.4474 81.3016 53.4263C84.2322 57.4052 85.5807 62.3307 85.0856 67.2475C84.5905 72.1643 82.2871 76.722 78.6221 80.0368C74.9571 83.3515 70.1917 85.1871 65.25 85.1875Z" fill="#4998D2"/>
<path d="M23.5625 16.3125H41.6875V19.9375H23.5625V16.3125Z" fill="#4998D2"/>
<path d="M23.5625 23.5625H41.6875V27.1875H23.5625V23.5625Z" fill="#4998D2"/>
<path d="M16.3125 96.0625H34.4375V99.6875H16.3125V96.0625Z" fill="#4998D2"/>
<path d="M16.3125 103.312H34.4375V106.938H16.3125V103.312Z" fill="#4998D2"/>
</svg>
