<svg width="136" height="136" viewBox="0 0 136 136" fill="none" xmlns="http://www.w3.org/2000/svg">
<path d="M70.125 10.625V36.3396C68.7523 36.057 67.2477 36.057 65.875 36.3396V10.625H2.125V125.375H65.875V99.6604C67.2477 99.943 68.7523 99.943 70.125 99.6604V125.375H133.875V10.625H70.125ZM68 40.375C71.5147 40.375 74.375 43.2352 74.375 46.75C74.375 50.2648 71.5147 53.125 68 53.125C64.4852 53.125 61.625 50.2648 61.625 46.75C61.625 43.2352 64.4852 40.375 68 40.375ZM74.375 80.5821V55.8705L87.244 68.884L74.375 80.5821ZM70.125 57.1604V78.8375C69.4386 78.6973 68.7268 78.625 68 78.625C67.2732 78.625 66.5614 78.6973 65.875 78.8396V57.1604C67.2477 57.443 68.7523 57.443 70.125 57.1604ZM61.625 80.5821L47.7849 68L61.625 55.4179V80.5821ZM61.625 121.125H6.375V14.875H61.625V38.2543C59.0452 40.1944 57.375 43.2799 57.375 46.75C57.375 48.7305 57.9339 50.5771 58.8816 52.1666L44.625 65.127L30.3492 52.1496C31.297 50.5601 31.875 48.7284 31.875 46.75C31.875 40.8914 27.1086 36.125 21.25 36.125C15.3914 36.125 10.625 40.8914 10.625 46.75C10.625 52.6086 15.3914 57.375 21.25 57.375C23.5917 57.375 25.738 56.5887 27.4975 55.301L41.4651 68L27.4975 80.699C25.738 79.4113 23.5917 78.625 21.25 78.625C15.3914 78.625 10.625 83.3914 10.625 89.25C10.625 95.1086 15.3914 99.875 21.25 99.875C27.1086 99.875 31.875 95.1086 31.875 89.25C31.875 87.2716 31.2949 85.4399 30.3492 83.8504L44.625 70.873L58.8816 83.8334C57.9339 85.4229 57.375 87.2695 57.375 89.25C57.375 92.7201 59.0452 95.8056 61.625 97.7458V121.125ZM21.25 53.125C17.7352 53.125 14.875 50.2648 14.875 46.75C14.875 43.2352 17.7352 40.375 21.25 40.375C24.7647 40.375 27.625 43.2352 27.625 46.75C27.625 50.2648 24.7647 53.125 21.25 53.125ZM27.625 89.25C27.625 92.7647 24.7647 95.625 21.25 95.625C17.7352 95.625 14.875 92.7647 14.875 89.25C14.875 85.7353 17.7352 82.875 21.25 82.875C24.7647 82.875 27.625 85.7353 27.625 89.25ZM68 95.625C64.4852 95.625 61.625 92.7647 61.625 89.25C61.625 85.7353 64.4852 82.875 68 82.875C71.5147 82.875 74.375 85.7353 74.375 89.25C74.375 92.7647 71.5147 95.625 68 95.625ZM129.625 121.125H74.375V97.7458C76.9548 95.8056 78.625 92.7201 78.625 89.25C78.625 87.2695 78.0661 85.4229 77.1184 83.8334L90.236 71.9079L108.97 90.8501C108.596 91.6597 108.375 92.5523 108.375 93.5C108.375 97.0147 111.235 99.875 114.75 99.875C118.265 99.875 121.125 97.0147 121.125 93.5C121.125 89.9853 118.265 87.125 114.75 87.125C113.736 87.125 112.789 87.3842 111.937 87.8071L93.3831 69.0455L108.503 55.2989C110.262 56.5888 112.408 57.375 114.75 57.375C120.609 57.375 125.375 52.6086 125.375 46.75C125.375 40.8914 120.609 36.125 114.75 36.125C108.891 36.125 104.125 40.8914 104.125 46.75C104.125 48.7284 104.705 50.5623 105.651 52.1496L90.3911 66.0216L76.959 52.4386C78.0088 50.7918 78.625 48.8431 78.625 46.75C78.625 43.2799 76.9548 40.1944 74.375 38.2543V14.875H129.625V121.125ZM114.75 91.375C115.921 91.375 116.875 92.327 116.875 93.5C116.875 94.673 115.921 95.625 114.75 95.625C113.579 95.625 112.625 94.673 112.625 93.5C112.625 92.327 113.579 91.375 114.75 91.375ZM108.375 46.75C108.375 43.2352 111.235 40.375 114.75 40.375C118.265 40.375 121.125 43.2352 121.125 46.75C121.125 50.2648 118.265 53.125 114.75 53.125C111.235 53.125 108.375 50.2648 108.375 46.75Z" fill="#4998D2"/>
<path d="M10.625 27.625H14.875V31.875H10.625V27.625Z" fill="#4998D2"/>
<path d="M19.125 27.625H57.375V31.875H19.125V27.625Z" fill="#4998D2"/>
<path d="M10.625 116.875H57.375V104.125H10.625V116.875ZM14.875 108.375H53.125V112.625H14.875V108.375Z" fill="#4998D2"/>
<path d="M125.375 19.125H78.625V31.875H125.375V19.125ZM121.125 27.625H82.875V23.375H121.125V27.625Z" fill="#4998D2"/>
<path d="M10.625 19.125H57.375V23.375H10.625V19.125Z" fill="#4998D2"/>
<path d="M78.625 104.125H82.875V108.375H78.625V104.125Z" fill="#4998D2"/>
<path d="M87.125 104.125H125.375V108.375H87.125V104.125Z" fill="#4998D2"/>
<path d="M78.625 112.625H125.375V116.875H78.625V112.625Z" fill="#4998D2"/>
</svg>
