<svg width="94" height="94" viewBox="0 0 94 94" fill="none" xmlns="http://www.w3.org/2000/svg">
<path d="M81.1241 5.56381H77.679V1.37695C77.679 0.616508 77.0625 0 76.3021 0H71.4801C70.7197 0 70.1032 0.616508 70.1032 1.37695V5.56381H64.2333V1.37695C64.2333 0.616508 63.6168 0 62.8564 0H58.0343C57.2738 0 56.6573 0.616508 56.6573 1.37695V5.56381H50.7875V1.37695C50.7875 0.616508 50.171 0 49.4105 0H44.5884C43.828 0 43.2115 0.616508 43.2115 1.37695V5.56381H37.3416V1.37695C37.3416 0.616508 36.7251 0 35.9647 0H31.1426C30.3821 0 29.7656 0.616508 29.7656 1.37695V5.56381H23.8958V1.37695C23.8958 0.616508 23.2793 0 22.5188 0H17.6971C16.9366 0 16.3201 0.616508 16.3201 1.37695V5.56381H12.875C12.1146 5.56381 11.498 6.18032 11.498 6.94076V32.6993C11.498 33.4598 12.1146 34.0763 12.875 34.0763C13.6354 34.0763 14.252 33.4598 14.252 32.6993V19.4453H79.7472V32.4043C79.7472 33.1647 80.3637 33.7812 81.1241 33.7812C81.8846 33.7812 82.5011 33.1647 82.5011 32.4043V6.94076C82.5011 6.18032 81.8846 5.56381 81.1241 5.56381ZM72.8571 2.75391H74.9251V11.1276H72.8571V2.75391ZM59.4112 2.75391H61.4794V11.1276H59.4112V2.75391ZM45.9656 2.75391H48.0338V11.1276H45.9656V2.75391ZM32.5197 2.75391H34.5879V11.1276H32.5197V2.75391ZM19.074 2.75391H21.142V11.1276H19.074V2.75391ZM14.252 8.31771H16.3201V12.5046C16.3201 13.265 16.9366 13.8815 17.6971 13.8815H22.519C23.2794 13.8815 23.8959 13.265 23.8959 12.5046V8.31771H29.7658V12.5046C29.7658 13.265 30.3823 13.8815 31.1428 13.8815H35.9648C36.7253 13.8815 37.3418 13.265 37.3418 12.5046V8.31771H43.2117V12.5046C43.2117 13.265 43.8282 13.8815 44.5886 13.8815H49.4107C50.1712 13.8815 50.7877 13.265 50.7877 12.5046V8.31771H56.6575V12.5046C56.6575 13.265 57.274 13.8815 58.0345 13.8815H62.8566C63.617 13.8815 64.2335 13.265 64.2335 12.5046V8.31771H70.1034V12.5046C70.1034 13.265 70.7199 13.8815 71.4803 13.8815H76.3022C77.0627 13.8815 77.6792 13.265 77.6792 12.5046V8.31771H79.7474V16.6914H14.252V8.31771Z" fill="#4998D2"/>
<path d="M81.1241 37.46C80.3637 37.46 79.7472 38.0765 79.7472 38.8369V91.2463H14.252V39.122C14.252 38.3616 13.6354 37.7451 12.875 37.7451C12.1146 37.7451 11.498 38.3616 11.498 39.122V92.6233C11.498 93.3837 12.1146 94.0002 12.875 94.0002H81.1241C81.8846 94.0002 82.5011 93.3837 82.5011 92.6233V38.8369C82.5011 38.0765 81.8846 37.46 81.1241 37.46Z" fill="#4998D2"/>
<path d="M20.293 34.4676H27.7113C28.4717 34.4676 29.0882 33.8511 29.0882 33.0907V25.6724C29.0882 24.9119 28.4717 24.2954 27.7113 24.2954H20.293C19.5325 24.2954 18.916 24.9119 18.916 25.6724V33.0907C18.916 33.8511 19.5325 34.4676 20.293 34.4676ZM21.6699 27.0493H26.3343V31.7137H21.6699V27.0493Z" fill="#4998D2"/>
<path d="M33.2754 27.9766H35.1301C35.8905 27.9766 36.507 27.3601 36.507 26.5996C36.507 25.8392 35.8905 25.2227 35.1301 25.2227H33.2754C32.5149 25.2227 31.8984 25.8392 31.8984 26.5996C31.8984 27.3601 32.5149 27.9766 33.2754 27.9766Z" fill="#4998D2"/>
<path d="M33.2754 33.54H35.1301C35.8905 33.54 36.507 32.9235 36.507 32.1631C36.507 31.4026 35.8905 30.7861 35.1301 30.7861H33.2754C32.5149 30.7861 31.8984 31.4026 31.8984 32.1631C31.8984 32.9235 32.5149 33.54 33.2754 33.54Z" fill="#4998D2"/>
<path d="M40.6934 27.9766H73.7052C74.4656 27.9766 75.0821 27.3601 75.0821 26.5996C75.0821 25.8392 74.4656 25.2227 73.7052 25.2227H40.6934C39.9329 25.2227 39.3164 25.8392 39.3164 26.5996C39.3164 27.3601 39.9329 27.9766 40.6934 27.9766Z" fill="#4998D2"/>
<path d="M40.6934 33.54H57.0139C57.7744 33.54 58.3909 32.9235 58.3909 32.1631C58.3909 31.4026 57.7744 30.7861 57.0139 30.7861H40.6934C39.9329 30.7861 39.3164 31.4026 39.3164 32.1631C39.3164 32.9235 39.9329 33.54 40.6934 33.54Z" fill="#4998D2"/>
<path d="M18.916 46.0728C18.916 46.8332 19.5325 47.4497 20.293 47.4497H27.7113C28.4717 47.4497 29.0882 46.8332 29.0882 46.0728V38.6543C29.0882 37.8939 28.4717 37.2773 27.7113 37.2773H20.293C19.5325 37.2773 18.916 37.8939 18.916 38.6543V46.0728ZM21.6699 40.0312H26.3343V44.6958H21.6699V40.0312Z" fill="#4998D2"/>
<path d="M33.2754 40.9585H35.1301C35.8905 40.9585 36.507 40.342 36.507 39.5815C36.507 38.8211 35.8905 38.2046 35.1301 38.2046H33.2754C32.5149 38.2046 31.8984 38.8211 31.8984 39.5815C31.8984 40.342 32.5149 40.9585 33.2754 40.9585Z" fill="#4998D2"/>
<path d="M33.2754 46.5225H35.1301C35.8905 46.5225 36.507 45.906 36.507 45.1455C36.507 44.3851 35.8905 43.7686 35.1301 43.7686H33.2754C32.5149 43.7686 31.8984 44.3851 31.8984 45.1455C31.8984 45.906 32.5149 46.5225 33.2754 46.5225Z" fill="#4998D2"/>
<path d="M40.6934 40.9585H73.7052C74.4656 40.9585 75.0821 40.342 75.0821 39.5815C75.0821 38.8211 74.4656 38.2046 73.7052 38.2046H40.6934C39.9329 38.2046 39.3164 38.8211 39.3164 39.5815C39.3164 40.342 39.9329 40.9585 40.6934 40.9585Z" fill="#4998D2"/>
<path d="M40.6934 46.5225H57.0139C57.7744 46.5225 58.3909 45.906 58.3909 45.1455C58.3909 44.3851 57.7744 43.7686 57.0139 43.7686H40.6934C39.9329 43.7686 39.3164 44.3851 39.3164 45.1455C39.3164 45.906 39.9329 46.5225 40.6934 46.5225Z" fill="#4998D2"/>
<path d="M18.916 59.0552C18.916 59.8156 19.5325 60.4321 20.293 60.4321H27.7113C28.4717 60.4321 29.0882 59.8156 29.0882 59.0552V51.6367C29.0882 50.8763 28.4717 50.2598 27.7113 50.2598H20.293C19.5325 50.2598 18.916 50.8763 18.916 51.6367V59.0552ZM21.6699 53.0137H26.3343V57.6782H21.6699V53.0137Z" fill="#4998D2"/>
<path d="M33.2754 53.9409H35.1301C35.8905 53.9409 36.507 53.3244 36.507 52.564C36.507 51.8035 35.8905 51.187 35.1301 51.187H33.2754C32.5149 51.187 31.8984 51.8035 31.8984 52.564C31.8984 53.3244 32.5149 53.9409 33.2754 53.9409Z" fill="#4998D2"/>
<path d="M33.2754 59.5044H35.1301C35.8905 59.5044 36.507 58.8879 36.507 58.1274C36.507 57.367 35.8905 56.7505 35.1301 56.7505H33.2754C32.5149 56.7505 31.8984 57.367 31.8984 58.1274C31.8984 58.8879 32.5149 59.5044 33.2754 59.5044Z" fill="#4998D2"/>
<path d="M40.6934 53.9409H73.7052C74.4656 53.9409 75.0821 53.3244 75.0821 52.564C75.0821 51.8035 74.4656 51.187 73.7052 51.187H40.6934C39.9329 51.187 39.3164 51.8035 39.3164 52.564C39.3164 53.3244 39.9329 53.9409 40.6934 53.9409Z" fill="#4998D2"/>
<path d="M40.6934 59.5044H57.0139C57.7744 59.5044 58.3909 58.8879 58.3909 58.1274C58.3909 57.367 57.7744 56.7505 57.0139 56.7505H40.6934C39.9329 56.7505 39.3164 57.367 39.3164 58.1274C39.3164 58.8879 39.9329 59.5044 40.6934 59.5044Z" fill="#4998D2"/>
<path d="M18.916 72.0371C18.916 72.7976 19.5325 73.4141 20.293 73.4141H27.7113C28.4717 73.4141 29.0882 72.7976 29.0882 72.0371V64.6187C29.0882 63.8582 28.4717 63.2417 27.7113 63.2417H20.293C19.5325 63.2417 18.916 63.8582 18.916 64.6187V72.0371ZM21.6699 65.9956H26.3343V70.6602H21.6699V65.9956Z" fill="#4998D2"/>
<path d="M33.2754 66.9229H35.1301C35.8905 66.9229 36.507 66.3063 36.507 65.5459C36.507 64.7855 35.8905 64.1689 35.1301 64.1689H33.2754C32.5149 64.1689 31.8984 64.7855 31.8984 65.5459C31.8984 66.3063 32.5149 66.9229 33.2754 66.9229Z" fill="#4998D2"/>
<path d="M33.2754 72.4868H35.1301C35.8905 72.4868 36.507 71.8703 36.507 71.1099C36.507 70.3494 35.8905 69.7329 35.1301 69.7329H33.2754C32.5149 69.7329 31.8984 70.3494 31.8984 71.1099C31.8984 71.8703 32.5149 72.4868 33.2754 72.4868Z" fill="#4998D2"/>
<path d="M40.6934 66.9229H73.7052C74.4656 66.9229 75.0821 66.3063 75.0821 65.5459C75.0821 64.7855 74.4656 64.1689 73.7052 64.1689H40.6934C39.9329 64.1689 39.3164 64.7855 39.3164 65.5459C39.3164 66.3063 39.9329 66.9229 40.6934 66.9229Z" fill="#4998D2"/>
<path d="M40.6934 72.4868H57.0139C57.7744 72.4868 58.3909 71.8703 58.3909 71.1099C58.3909 70.3494 57.7744 69.7329 57.0139 69.7329H40.6934C39.9329 69.7329 39.3164 70.3494 39.3164 71.1099C39.3164 71.8703 39.9329 72.4868 40.6934 72.4868Z" fill="#4998D2"/>
<path d="M18.916 85.0191C18.916 85.7795 19.5325 86.396 20.293 86.396H27.7113C28.4717 86.396 29.0882 85.7795 29.0882 85.0191V77.6006C29.0882 76.8401 28.4717 76.2236 27.7113 76.2236H20.293C19.5325 76.2236 18.916 76.8401 18.916 77.6006V85.0191ZM21.6699 78.9777H26.3343V83.6423H21.6699V78.9777Z" fill="#4998D2"/>
<path d="M33.2754 79.9053H35.1301C35.8905 79.9053 36.507 79.2888 36.507 78.5283C36.507 77.7679 35.8905 77.1514 35.1301 77.1514H33.2754C32.5149 77.1514 31.8984 77.7679 31.8984 78.5283C31.8984 79.2888 32.5149 79.9053 33.2754 79.9053Z" fill="#4998D2"/>
<path d="M33.2754 85.4688H35.1301C35.8905 85.4688 36.507 84.8522 36.507 84.0918C36.507 83.3314 35.8905 82.7148 35.1301 82.7148H33.2754C32.5149 82.7148 31.8984 83.3314 31.8984 84.0918C31.8984 84.8522 32.5149 85.4688 33.2754 85.4688Z" fill="#4998D2"/>
<path d="M40.6934 79.9053H73.7052C74.4656 79.9053 75.0821 79.2888 75.0821 78.5283C75.0821 77.7679 74.4656 77.1514 73.7052 77.1514H40.6934C39.9329 77.1514 39.3164 77.7679 39.3164 78.5283C39.3164 79.2888 39.9329 79.9053 40.6934 79.9053Z" fill="#4998D2"/>
<path d="M40.6934 85.4688H57.0139C57.7744 85.4688 58.3909 84.8522 58.3909 84.0918C58.3909 83.3314 57.7744 82.7148 57.0139 82.7148H40.6934C39.9329 82.7148 39.3164 83.3314 39.3164 84.0918C39.3164 84.8522 39.9329 85.4688 40.6934 85.4688Z" fill="#4998D2"/>
</svg>
