<svg width="78" height="78" viewBox="0 0 78 78" fill="none" xmlns="http://www.w3.org/2000/svg">
<path d="M19.773 40.2822L15.6212 41.7935C15.0281 42.0093 14.7225 42.6649 14.9382 43.2579C15.1072 43.722 15.5453 44.01 16.0119 44.01C16.1417 44.01 16.2737 43.9878 16.4027 43.9409L18.9167 43.0258C18.9307 43.3585 18.9944 43.6907 19.1115 44.0126C19.5851 45.3138 20.8127 46.1707 22.1867 46.1707C22.2199 46.1707 22.2531 46.1703 22.2865 46.1692C26.5442 46.0409 37.3507 45.4136 45.7202 42.3673L51.5338 40.2514C51.5421 40.2763 51.5498 40.3012 51.5588 40.3261C51.8863 41.2258 52.5446 41.9443 53.4125 42.349C53.8945 42.5738 54.4091 42.6868 54.9254 42.6868C55.3389 42.6868 55.7537 42.6143 56.1537 42.4686L61.8918 40.3802C62.4851 40.1643 62.9588 39.7301 63.2257 39.1579C63.4926 38.5857 63.5206 37.9437 63.3046 37.3505L62.4693 35.0553C62.2534 34.4619 61.8193 33.9883 61.247 33.7214C60.6747 33.4545 60.0327 33.4264 59.4396 33.6425L56.1105 34.8542L38.9113 37.2423C38.4394 37.3078 38.0576 37.6595 37.9535 38.1246C37.8495 38.5897 38.0449 39.0705 38.4441 39.3308L41.4631 41.3011C37.5492 42.3548 31.1299 43.6164 22.2176 43.885C21.7923 43.8973 21.406 43.635 21.259 43.231C21.1682 42.9816 21.1799 42.7116 21.2922 42.4709C21.4043 42.2304 21.6036 42.0479 21.8529 41.9569L64.9633 26.266C66.8853 25.5664 68.7308 25.5372 70.3094 25.7871L68.5145 26.4404C67.9214 26.6563 67.6158 27.3118 67.8315 27.9049C68.0005 28.3689 68.4384 28.657 68.9052 28.657C69.035 28.657 69.1669 28.6348 69.2958 28.5878L73.8983 26.9136C73.9157 26.9218 73.9338 26.9303 73.9507 26.9386C73.985 26.955 74.0112 26.9905 73.9953 27.0259C73.4703 28.1946 72.1753 30.3061 69.4006 31.3162L68.931 31.4871C68.9302 31.4874 68.9294 31.4877 68.9285 31.488L68.9195 31.4912C68.9188 31.4915 68.918 31.4917 68.9173 31.492L65.5945 32.7014C65.0014 32.9173 64.6958 33.5728 64.9115 34.1659C65.1274 34.7588 65.7826 35.0646 66.376 34.8487L69.6613 33.653C69.6695 33.6499 69.6776 33.647 69.6857 33.644C69.6918 33.6418 69.6977 33.6397 69.7038 33.6376L70.182 33.4634C73.7463 32.1662 75.4069 29.4599 76.0797 27.962C76.6036 26.7952 76.1053 25.4419 74.9452 24.881C72.8826 23.8839 68.7414 22.4587 64.1816 24.1185L33.8928 35.1427C32.8189 35.5336 31.6429 35.417 30.6665 34.8224L20.8184 28.8252C19.5647 28.0616 18.0544 27.9116 16.6748 28.4137L12.5917 29.8998C12.2353 30.0295 11.9666 30.3274 11.8743 30.6952C11.782 31.063 11.8779 31.4525 12.1307 31.7351L19.773 40.2822ZM54.483 37.8781L60.2212 35.7896C60.2256 35.7881 60.235 35.7846 60.248 35.7846C60.2576 35.7846 60.2689 35.7864 60.2813 35.7923C60.3109 35.806 60.3193 35.829 60.322 35.8367L61.1573 38.1319C61.1601 38.1395 61.1684 38.1623 61.1547 38.1919C61.141 38.2213 61.1179 38.2298 61.1102 38.2326L55.3722 40.321C55.0459 40.4399 54.6929 40.4243 54.3783 40.2776C54.0637 40.1309 53.825 39.8704 53.7062 39.5441C53.4611 38.8706 53.8095 38.1232 54.483 37.8781ZM51.5938 37.7882C51.5924 37.7918 51.591 37.7955 51.5897 37.799L44.9388 40.2196C44.7561 40.286 44.5487 40.3593 44.3206 40.437L42.2498 39.0855L51.5938 37.7882ZM17.4566 30.5613C18.1804 30.2979 18.9726 30.3767 19.6301 30.7772L29.4531 36.7591L22.0859 39.4405L14.9594 31.4703L17.4566 30.5613Z" fill="#4998D2"/>
<path d="M3.38914 48.6044C3.51894 48.6044 3.65087 48.5821 3.77975 48.5352L11.8127 45.6114C12.4058 45.3956 12.7114 44.74 12.4956 44.1469C12.2798 43.554 11.6241 43.248 11.0312 43.4641L2.99823 46.3878C2.40515 46.6036 2.09955 47.2592 2.31527 47.8522C2.48422 48.3161 2.92236 48.6044 3.38914 48.6044Z" fill="#4998D2"/>
<path d="M17.2926 46.3835L11.5549 48.4718C10.9618 48.6877 10.6562 49.3432 10.8719 49.9363C11.0409 50.4004 11.479 50.6884 11.9456 50.6884C12.0754 50.6884 12.2074 50.6662 12.3362 50.6193L18.074 48.5309C18.667 48.3151 18.9726 47.6595 18.7569 47.0665C18.5412 46.4734 17.8855 46.1675 17.2926 46.3835Z" fill="#4998D2"/>
<path d="M25.8483 48.4677L21.258 50.1385C20.6649 50.3544 20.3593 51.0099 20.575 51.603C20.744 52.067 21.1821 52.3551 21.6488 52.3551C21.7786 52.3551 21.9105 52.3328 22.0394 52.2859L26.6296 50.6152C27.2227 50.3993 27.5283 49.7438 27.3126 49.1507C27.0969 48.5576 26.4412 48.2517 25.8483 48.4677Z" fill="#4998D2"/>
<path d="M76.8574 61.0605H1.14258C0.51157 61.0605 0 61.5721 0 62.2031C0 62.8341 0.51157 63.3457 1.14258 63.3457H76.8574C77.4884 63.3457 78 62.8341 78 62.2031C78 61.5721 77.4884 61.0605 76.8574 61.0605Z" fill="#4998D2"/>
<path d="M30.4515 27.0656C30.5813 27.0656 30.7132 27.0434 30.8421 26.9965L51.5403 19.4629L49.2356 21.8971C48.8018 22.3553 48.8216 23.0785 49.2798 23.5124C49.5007 23.7215 49.7833 23.8253 50.0651 23.8253C50.368 23.8253 50.6704 23.7055 50.8951 23.4682L56.5274 17.5195C56.8249 17.2052 56.9194 16.7498 56.7715 16.3431C56.6235 15.9363 56.2584 15.6482 55.8285 15.5987L47.6901 14.6621C47.0624 14.5902 46.4966 15.0398 46.4244 15.6666C46.3522 16.2935 46.8019 16.8603 47.4288 16.9323L50.7589 17.3156L30.0607 24.8492C29.4677 25.065 29.1621 25.7206 29.3778 26.3137C29.5466 26.7774 29.9847 27.0656 30.4515 27.0656Z" fill="#4998D2"/>
<path d="M34.4805 41.1836C35.1115 41.1836 35.623 40.672 35.623 40.041C35.623 39.41 35.1115 38.8984 34.4805 38.8984C33.8494 38.8984 33.3379 39.41 33.3379 40.041C33.3379 40.672 33.8494 41.1836 34.4805 41.1836Z" fill="#4998D2"/>
<path d="M55.1484 33.668C55.7795 33.668 56.291 33.1564 56.291 32.5254C56.291 31.8944 55.7795 31.3828 55.1484 31.3828C54.5174 31.3828 54.0059 31.8944 54.0059 32.5254C54.0059 33.1564 54.5174 33.668 55.1484 33.668Z" fill="#4998D2"/>
<path d="M59.7383 31.9922C60.3693 31.9922 60.8809 31.4806 60.8809 30.8496C60.8809 30.2186 60.3693 29.707 59.7383 29.707C59.1073 29.707 58.5957 30.2186 58.5957 30.8496C58.5957 31.4806 59.1073 31.9922 59.7383 31.9922Z" fill="#4998D2"/>
<path d="M64.3262 30.3164C64.9572 30.3164 65.4688 29.8049 65.4688 29.1738C65.4688 28.5428 64.9572 28.0312 64.3262 28.0312C63.6951 28.0312 63.1836 28.5428 63.1836 29.1738C63.1836 29.8049 63.6951 30.3164 64.3262 30.3164Z" fill="#4998D2"/>
</svg>
