<svg width="65" height="65" viewBox="0 0 65 65" fill="none" xmlns="http://www.w3.org/2000/svg">
<path d="M30.2125 18.9506C30.3062 19.0576 30.4213 19.1437 30.5504 19.2033C30.6796 19.263 30.8198 19.2949 30.962 19.2969H30.9772C31.1167 19.2968 31.2548 19.2681 31.3827 19.2123C31.5106 19.1566 31.6256 19.0751 31.7207 18.9729L38.3222 11.8635C38.4162 11.7665 38.49 11.6517 38.5391 11.5258C38.5882 11.3999 38.6117 11.2655 38.6082 11.1304C38.6047 10.9954 38.5742 10.8624 38.5187 10.7392C38.4631 10.616 38.3836 10.5052 38.2847 10.4131C38.1857 10.3211 38.0694 10.2497 37.9426 10.2032C37.8157 10.1567 37.6809 10.136 37.5459 10.1422C37.4109 10.1484 37.2786 10.1816 37.1566 10.2396C37.0345 10.2977 36.9253 10.3795 36.8353 10.4802L30.9996 16.7649L28.1873 13.5495C28.0098 13.3466 27.759 13.2226 27.49 13.2047C27.2211 13.1868 26.9561 13.2765 26.7532 13.454C26.5504 13.6315 26.4264 13.8823 26.4085 14.1513C26.3906 14.4202 26.4803 14.6852 26.6578 14.8881L30.2125 18.9506Z" fill="#4998D2"/>
<path d="M59.8589 13.2032H43.6201C43.3708 10.4258 42.0914 7.84214 40.0333 5.9605C37.9752 4.07885 35.2876 3.0354 32.499 3.0354C29.7104 3.0354 27.0227 4.07885 24.9647 5.9605C22.9066 7.84214 21.6271 10.4258 21.3779 13.2032H5.14211C4.58658 13.2037 4.05397 13.4247 3.66115 13.8175C3.26833 14.2103 3.04741 14.7429 3.04688 15.2984V40.5621C3.04768 41.1175 3.26872 41.6498 3.66151 42.0424C4.05429 42.435 4.58676 42.6558 5.14211 42.6563H10.1562V49.7657C10.1562 50.3044 10.3703 50.8211 10.7512 51.202C11.1321 51.583 11.6488 51.797 12.1875 51.797H14.2188C14.7575 51.797 15.2741 51.583 15.6551 51.202C16.036 50.8211 16.25 50.3044 16.25 49.7657H17.8608L29.12 61.0249C29.5043 61.4106 29.9819 61.6902 30.5063 61.8367C31.0306 61.9833 31.584 61.9917 32.1125 61.8611C32.6411 61.7306 33.1269 61.4656 33.5228 61.0918C33.9187 60.718 34.2112 60.2482 34.3718 59.728C34.7711 59.876 35.1965 59.9405 35.6217 59.9174C36.0469 59.8943 36.4628 59.7841 36.8437 59.5936C37.2246 59.4032 37.5623 59.1366 37.8359 58.8103C38.1095 58.484 38.3132 58.105 38.4343 57.6967C38.8336 57.8448 39.259 57.9092 39.6842 57.8861C40.1094 57.863 40.5253 57.7528 40.9062 57.5624C41.2871 57.372 41.6248 57.1053 41.8984 56.779C42.172 56.4527 42.3757 56.0737 42.4968 55.6655C43.1348 55.8983 43.8309 55.9185 44.4813 55.7233C45.1317 55.528 45.7016 55.1277 46.1058 54.582C46.5101 54.0363 46.7271 53.3746 46.7244 52.6955C46.7218 52.0164 46.4996 51.3563 46.0911 50.8138L47.1392 49.7657H48.75C48.75 50.3044 48.964 50.8211 49.3449 51.202C49.7259 51.583 50.2425 51.797 50.7812 51.797H52.8125C53.3512 51.797 53.8679 51.583 54.2488 51.202C54.6297 50.8211 54.8438 50.3044 54.8438 49.7657V42.6563H59.8589C60.4142 42.6558 60.9465 42.435 61.3391 42.0424C61.7318 41.6497 61.9526 41.1174 61.9531 40.5621V15.2984C61.9526 14.7431 61.7318 14.2106 61.3392 13.8178C60.9466 13.4251 60.4143 13.204 59.8589 13.2032ZM32.5 5.07821C34.3078 5.07821 36.0751 5.6143 37.5783 6.61868C39.0814 7.62307 40.253 9.05064 40.9448 10.7209C41.6367 12.3911 41.8177 14.229 41.465 16.0021C41.1123 17.7752 40.2417 19.4039 38.9634 20.6822C37.6851 21.9606 36.0564 22.8311 34.2832 23.1838C32.5101 23.5365 30.6723 23.3555 29.002 22.6637C27.3318 21.9718 25.9042 20.8003 24.8998 19.2971C23.8955 17.7939 23.3594 16.0267 23.3594 14.2188C23.3621 11.7954 24.326 9.47202 26.0396 7.75841C27.7532 6.04479 30.0766 5.0809 32.5 5.07821ZM12.1875 49.7657V33.5157H14.2188V34.5313V49.7657H12.1875ZM43.549 53.8282C43.2472 53.8271 42.958 53.7074 42.7436 53.4951L41.728 52.4795L37.2805 48.032C37.089 47.847 36.8324 47.7447 36.5662 47.747C36.2999 47.7493 36.0451 47.8561 35.8568 48.0444C35.6685 48.2327 35.5617 48.4874 35.5594 48.7537C35.5571 49.02 35.6594 49.2766 35.8445 49.4681L40.2919 53.9156C40.4512 54.0748 40.5598 54.2777 40.6038 54.4986C40.6478 54.7196 40.6252 54.9486 40.539 55.1567C40.4527 55.3648 40.3067 55.5427 40.1194 55.6678C39.932 55.7929 39.7118 55.8596 39.4865 55.8595C39.1847 55.8583 38.8955 55.7387 38.6811 55.5263L37.6655 54.5107L33.218 50.0633C33.0265 49.8783 32.7699 49.7759 32.5037 49.7782C32.2374 49.7805 31.9826 49.8874 31.7943 50.0757C31.606 50.264 31.4992 50.5187 31.4969 50.785C31.4946 51.0513 31.5969 51.3078 31.782 51.4994L36.2294 55.9468C36.3887 56.106 36.4973 56.309 36.5413 56.5299C36.5853 56.7508 36.5627 56.9799 36.4765 57.188C36.3902 57.3961 36.2442 57.574 36.0569 57.6991C35.8695 57.8241 35.6493 57.8908 35.424 57.8907C35.1222 57.8896 34.833 57.7699 34.6186 57.5576L33.603 56.542L29.1555 52.0945C28.964 51.9095 28.7074 51.8072 28.4412 51.8095C28.1749 51.8118 27.9201 51.9186 27.7318 52.1069C27.5435 52.2952 27.4367 52.5499 27.4344 52.8162C27.4321 53.0825 27.5344 53.3391 27.7195 53.5306L32.1669 57.9781C32.3262 58.1373 32.4348 58.3402 32.4788 58.5611C32.5228 58.7821 32.5002 59.0111 32.414 59.2192C32.3277 59.4273 32.1817 59.6052 31.9944 59.7303C31.807 59.8554 31.5868 59.9221 31.3615 59.922C31.0597 59.9208 30.7705 59.8012 30.5561 59.5888L19.2969 48.3296C18.9153 47.9497 18.3992 47.7358 17.8608 47.7345H16.25V35.547H28.017L30.0483 37.5782L25.5135 42.113C25.1488 42.4732 24.8588 42.902 24.6605 43.3747C24.4621 43.8474 24.3591 44.3546 24.3575 44.8672C24.356 45.3799 24.4558 45.8878 24.6512 46.3617C24.8467 46.8356 25.134 47.2661 25.4965 47.6286C25.859 47.9911 26.2896 48.2782 26.7636 48.4736C27.2375 48.669 27.7454 48.7687 28.2581 48.767C28.7707 48.7654 29.2779 48.6623 29.7506 48.4638C30.2232 48.2654 30.652 47.9754 31.0121 47.6106L35.5469 43.0768L43.9695 51.4994L44.3544 51.8843C44.5137 52.0435 44.6223 52.2465 44.6663 52.4674C44.7103 52.6883 44.6877 52.9174 44.6015 53.1255C44.5152 53.3336 44.3692 53.5115 44.1819 53.6366C43.9945 53.7616 43.7743 53.8283 43.549 53.8282ZM47.1392 47.7345C46.6008 47.7358 46.0847 47.9497 45.7031 48.3296L44.6875 49.3452L36.2649 40.9227C36.0745 40.7323 35.8162 40.6253 35.5469 40.6253C35.2776 40.6253 35.0193 40.7323 34.8288 40.9227L29.576 46.1755C29.3161 46.4349 28.9852 46.6114 28.625 46.6828C28.2648 46.7542 27.8916 46.7172 27.5524 46.5766C27.2132 46.436 26.9233 46.198 26.7193 45.8927C26.5153 45.5874 26.4064 45.2284 26.4062 44.8613C26.4056 44.6173 26.4533 44.3757 26.5466 44.1503C26.6399 43.9249 26.7768 43.7202 26.9496 43.5481L32.2024 38.2963L34.9517 35.547H48.75V47.7345H47.1392ZM50.7812 49.7657V33.5157H52.8125V49.7657H50.7812ZM59.8589 40.6251H54.8438V33.5157C54.8438 32.977 54.6297 32.4603 54.2488 32.0794C53.8679 31.6985 53.3512 31.4845 52.8125 31.4845H50.7812C50.2425 31.4845 49.7259 31.6985 49.3449 32.0794C48.964 32.4603 48.75 32.977 48.75 33.5157H34.9517C34.4133 33.517 33.8972 33.7309 33.5156 34.1109L31.4844 36.1421L29.4531 34.1109C29.0716 33.7309 28.5555 33.517 28.017 33.5157H16.25C16.25 32.977 16.036 32.4603 15.6551 32.0794C15.2741 31.6985 14.7575 31.4845 14.2188 31.4845H12.1875C11.6488 31.4845 11.1321 31.6985 10.7512 32.0794C10.3703 32.4603 10.1562 32.977 10.1562 33.5157V40.6149L5.07812 40.5621L5.14211 15.2345H21.3799C21.6292 18.0119 22.9086 20.5955 24.9667 22.4772C27.0248 24.3588 29.7124 25.4023 32.501 25.4023C35.2896 25.4023 37.9773 24.3588 40.0353 22.4772C42.0934 20.5955 43.3729 18.0119 43.6221 15.2345L59.9219 15.2984L59.8589 40.6251Z" fill="#4998D2"/>
</svg>
