<svg width="115" height="115" viewBox="0 0 115 115" fill="none" xmlns="http://www.w3.org/2000/svg">
<g clip-path="url(#clip0_1010_495)">
<path d="M76.4702 24.8048C75.5323 24.8048 74.6716 24.1961 74.3555 23.3143C74.0431 22.4432 74.3115 21.4442 75.0172 20.8456C75.7531 20.2216 76.8355 20.1415 77.6555 20.6504C78.4401 21.1376 78.8538 22.0913 78.6714 22.9967C78.4628 24.0328 77.5297 24.8048 76.4702 24.8048Z" fill="#4998D2"/>
<path d="M79.5097 54.492C73.0491 54.492 67.793 49.2382 67.793 42.7804C67.793 36.3227 73.0491 31.0688 79.5097 31.0688C85.9706 31.0688 91.2267 36.3227 91.2267 42.7804C91.2267 49.2382 85.9704 54.492 79.5097 54.492ZM79.5097 35.5609C75.526 35.5609 72.285 38.7996 72.285 42.7804C72.285 46.7613 75.526 50 79.5097 50C83.4935 50 86.7347 46.7613 86.7347 42.7804C86.7347 38.7996 83.4935 35.5609 79.5097 35.5609Z" fill="#4998D2"/>
<path d="M114.702 73.6193L106.449 42.3762V28.9251C106.449 25.225 104.104 22.0624 100.822 20.8457L99.3697 15.3488C98.1162 10.6023 93.2253 7.7573 88.4676 9.00743C88.4676 9.00743 45.7296 20.2498 45.6007 20.3121H17.1642C12.4148 20.3121 8.55095 24.1759 8.55095 28.9253V30.2262L6.65734 30.7237C4.34822 31.3299 2.41508 32.7983 1.21436 34.8579C0.0167881 36.9116 -0.308434 39.3079 0.298438 41.6054L8.55095 72.8492V86.2994C8.55095 90.0242 10.9277 93.2041 14.2441 94.4028L15.6304 99.6512C16.684 103.641 20.3077 106.287 24.262 106.287C25.0122 106.287 25.774 106.192 26.5325 105.992L68.7097 94.9124H97.8359C102.585 94.9124 106.449 91.0486 106.449 86.2992V84.9983L108.343 84.5008C110.652 83.8941 112.585 82.4257 113.786 80.3661C114.983 78.313 115.308 75.9168 114.702 73.6193ZM4.64155 40.4583C4.34126 39.3221 4.50252 38.1366 5.09479 37.1205C5.69066 36.0984 6.65105 35.3695 7.79876 35.0679L8.55095 34.8702V55.2597L4.64155 40.4583ZM38.8786 90.4206H21.3319L41.9449 60.9601L52.0887 75.4581L38.8786 90.4206ZM25.3909 101.648C23.0267 102.269 20.595 100.859 19.9733 98.5042L19.0246 94.9126H51.0297L25.3909 101.648ZM44.871 90.4206L64.8178 67.8282L84.7644 90.4206H44.871ZM97.8357 90.4206H90.7567L66.5014 62.9483C66.0751 62.4654 65.4619 62.1889 64.8178 62.1889C64.1736 62.1889 63.5605 62.4654 63.1342 62.9483L55.1476 71.9941L43.7852 55.7548C43.365 55.1542 42.678 54.7964 41.9451 54.7964C41.212 54.7964 40.5252 55.1542 40.1049 55.7548L15.9724 90.245C14.2792 89.7326 13.043 88.1577 13.043 86.2996V28.9248C13.043 26.6523 14.8917 24.8036 17.1642 24.8036H66.275C67.5152 24.8036 68.521 23.7981 68.521 22.5576C68.521 21.3171 67.5152 20.3116 66.275 20.3116H63.1149L89.609 13.3517C91.975 12.7304 94.4047 14.1405 95.0266 16.4954L96.0346 20.3116H86.5816C85.3414 20.3116 84.3356 21.3171 84.3356 22.5576C84.3356 23.7981 85.3414 24.8036 86.5816 24.8036H97.8357C100.108 24.8036 101.957 26.6523 101.957 28.9248V86.2996C101.957 88.5719 100.108 90.4206 97.8357 90.4206ZM109.905 78.1041C109.309 79.1261 108.349 79.8551 107.201 80.1566L106.449 80.3542V59.9651L110.359 74.7663C110.658 75.9026 110.497 77.0881 109.905 78.1041Z" fill="#4998D2"/>
</g>
<defs>
<clipPath id="clip0_1010_495">
<rect width="115" height="115" fill="white"/>
</clipPath>
</defs>
</svg>
