<svg width="63" height="63" viewBox="0 0 63 63" fill="none" xmlns="http://www.w3.org/2000/svg">
<path d="M59.2233 30.2892L54.5189 18.8616L53.3377 15.9843L58.6307 10.6913C59.4032 9.95075 59.896 8.96588 60.0255 7.90356C60.0987 7.23937 60.0217 6.56722 59.8002 5.93678C59.5788 5.30634 59.2185 4.73371 58.746 4.26122C58.2735 3.78872 57.7009 3.42843 57.0704 3.20696C56.44 2.98549 55.7678 2.9085 55.1036 2.98168C54.0411 3.11056 53.0561 3.60345 52.3159 4.37654L47.0239 9.66067L44.2184 8.4302L33.6955 3.82333C32.3826 3.24723 30.9642 2.95088 29.5306 2.95314C29.3685 2.95322 29.2089 2.99334 29.066 3.06993C28.9231 3.14652 28.8014 3.25721 28.7116 3.39217L26.7428 6.34529C26.6088 6.54633 26.5534 6.78964 26.5871 7.02888C26.6209 7.26813 26.7415 7.4866 26.9259 7.6427L37.0551 16.2166L38.9707 17.8261L33.9996 23.625H28.1721C27.8052 23.6225 27.4449 23.7225 27.1318 23.9138C26.8187 24.1051 26.5654 24.3802 26.4003 24.7078L25.2407 27.0398C25.111 27.2986 25.04 27.5828 25.0327 27.8721C25.0254 28.1615 25.082 28.4489 25.1985 28.7138C25.315 28.9788 25.4884 29.2149 25.7065 29.4051C25.9246 29.5954 26.182 29.7353 26.4603 29.8148L30.6016 30.996L24.1175 37.4791C23.9473 37.4317 23.7715 37.4072 23.5948 37.4063H16.1726C15.9098 37.4052 15.6494 37.4563 15.4064 37.5565C15.1635 37.6567 14.9428 37.804 14.7571 37.99L3.23988 49.5072C3.14835 49.5986 3.07575 49.7072 3.02621 49.8267C2.97667 49.9462 2.95117 50.0743 2.95117 50.2036C2.95117 50.333 2.97667 50.4611 3.02621 50.5806C3.07575 50.7001 3.14835 50.8087 3.23988 50.9001L12.0993 59.7594C12.2838 59.944 12.5342 60.0477 12.7952 60.0477C13.0562 60.0477 13.3066 59.944 13.4912 59.7594L25.0083 48.2423C25.1949 48.0569 25.3426 47.8363 25.443 47.5933C25.5434 47.3502 25.5944 47.0897 25.5931 46.8267V39.4045C25.5907 39.2262 25.5639 39.049 25.5133 38.8779L31.9974 32.3948L33.1787 36.5292C33.2562 36.8093 33.3951 37.0687 33.5852 37.2885C33.7754 37.5083 34.0121 37.683 34.2782 37.8C34.5298 37.9108 34.8016 37.9682 35.0765 37.9683C35.3814 37.9684 35.6821 37.8973 35.9546 37.7606L38.2876 36.5991C38.6166 36.4353 38.893 36.1824 39.0852 35.8691C39.2773 35.5558 39.3775 35.1947 39.3743 34.8272V28.9997L45.1368 24.0572L46.6715 26.0042L55.334 37.0292C55.487 37.2242 55.7079 37.3543 55.9526 37.3935C56.1973 37.4328 56.4478 37.3783 56.654 37.2409L59.6072 35.2721C59.7421 35.1823 59.8528 35.0606 59.9294 34.9177C60.006 34.7748 60.0461 34.6152 60.0462 34.4531C60.0467 33.0247 59.7671 31.6101 59.2233 30.2892ZM30.0464 4.93764C31.0327 4.99701 32.0008 5.23029 32.906 5.6267L42.1069 9.65575L37.6349 14.1287L28.8671 6.70656L30.0464 4.93764ZM23.6164 46.8494L12.7962 57.6706L5.3297 50.2031L16.1726 39.375L22.2088 39.3996L19.9752 41.6322L19.9693 41.641C19.5749 41.4476 19.1418 41.346 18.7024 41.3438C18.1184 41.3438 17.5474 41.517 17.0618 41.8414C16.5761 42.1659 16.1976 42.6272 15.9741 43.1668C15.7506 43.7064 15.6921 44.3002 15.8061 44.873C15.92 45.4459 16.2013 45.9721 16.6143 46.3851C17.0273 46.7981 17.5535 47.0793 18.1263 47.1933C18.6992 47.3072 19.2929 47.2487 19.8326 47.0252C20.3722 46.8017 20.8334 46.4232 21.1579 45.9375C21.4824 45.4519 21.6556 44.881 21.6556 44.2969C21.6537 43.8577 21.5528 43.4247 21.3603 43.03L21.3691 43.0251L23.6243 40.7689L23.6164 46.8494ZM19.6868 44.2969C19.6868 44.4916 19.6291 44.6819 19.5209 44.8438C19.4128 45.0056 19.259 45.1318 19.0791 45.2063C18.8993 45.2808 18.7013 45.3003 18.5104 45.2623C18.3194 45.2244 18.144 45.1306 18.0064 44.9929C17.8687 44.8553 17.775 44.6799 17.737 44.4889C17.699 44.298 17.7185 44.1001 17.793 43.9202C17.8675 43.7403 17.9937 43.5866 18.1555 43.4784C18.3174 43.3702 18.5077 43.3125 18.7024 43.3125C18.9635 43.3125 19.2139 43.4162 19.3985 43.6008C19.5831 43.7854 19.6868 44.0358 19.6868 44.2969ZM45.3386 22.0973C45.0739 22.072 44.8068 22.1002 44.5531 22.1802C44.2995 22.2602 44.0645 22.3903 43.8621 22.5629L37.7491 27.7997C37.6414 27.8921 37.5549 28.0068 37.4956 28.1357C37.4363 28.2647 37.4056 28.4049 37.4056 28.5469V34.8321L35.0716 35.9937L33.4277 30.2459C33.4208 30.2223 33.408 30.2036 33.4001 30.1809C33.3911 30.1567 33.3805 30.133 33.3686 30.1101C33.2722 29.8967 33.1015 29.7256 32.8883 29.6287C32.8637 29.6169 32.839 29.6061 32.8135 29.5962C32.7879 29.5864 32.7731 29.5756 32.7505 29.5697L27.0037 27.9228L28.1721 25.5938H34.4524C34.5944 25.5938 34.7346 25.563 34.8636 25.5037C34.9926 25.4444 35.1072 25.358 35.1996 25.2502L40.465 19.1087C40.6344 18.9119 40.763 18.6834 40.8433 18.4364C40.9236 18.1895 40.9539 17.929 40.9326 17.6702C40.9112 17.4115 40.8386 17.1595 40.719 16.929C40.5993 16.6986 40.435 16.4942 40.2356 16.3278L39.144 15.4045L39.647 14.9015L44.0442 10.5043L46.2462 11.47C46.6084 11.6258 47.009 11.6694 47.3961 11.5949C47.7833 11.5205 48.1392 11.3316 48.4178 11.0526L53.7039 5.76648C54.1288 5.31598 54.6942 5.02336 55.3074 4.93665C55.6796 4.89427 56.0566 4.93641 56.4103 5.05993C56.764 5.18346 57.0853 5.38519 57.3502 5.6501C57.6151 5.91502 57.8168 6.23628 57.9404 6.58997C58.0639 6.94366 58.106 7.32067 58.0637 7.6929C57.9769 8.30555 57.6846 8.87057 57.2348 9.29547L51.9389 14.5914C51.6651 14.8672 51.4783 15.2172 51.4016 15.5982C51.325 15.9791 51.3619 16.3742 51.5077 16.7344L52.4468 18.9984L50.6159 20.8294L47.5328 23.9203L46.6872 22.8474C46.5245 22.6379 46.3212 22.4636 46.0895 22.3347C45.8577 22.2058 45.6024 22.125 45.3386 22.0973ZM56.3203 35.0979L48.7593 25.4756L53.2589 20.977L57.4012 31.0374C57.7816 31.9601 58.0052 32.9399 58.0627 33.9363L56.3203 35.0979Z" fill="#4998D2"/>
</svg>
