<svg width="67" height="67" viewBox="0 0 67 67" fill="none" xmlns="http://www.w3.org/2000/svg">
<g clip-path="url(#clip0_1010_447)">
<path d="M26.6729 36.8362C27.1414 36.666 27.6316 36.5796 28.1299 36.5796H30.4203V42.9413C30.4203 43.4267 30.4626 43.9449 30.5335 44.4768L26.3312 47.8386C25.5967 48.4262 25.1755 49.3027 25.1755 50.2432V51.3328C25.1755 51.6409 25.32 51.9309 25.5658 52.1163C25.7381 52.2462 25.946 52.3143 26.1569 52.3143C26.2471 52.3143 26.3378 52.3018 26.4265 52.2765L32.1791 50.6329C32.4056 51.2504 32.5689 51.6499 32.5923 51.7068C32.7437 52.0744 33.1022 52.3144 33.4997 52.3144C33.8973 52.3144 34.2557 52.0745 34.4071 51.7068C34.4305 51.6499 34.5937 51.2504 34.8204 50.6329L40.5729 52.2765C40.6617 52.3018 40.7523 52.3143 40.8425 52.3143C41.0534 52.3143 41.2614 52.2462 41.4336 52.1163C41.6795 51.9309 41.8239 51.6407 41.8239 51.3328V50.2432C41.8239 49.3025 41.4027 48.426 40.6682 47.8386L36.4659 44.4767C36.5368 43.9448 36.5791 43.4266 36.5791 42.9412V41.8918C36.5791 41.3498 36.1397 40.9104 35.5977 40.9104C35.0556 40.9104 34.6162 41.3498 34.6162 41.8918V42.9412C34.6162 44.53 34.078 46.611 33.5566 48.2555C33.5544 48.2554 33.5523 48.2555 33.5501 48.2554C33.5332 48.2545 33.5162 48.254 33.4992 48.2541C33.4828 48.2541 33.4667 48.2545 33.4506 48.2554C33.448 48.2555 33.4454 48.2554 33.4429 48.2555C32.9216 46.611 32.3834 44.53 32.3834 42.9412V17.7652C32.3834 17.1496 32.8843 16.6487 33.4999 16.6487C34.1154 16.6487 34.6163 17.1496 34.6163 17.7652V37.696C34.6163 38.238 35.0558 38.6774 35.5978 38.6774C36.1398 38.6774 36.5792 38.238 36.5792 37.696V36.5795H38.8697C39.3681 36.5795 39.8583 36.6658 40.3267 36.8361L50.351 40.4813V40.8429C50.351 41.3849 50.7904 41.8243 51.3325 41.8243C51.8745 41.8243 52.3139 41.3849 52.3139 40.8429V38.4287C52.3139 36.9868 51.5459 35.6304 50.3095 34.8886L43.9219 31.056V27.206C43.9219 26.0864 43.0111 25.1756 41.8915 25.1756H39.7935C38.6739 25.1756 37.7631 26.0864 37.7631 27.206V27.3608L36.5791 26.6504V17.7652C36.5791 16.0671 35.1976 14.6858 33.4997 14.6858C31.8018 14.6858 30.4203 16.0673 30.4203 17.7652V26.6504L29.2363 27.3608V27.206C29.2363 26.0864 28.3255 25.1756 27.2059 25.1756H25.108C23.9883 25.1756 23.0776 26.0864 23.0776 27.206V31.056L16.6899 34.8886C15.4536 35.6304 14.6855 36.987 14.6855 38.4287V40.8429C14.6855 41.3849 15.125 41.8243 15.667 41.8243C16.209 41.8243 16.6484 41.3849 16.6484 40.8429V40.4813L26.6729 36.8362ZM39.7263 27.2062C39.7263 27.1689 39.7565 27.1386 39.7938 27.1386H41.8917C41.929 27.1386 41.9593 27.1689 41.9593 27.2062V29.8784L39.7263 28.5387V27.2062ZM49.2998 36.5719C49.9379 36.9548 50.3373 37.6498 50.35 38.3924L40.9976 34.9915C40.3136 34.7427 39.5976 34.6166 38.8698 34.6166H36.5794V28.9396L49.2998 36.5719ZM27.1595 50.0257C27.2098 49.7695 27.3488 49.5382 27.5574 49.3714L30.9531 46.6549C31.133 47.3957 31.3401 48.1168 31.546 48.7724L27.1595 50.0257ZM39.4423 49.3714C39.6509 49.5382 39.7899 49.7695 39.8403 50.0257L35.4537 48.7724C35.6596 48.1168 35.8667 47.3957 36.0466 46.6549L39.4423 49.3714ZM25.0404 27.2062C25.0404 27.1689 25.0707 27.1386 25.108 27.1386H27.2059C27.2432 27.1386 27.2734 27.1689 27.2734 27.2062V28.5387L25.0404 29.8784V27.2062ZM17.6999 36.5719L30.4205 28.9396V34.6166H28.13C27.4021 34.6166 26.6863 34.7427 26.0023 34.9915L16.6499 38.3924C16.6624 37.6498 17.0618 36.9548 17.6999 36.5719Z" fill="#4998D2"/>
<path d="M57.1882 9.81184C50.8607 3.48465 42.4482 0 33.5 0C24.5518 0 16.1393 3.48465 9.81184 9.81184C3.48465 16.1393 0 24.5518 0 33.5C0 42.4482 3.48465 50.8607 9.81184 57.1882C16.1393 63.5153 24.5518 67 33.5 67C42.4482 67 50.8607 63.5153 57.1882 57.1882C63.5153 50.8607 67 42.4482 67 33.5C67 24.5518 63.5153 16.1393 57.1882 9.81184ZM62.6659 45.5412C59.6341 43.6522 59.7212 41.026 59.8082 38.4793C59.8628 36.8832 59.9144 35.3755 59.1507 34.1917C58.4397 33.0898 57.3595 32.2483 56.2157 31.3576C53.7488 29.4359 51.4187 27.621 52.5465 23.1634C53.726 18.5013 59.0639 17.2004 60.3578 16.9515C63.4054 21.8771 65.0371 27.5626 65.0371 33.5C65.0371 37.6993 64.2215 41.7731 62.6659 45.5412ZM11.1999 55.8001C5.24327 49.8436 1.96289 41.9239 1.96289 33.5C1.96289 31.847 2.091 30.2139 2.33911 28.6107C4.89859 31.1139 8.42067 32.0108 12.4651 31.1376C13.9789 30.8108 15.4656 30.9136 16.884 31.4432C16.9971 31.4854 17.113 31.5054 17.2271 31.5054C17.6251 31.5054 17.9993 31.2617 18.1467 30.867C18.3363 30.3591 18.0782 29.7938 17.5705 29.6043C15.7946 28.9414 13.9377 28.8117 12.0508 29.2191C9.30148 29.8128 5.5046 29.7476 2.81256 26.1873C3.98532 21.2251 6.35152 16.624 9.768 12.7313C13.3015 15.4931 16.4549 14.8302 19.2492 14.2384C20.8722 13.8945 22.4055 13.5697 23.9299 13.9149C24.8336 14.1195 25.7896 14.7089 27.0301 15.826C27.2177 15.9949 27.4525 16.0782 27.6866 16.0782C27.955 16.0782 28.2224 15.9686 28.4162 15.7535C28.779 15.3507 28.7464 14.7302 28.3437 14.3674C27.3316 13.4559 25.9642 12.3631 24.3634 12.0006C22.4196 11.5605 20.6011 11.9458 18.8424 12.3183C16.1814 12.8819 13.8625 13.3692 11.1122 11.2904C11.1418 11.2606 11.1703 11.2301 11.2 11.2004C17.1564 5.24327 25.0761 1.96289 33.5 1.96289C39.3075 1.96289 44.8751 3.52247 49.7253 6.44273C47.1896 8.86913 46.4004 11.6651 45.6969 14.1586C44.8336 17.2187 44.2098 19.4297 40.8324 20.4063C40.5315 20.4935 40.2302 20.566 39.9375 20.622C39.4052 20.7239 39.0562 21.2381 39.158 21.7704C39.248 22.2405 39.6593 22.5676 40.1208 22.5676C40.1819 22.5676 40.2441 22.5619 40.3064 22.5498C40.6584 22.4824 41.0189 22.3957 41.3779 22.2919C45.8029 21.0124 46.7095 17.799 47.5861 14.6915C48.2821 12.224 49.0023 9.67666 51.4276 7.54588C52.9757 8.61997 54.4396 9.83919 55.8001 11.1997C57.05 12.4494 58.1802 13.7867 59.1887 15.1958C56.8783 15.7696 51.9357 17.5747 50.6435 22.6819C49.2013 28.382 52.4217 30.8904 55.0095 32.9059C56.0182 33.6914 56.9708 34.4335 57.5012 35.2557C57.9316 35.9229 57.8922 37.0764 57.8465 38.4121C57.7527 41.1576 57.6269 44.863 61.8513 47.3443C61.038 49.0062 60.0757 50.5993 58.9698 52.1064C54.1158 50.0049 49.6446 49.7695 47.483 51.5285C46.6261 52.2258 46.1671 53.1882 46.1555 54.3115C46.1363 56.1949 47.4033 58.4452 49.6644 60.5939C47.1257 62.1146 44.3908 63.2611 41.5293 64.0091C41.2732 63.1564 40.7141 61.7563 39.5574 60.3992C36.584 56.9102 32.068 56.4331 28.8027 56.6472C23.9861 56.9631 21.7937 55.9394 20.9842 52.9956C20.514 51.286 21.3572 49.7766 22.5239 47.6876C23.35 46.2084 24.2866 44.532 24.9121 42.4343C25.0198 42.073 25.0979 41.6894 25.1441 41.2942C25.207 40.7559 24.8218 40.2683 24.2834 40.2052C23.7442 40.1423 23.2576 40.5275 23.1946 41.0659C23.1615 41.3488 23.1064 41.6206 23.031 41.8734C22.4672 43.7636 21.5868 45.3398 20.81 46.7303C19.5749 48.9418 18.408 51.0307 19.0915 53.5159C20.4646 58.5092 25.0715 58.8588 28.9309 58.6058C36.855 58.0859 39.0628 62.6751 39.6169 64.4468C37.6232 64.8368 35.5771 65.0371 33.5 65.0371C25.0761 65.0371 17.1564 61.7567 11.1999 55.8001ZM55.8001 55.8001C54.4219 57.1783 52.9373 58.4114 51.367 59.4956C49.3375 57.6649 48.1043 55.7172 48.1184 54.3316C48.1239 53.7962 48.3213 53.3773 48.722 53.0512C50.1869 51.859 53.8694 52.152 57.7119 53.709C57.1086 54.4293 56.4724 55.1278 55.8001 55.8001Z" fill="#4998D2"/>
</g>
<defs>
<clipPath id="clip0_1010_447">
<rect width="67" height="67" fill="white"/>
</clipPath>
</defs>
</svg>
