<svg width="63" height="63" viewBox="0 0 63 63" fill="none" xmlns="http://www.w3.org/2000/svg">
<path d="M57.5692 36.4623L49.2188 27.1845V23.625C49.2162 23.4888 49.185 23.3546 49.1272 23.2313C49.1164 23.2077 49.1085 23.186 49.0967 23.1634C49.0351 23.0495 48.9514 22.9492 48.8506 22.868C48.8427 22.8621 48.8398 22.8523 48.8319 22.8464L48.0444 22.244C45.9103 20.6128 44.0744 19.2081 42.4718 17.9855L46.9616 13.4958C47.1461 13.3112 47.2498 13.0609 47.2498 12.7999C47.2498 12.5388 47.1461 12.2885 46.9616 12.1039L38.1022 3.24453C37.9176 3.05999 37.6673 2.95632 37.4062 2.95632C37.1452 2.95632 36.8949 3.05999 36.7103 3.24453L31.5 8.45188L26.2897 3.24158C26.1051 3.05704 25.8548 2.95337 25.5938 2.95337C25.3327 2.95337 25.0824 3.05704 24.8978 3.24158L16.0384 12.101C15.8539 12.2856 15.7502 12.5359 15.7502 12.7969C15.7502 13.0579 15.8539 13.3083 16.0384 13.4929L20.5213 17.9757L20.1905 18.2307C18.4659 19.5527 16.4755 21.0804 14.1681 22.8425C14.1592 22.8493 14.1563 22.8592 14.1484 22.8661C14.048 22.9474 13.9647 23.0477 13.9033 23.1614C13.8915 23.184 13.8836 23.2057 13.8728 23.2293C13.8147 23.3533 13.7835 23.4881 13.7812 23.625V27.1845L5.42686 36.4672C5.10163 36.8288 4.92175 37.298 4.92188 37.7843V58.0782C4.92188 58.6003 5.1293 59.1011 5.49851 59.4703C5.86772 59.8395 6.36848 60.0469 6.89062 60.0469H13.7812C14.3034 60.0469 14.8042 59.8395 15.1734 59.4703C15.5426 59.1011 15.75 58.6003 15.75 58.0782L15.813 54.9813C16.6429 54.7513 17.3747 54.2559 17.8966 53.5709C18.4185 52.8858 18.7017 52.0487 18.7031 51.1875V48.2344H44.2969V51.1875C44.3015 52.0589 44.5934 52.9045 45.1273 53.5932C45.6612 54.2819 46.4073 54.7753 47.25 54.9971V58.0782C47.25 58.6003 47.4574 59.1011 47.8266 59.4703C48.1958 59.8395 48.6966 60.0469 49.2188 60.0469H56.1094C56.6315 60.0469 57.1323 59.8395 57.5015 59.4703C57.8707 59.1011 58.0781 58.6003 58.0781 58.0782V37.7803C58.0765 37.2933 57.8953 36.824 57.5692 36.4623ZM46.7677 34.4935C46.7106 34.4856 46.6545 34.4797 46.5964 34.4748C46.4655 34.4627 46.3339 34.4597 46.2026 34.466C46.1544 34.466 46.1042 34.466 46.0599 34.4719C45.9069 34.4862 45.7552 34.5118 45.6061 34.5486C45.5746 34.5565 45.5441 34.5605 45.5136 34.5683C45.3307 34.6176 45.1528 34.6835 44.982 34.7652H44.9771C44.9554 34.776 44.9367 34.7908 44.9151 34.8016C44.4231 35.0715 44.0139 35.4703 43.7316 35.9552C43.4492 36.4402 43.3043 36.9929 43.3125 37.5539V37.6819C43.3153 38.3664 43.5475 39.0301 43.972 39.567L47.25 43.659V45.1632L34.9453 35.031L47.25 25.6174V34.5979C47.2096 34.586 47.1673 34.5831 47.127 34.5723C47.0088 34.5394 46.8888 34.5134 46.7677 34.4945V34.4935ZM17.7188 46.2657H17.511L30.0835 35.914C30.1743 35.8609 30.2565 35.7946 30.3276 35.7171L31.5 34.7485L32.6724 35.7161C32.7435 35.7936 32.8257 35.86 32.9165 35.913L45.489 46.2657H17.7188ZM19.0349 39.5601C19.4554 39.0241 19.6851 38.3632 19.6875 37.6819V37.5539C19.6966 36.9816 19.5461 36.418 19.2527 35.9265C18.9594 35.4349 18.5349 35.0348 18.0269 34.7711C17.8575 34.6893 17.6808 34.6234 17.4992 34.5742L17.4667 34.5624C17.4303 34.5526 17.3919 34.5516 17.3545 34.5437C17.2226 34.5124 17.0888 34.4897 16.9539 34.4758C16.9322 34.4758 16.9116 34.4669 16.8899 34.465C16.8683 34.463 16.82 34.465 16.7856 34.465C16.6585 34.46 16.5313 34.463 16.4046 34.4738C16.3465 34.4797 16.2894 34.4856 16.2314 34.4935C16.1081 34.5123 15.9862 34.5386 15.8662 34.5723C15.8278 34.5831 15.7874 34.5851 15.75 34.5969V25.6174L28.0547 35.031L15.75 45.1632V43.659L19.0349 39.5601ZM46.6141 23.625L38.9812 29.4653C36.2516 31.5532 34.6933 32.7453 33.8172 33.4166L33.387 33.7454L32.4844 33.0042V25.5938H34.0298C34.2925 25.5948 34.5528 25.5437 34.7956 25.4435C35.0384 25.3433 35.2589 25.196 35.4444 25.01L41.0671 19.3922C42.6559 20.5991 44.4938 22.0038 46.6141 23.625ZM37.4062 5.32944L44.8727 12.7969L34.0298 23.625L32.4844 23.6191V21.4752C33.1412 21.2429 33.6947 20.786 34.0472 20.1852C34.3997 19.5843 34.5284 18.8781 34.4106 18.1915C34.2928 17.5049 33.9361 16.8821 33.4034 16.4331C32.8708 15.9841 32.1966 15.7378 31.5 15.7378C30.8034 15.7378 30.1292 15.9841 29.5966 16.4331C29.0639 16.8821 28.7072 17.5049 28.5894 18.1915C28.4716 18.8781 28.6003 19.5843 28.9528 20.1852C29.3053 20.786 29.8588 21.2429 30.5156 21.4752V23.6113L26.5781 23.5955L26.585 16.1507L32.196 10.5397L37.4062 5.32944ZM31.5 19.6875C31.3053 19.6875 31.115 19.6298 30.9531 19.5216C30.7912 19.4135 30.6651 19.2597 30.5906 19.0799C30.5161 18.9 30.4966 18.7021 30.5345 18.5111C30.5725 18.3202 30.6663 18.1448 30.8039 18.0071C30.9416 17.8694 31.117 17.7757 31.308 17.7377C31.4989 17.6997 31.6968 17.7192 31.8767 17.7937C32.0566 17.8682 32.2103 17.9944 32.3185 18.1563C32.4266 18.3181 32.4844 18.5085 32.4844 18.7032C32.4844 18.9642 32.3807 19.2146 32.1961 19.3992C32.0115 19.5838 31.7611 19.6875 31.5 19.6875ZM25.5938 5.32944L30.1081 9.84378L25.1931 14.7588C25.0072 14.9443 24.8598 15.1648 24.7596 15.4076C24.6594 15.6504 24.6084 15.9107 24.6094 16.1733V19.28L22.7066 17.3772L18.1263 12.7969L25.5938 5.32944ZM21.3885 19.7919L21.925 19.3804L24.6094 22.0638V23.5955C24.6102 24.1252 24.8209 24.6331 25.1955 25.0076C25.5701 25.3822 26.0779 25.593 26.6077 25.5938H30.5156V33.0042L29.6149 33.7454C28.853 33.1626 27.2524 31.9361 24.0207 29.4653L16.3859 23.625C18.267 22.1878 19.9228 20.916 21.3885 19.7919ZM16.7344 51.1875C16.7333 51.6179 16.5916 52.0361 16.3309 52.3785C16.0702 52.7209 15.7048 52.9688 15.2903 53.0844C14.8625 53.1908 14.4822 53.4363 14.2091 53.7823C13.9359 54.1284 13.7854 54.5553 13.7812 54.9961V58.0782H6.89062V37.7843L13.7812 30.1278V36.1857L8.11814 42.6648C8.03229 42.762 7.9665 42.8753 7.92455 42.998C7.8826 43.1207 7.86531 43.2505 7.87369 43.38C7.88207 43.5094 7.91594 43.6359 7.97336 43.7522C8.03078 43.8685 8.11062 43.9723 8.20828 44.0576C8.30595 44.143 8.41952 44.2082 8.54246 44.2495C8.66541 44.2908 8.7953 44.3074 8.92469 44.2984C9.05407 44.2893 9.18039 44.2548 9.29639 44.1968C9.41239 44.1387 9.51577 44.0584 9.60061 43.9603L15.5069 37.2015L15.8819 36.7783C15.9968 36.6469 16.1428 36.5464 16.3064 36.4859C16.4701 36.4254 16.6463 36.4068 16.819 36.4318C16.8348 36.4318 16.8505 36.4426 16.8663 36.4455C16.9686 36.4626 17.0681 36.4941 17.1616 36.539C17.3382 36.6445 17.4832 36.7956 17.5812 36.9764C17.6793 37.1573 17.7268 37.3612 17.7188 37.5667V37.6819C17.7161 37.9189 17.6366 38.1485 17.4923 38.3365L13.9978 42.6973C13.8572 42.8715 13.7808 43.0887 13.7812 43.3125V47.25C13.7812 47.7722 13.5738 48.2729 13.2046 48.6422C12.8354 49.0114 12.3346 49.2188 11.8125 49.2188C11.5514 49.2188 11.301 49.3225 11.1164 49.5071C10.9318 49.6917 10.8281 49.9421 10.8281 50.2032C10.8281 50.4642 10.9318 50.7146 11.1164 50.8992C11.301 51.0838 11.5514 51.1875 11.8125 51.1875C12.6829 51.1843 13.5277 50.8927 14.2148 50.3584C14.9019 49.8241 15.3926 49.0772 15.6102 48.2344H16.7344V51.1875ZM56.1094 58.0782H49.2188V54.9971C49.2129 54.5563 49.0618 54.1298 48.7887 53.7838C48.5157 53.4378 48.136 53.1916 47.7087 53.0834C47.294 52.9685 46.9284 52.721 46.6678 52.3786C46.4072 52.0362 46.2659 51.6178 46.2656 51.1875V48.2344H47.3898C47.6074 49.0772 48.0981 49.8241 48.7852 50.3584C49.4723 50.8927 50.3171 51.1843 51.1875 51.1875C51.4486 51.1875 51.699 51.0838 51.8836 50.8992C52.0682 50.7146 52.1719 50.4642 52.1719 50.2032C52.1719 49.9421 52.0682 49.6917 51.8836 49.5071C51.699 49.3225 51.4486 49.2188 51.1875 49.2188C50.6654 49.2188 50.1646 49.0114 49.7954 48.6422C49.4262 48.2729 49.2188 47.7722 49.2188 47.25V43.3125C49.2192 43.0887 49.1428 42.8715 49.0022 42.6973L45.5145 38.3444C45.3664 38.155 45.2844 37.9223 45.2812 37.6819V37.5638C45.2727 37.3574 45.3208 37.1525 45.4202 36.9714C45.5196 36.7903 45.6666 36.6398 45.8453 36.5361C46.0551 36.4282 46.2949 36.3934 46.5268 36.4372C46.7586 36.4811 46.9691 36.6011 47.125 36.7783L53.4014 43.9642C53.5736 44.1592 53.816 44.2781 54.0757 44.2949C54.3353 44.3117 54.591 44.2251 54.787 44.0539C54.9829 43.8827 55.1031 43.6409 55.1212 43.3813C55.1394 43.1217 55.054 42.8656 54.8838 42.6688L49.2188 36.1807V30.1278L56.1094 37.7853V58.0782Z" fill="#4998D2"/>
</svg>
