<svg width="55" height="55" viewBox="0 0 55 55" fill="none" xmlns="http://www.w3.org/2000/svg">
<path d="M38.6719 20.606C38.6719 18.3964 38.0167 16.2364 36.7891 14.3992C35.5615 12.562 33.8167 11.1301 31.7753 10.2845C29.7339 9.43892 27.4876 9.21768 25.3205 9.64875C23.1533 10.0798 21.1627 11.1438 19.6003 12.7063C18.0379 14.2687 16.9739 16.2593 16.5428 18.4264C16.1117 20.5936 16.333 22.8399 17.1785 24.8813C18.0241 26.9226 19.456 28.6675 21.2932 29.895C23.1305 31.1226 25.2904 31.7778 27.5 31.7778C30.4619 31.7744 33.3016 30.5963 35.3959 28.5019C37.4903 26.4075 38.6685 23.5679 38.6719 20.606ZM27.5 30.0591C25.6304 30.0591 23.8027 29.5047 22.2481 28.4659C20.6936 27.4272 19.4819 25.9508 18.7665 24.2235C18.051 22.4962 17.8638 20.5955 18.2285 18.7617C18.5933 16.928 19.4936 15.2436 20.8156 13.9216C22.1377 12.5995 23.8221 11.6992 25.6558 11.3345C27.4895 10.9697 29.3902 11.1569 31.1176 11.8724C32.8449 12.5879 34.3213 13.7995 35.36 15.3541C36.3987 16.9086 36.9531 18.7363 36.9531 20.606C36.9502 23.1122 35.9533 25.5149 34.1811 27.2871C32.4089 29.0592 30.0062 30.0561 27.5 30.0591Z" fill="#4998D2"/>
<path d="M32.0479 16.5608L25.7805 22.8274L22.9505 19.9983C22.7885 19.8418 22.5714 19.7552 22.346 19.7571C22.1207 19.7591 21.9052 19.8495 21.7458 20.0088C21.5865 20.1681 21.4961 20.3837 21.4942 20.609C21.4922 20.8343 21.5788 21.0514 21.7354 21.2135L25.1729 24.651C25.334 24.8121 25.5526 24.9026 25.7805 24.9026C26.0083 24.9026 26.2269 24.8121 26.388 24.651L33.263 17.776C33.4196 17.6139 33.5062 17.3968 33.5042 17.1715C33.5023 16.9462 33.4119 16.7306 33.2526 16.5713C33.0932 16.412 32.8777 16.3216 32.6524 16.3196C32.427 16.3177 32.21 16.4043 32.0479 16.5608Z" fill="#4998D2"/>
<path d="M52.25 43.3124L41.2904 28.703L44.3154 26.6207C44.4711 26.5136 44.5872 26.3581 44.6456 26.1784C44.704 25.9986 44.7015 25.8046 44.6386 25.6264L42.8665 20.6077L44.6386 15.5829C44.7013 15.4048 44.7037 15.211 44.6453 15.0315C44.5869 14.8519 44.471 14.6966 44.3154 14.5895L39.9326 11.5722L38.4141 6.47442C38.3561 6.29622 38.2433 6.14092 38.0917 6.03071C37.9401 5.92051 37.7576 5.86105 37.5702 5.86082L32.2524 5.99145L28.0217 2.75504C27.8719 2.64061 27.6886 2.57861 27.5 2.57861C27.3115 2.57861 27.1282 2.64061 26.9784 2.75504L22.7494 5.99145L17.4316 5.86082C17.2451 5.86459 17.0642 5.92542 16.9133 6.03513C16.7624 6.14484 16.6488 6.29815 16.5877 6.47442L15.0666 11.5722L10.6838 14.5895C10.5283 14.6966 10.4124 14.8519 10.3539 15.0315C10.2955 15.211 10.2979 15.4048 10.3607 15.5829L12.1327 20.6077L10.3607 25.6239C10.2976 25.8023 10.2951 25.9965 10.3537 26.1765C10.4123 26.3564 10.5286 26.512 10.6847 26.619L13.7097 28.703L2.75004 43.3124C2.65909 43.4336 2.60183 43.5768 2.58405 43.7273C2.56628 43.8778 2.58863 44.0304 2.64884 44.1695C2.70905 44.3085 2.80498 44.4292 2.92689 44.5193C3.0488 44.6094 3.19236 44.6656 3.34301 44.6822L10.4827 45.4754L12.0571 51.7704C12.0963 51.9273 12.1791 52.07 12.2959 52.182C12.4127 52.294 12.5587 52.3707 12.7172 52.4034C12.8756 52.4361 13.0401 52.4234 13.1917 52.3667C13.3432 52.3101 13.4757 52.2118 13.5739 52.0832L25.0714 36.9943C25.7246 37.4987 26.3425 37.9722 26.6896 38.2386L26.9612 38.4475C27.1111 38.5679 27.297 38.6347 27.4892 38.637C27.6815 38.6393 27.869 38.5771 28.0217 38.4604L29.9304 36.9994L41.4262 52.0832C41.5244 52.2118 41.6569 52.3101 41.8084 52.3667C41.96 52.4234 42.1245 52.4361 42.2829 52.4034C42.4414 52.3707 42.5874 52.294 42.7042 52.182C42.8209 52.07 42.9037 51.9273 42.943 51.7704L44.5157 45.4754L51.6554 44.6822C51.8062 44.6658 51.9499 44.6098 52.0721 44.5199C52.1942 44.4299 52.2903 44.3092 52.3507 44.1701C52.4112 44.031 52.4337 43.8783 52.416 43.7277C52.3983 43.577 52.341 43.4338 52.25 43.3124ZM13.2911 49.6193L12.0021 44.4794C11.9596 44.3091 11.866 44.1559 11.7339 44.0404C11.6018 43.9248 11.4375 43.8525 11.263 43.8332L5.02824 43.1405L15.0907 29.7231C15.1706 29.9955 15.2892 30.3934 15.4267 30.8566L15.4791 31.0285L15.5238 31.178C15.7318 31.8758 15.975 32.6905 16.219 33.5052C16.2947 33.763 16.3703 34.0131 16.445 34.2614L16.5868 34.735C16.645 34.9133 16.7578 35.0688 16.9093 35.1796C17.0607 35.2903 17.2431 35.3506 17.4307 35.352L19.4133 35.2996L22.7486 35.2136L23.4017 35.7121L23.5108 35.798L23.7085 35.9484L13.2911 49.6193ZM27.5 36.6952C26.9896 36.3042 26.1835 35.6837 25.4324 35.1002C24.5077 34.3981 23.6681 33.7561 23.5564 33.6702C23.4058 33.5537 23.2208 33.4906 23.0304 33.4906C22.9771 33.4906 20.9774 33.5422 19.3669 33.5851L18.0469 33.6186C17.6645 32.3399 16.6994 29.1129 16.6332 28.8732C16.5803 28.6782 16.4605 28.5081 16.2947 28.3928L15.4267 27.7912C15.4215 27.7912 15.4146 27.7912 15.4095 27.7835L12.2032 25.5757L13.8575 20.8939C13.9219 20.7085 13.9219 20.5069 13.8575 20.3215L12.2032 15.6311L16.2938 12.8157C16.4551 12.7047 16.5737 12.5419 16.6298 12.3543L18.0469 7.5959L23.0098 7.71707C23.2062 7.72478 23.3988 7.66198 23.5529 7.54004L27.5 4.5202L31.4472 7.54004C31.6016 7.66131 31.794 7.72402 31.9903 7.71707L36.9532 7.5959L38.3729 12.3543C38.429 12.5419 38.5476 12.7047 38.7089 12.8157L42.7995 15.6311L41.1443 20.3215C41.0799 20.5069 41.0799 20.7085 41.1443 20.8939L42.7969 25.5757L39.5914 27.7835C39.5863 27.7835 39.5794 27.7835 39.5743 27.7912L38.7063 28.3928C38.6917 28.4031 38.6831 28.4186 38.6693 28.4297C38.6039 28.4783 38.546 28.5362 38.4975 28.6016C38.4807 28.6307 38.4658 28.6609 38.4528 28.6918C38.4204 28.7422 38.3934 28.7958 38.372 28.8517C38.3617 28.8878 37.3768 32.1749 36.948 33.6221L35.6306 33.5877L32.0693 33.4949H31.9903H31.9688C31.7784 33.4949 31.5934 33.558 31.4429 33.6745C31.3311 33.7604 30.4915 34.4024 29.5668 35.1045C29.5548 35.1139 29.5488 35.1286 29.5368 35.138L27.5 36.6952ZM43.7336 43.8332C43.5592 43.8525 43.3949 43.9248 43.2627 44.0404C43.1306 44.1559 43.037 44.3091 42.9946 44.4794L41.7055 49.6193L31.2907 35.9553L32.2481 35.2205H32.3125C36.4977 35.3314 37.3459 35.3529 37.5341 35.3563H37.5736H37.5934C37.7176 35.355 37.84 35.3264 37.9519 35.2727C38.0639 35.2189 38.1627 35.1413 38.2414 35.0452C38.2594 35.0246 38.2818 35.0082 38.2981 34.9859C38.3256 34.9403 38.3489 34.8922 38.3677 34.8424C38.3865 34.8091 38.4032 34.7747 38.4175 34.7393L38.4236 34.7204V34.7152L38.5576 34.2666C39.0775 32.5298 39.6645 30.5653 39.912 29.7257L49.9718 43.1405L43.7336 43.8332Z" fill="#4998D2"/>
</svg>
