<svg width="128" height="128" viewBox="0 0 128 128" fill="none" xmlns="http://www.w3.org/2000/svg">
<g clip-path="url(#clip0_1010_547)">
<path d="M39.9499 16.0322C38.9144 16.0322 38.0749 16.8717 38.0749 17.9072V22.8577L28.9649 28.3237C28.4002 28.6625 28.0547 29.273 28.0547 29.9315V33.9395C28.0547 34.5012 28.3064 35.0332 28.7409 35.3895C29.0792 35.6665 29.4999 35.8145 29.9297 35.8145C30.0522 35.8145 30.1752 35.8025 30.2974 35.778L38.0749 34.2225V38.7927L35.1034 40.2785C34.1772 40.7415 33.8017 41.8677 34.2649 42.794C34.7279 43.7202 35.8539 44.0957 36.7804 43.6325L39.9499 42.0477L43.1194 43.6325C43.3887 43.7672 43.6747 43.8307 43.9564 43.8307C44.6442 43.8307 45.3064 43.4507 45.6349 42.794C46.0982 41.8677 45.7227 40.7415 44.7964 40.2785L41.8249 38.7927V34.2225L49.6024 35.778C49.7244 35.8025 49.8477 35.8145 49.9702 35.8145C50.3999 35.8145 50.8207 35.6667 51.1589 35.3895C51.5934 35.0332 51.8452 34.5012 51.8452 33.9395V29.9315C51.8452 29.273 51.4997 28.6625 50.9349 28.3237L41.8252 22.8577V17.9072C41.8249 16.8717 40.9854 16.0322 39.9499 16.0322ZM31.8047 30.993L38.0749 27.2307V30.398L31.8047 31.652V30.993ZM48.0949 30.993V31.6522L41.8247 30.3982V27.231L48.0949 30.993Z" fill="#4998D2"/>
<path d="M112.096 26.052C111.06 26.052 110.221 26.8915 110.221 27.927V124.121C110.221 124.192 110.163 124.25 110.092 124.25H17.9063C17.8351 124.25 17.7773 124.192 17.7773 124.121V3.879C17.7773 3.80775 17.8351 3.75 17.9063 3.75H92.1846V17.9072C92.1846 20.0462 93.9216 21.7862 96.0568 21.7862L111.968 21.786C113.437 21.7857 113.971 20.6645 113.971 19.911C113.971 19.4137 113.773 18.9367 113.422 18.585L95.4106 0.57475C95.0693 0.2205 94.5903 0 94.0596 0C94.0593 0 94.0593 0 94.0591 0H17.9063C15.7673 0 14.0273 1.74 14.0273 3.879V124.121C14.0273 126.26 15.7673 128 17.9063 128H110.092C112.231 128 113.971 126.26 113.971 124.121V27.927C113.971 26.8915 113.131 26.052 112.096 26.052ZM95.9346 6.402L107.57 18.0362C103.802 18.0362 98.6478 18.0362 96.0571 18.0362C95.9873 18.0362 95.9348 17.9807 95.9348 17.9072V6.402H95.9346Z" fill="#4998D2"/>
<path d="M81.9056 21.9152C81.9056 18.6712 79.2663 16.0322 76.0226 16.0322H61.9943C58.7503 16.0322 56.1113 18.6715 56.1113 21.9152C56.1113 25.159 58.7506 27.7982 61.9943 27.7982H76.0226C79.2663 27.7982 81.9056 25.1592 81.9056 21.9152ZM76.0226 24.0482H61.9943C60.8181 24.0482 59.8613 23.0912 59.8613 21.9152C59.8613 20.7392 60.8183 19.7822 61.9943 19.7822H76.0226C77.1988 19.7822 78.1556 20.7392 78.1556 21.9152C78.1556 23.0912 77.1986 24.0482 76.0226 24.0482Z" fill="#4998D2"/>
<path d="M76.0224 32.0645H61.9941C60.9586 32.0645 60.1191 32.904 60.1191 33.9395C60.1191 34.975 60.9586 35.8145 61.9941 35.8145H76.0224C77.0579 35.8145 77.8974 34.975 77.8974 33.9395C77.8974 32.904 77.0579 32.0645 76.0224 32.0645Z" fill="#4998D2"/>
<path d="M76.0224 40.0806H61.9941C60.9586 40.0806 60.1191 40.9201 60.1191 41.9556C60.1191 42.9911 60.9586 43.8306 61.9941 43.8306H76.0224C77.0579 43.8306 77.8974 42.9911 77.8974 41.9556C77.8974 40.9201 77.0579 40.0806 76.0224 40.0806Z" fill="#4998D2"/>
<path d="M25.9219 108.218C24.8864 108.218 24.0469 109.057 24.0469 110.093V112.097C24.0469 115.341 26.6861 117.98 29.9299 117.98H98.0671C101.311 117.98 103.95 115.34 103.95 112.097V59.9919C103.95 56.7479 101.311 54.1089 98.0671 54.1089H29.9301C26.6861 54.1089 24.0471 56.7481 24.0471 59.9919V102.076C24.0471 103.112 24.8866 103.951 25.9221 103.951C26.9576 103.951 27.7971 103.112 27.7971 102.076V91.2836C30.7939 92.6254 34.5004 93.3374 38.3804 93.3374C40.8051 93.3374 43.2966 93.0604 45.7216 92.4879C53.8664 90.5651 60.2414 85.7276 63.6716 78.8666C68.5871 69.0359 73.4446 63.8276 76.6539 61.1899C79.6204 58.7516 81.7456 58.0151 82.2721 57.8589H98.0671C99.2434 57.8589 100.2 58.8159 100.2 59.9919V71.4846C98.4081 71.0691 95.8421 70.7244 92.9501 71.1024C83.8814 72.2884 78.8974 79.4681 76.3134 85.2826C73.6929 91.1789 70.4859 96.3014 66.8454 100.531C65.8441 100.183 64.8586 99.7961 63.9096 99.3719C62.9641 98.9489 61.8551 99.3729 61.4326 100.318C61.0099 101.264 61.4336 102.373 62.3791 102.795C62.9324 103.043 63.4976 103.277 64.0691 103.502C57.0431 110.408 48.6946 114.23 39.9501 114.23H29.9299C28.7536 114.23 27.7969 113.273 27.7969 112.097V110.093C27.7969 109.057 26.9574 108.218 25.9219 108.218ZM60.3176 77.1896C58.0501 81.7244 54.2401 85.2291 49.3601 87.3504C48.6439 86.3524 47.9566 85.2999 47.3174 84.2186C46.7906 83.3271 45.6404 83.0319 44.7491 83.5586C43.8576 84.0854 43.5621 85.2354 44.0891 86.1266C44.5939 86.9806 45.1276 87.8181 45.6801 88.6299C45.4089 88.7026 45.1359 88.7729 44.8599 88.8381C38.6544 90.3031 31.8194 89.5624 27.7969 87.0596V59.9919C27.7969 58.8156 28.7539 57.8589 29.9299 57.8589H74.8304C70.8204 61.0074 65.5336 66.7576 60.3176 77.1896ZM79.7401 86.8056C86.0736 72.5556 96.7141 74.3144 100.2 75.3471V112.097C100.2 113.273 99.2431 114.23 98.0671 114.23H55.5634C65.4216 109.33 73.9581 99.8156 79.7401 86.8056Z" fill="#4998D2"/>
<path d="M39.5051 75.8766C39.8021 76.8021 40.1274 77.7286 40.4796 78.6431C40.7664 79.3879 41.4766 79.8449 42.2296 79.8449C42.4536 79.8449 42.6816 79.8044 42.9031 79.7191C43.8694 79.3469 44.3511 78.2619 43.9791 77.2956C43.6801 76.5189 43.4034 75.7331 43.1469 74.9479C44.7626 73.8981 45.8344 72.0786 45.8344 70.0124C45.8344 66.7684 43.1951 64.1294 39.9514 64.1294C36.7076 64.1294 34.0684 66.7686 34.0684 70.0124C34.0681 73.1059 36.4691 75.6476 39.5051 75.8766ZM39.9514 67.8791C41.1276 67.8791 42.0844 68.8361 42.0844 70.0121C42.0844 71.1881 41.1274 72.1451 39.9514 72.1451C38.7754 72.1451 37.8184 71.1881 37.8184 70.0121C37.8184 68.8361 38.7751 67.8791 39.9514 67.8791Z" fill="#4998D2"/>
<path d="M90.051 98.1978C86.807 98.1978 84.168 100.837 84.168 104.081C84.168 107.325 86.8072 109.964 90.051 109.964C93.2947 109.964 95.934 107.325 95.934 104.081C95.934 100.837 93.295 98.1978 90.051 98.1978ZM90.051 106.214C88.8747 106.214 87.918 105.257 87.918 104.081C87.918 102.905 88.875 101.948 90.051 101.948C91.227 101.948 92.184 102.905 92.184 104.081C92.184 105.257 91.2272 106.214 90.051 106.214Z" fill="#4998D2"/>
<path d="M78.7287 102.755C77.4302 102.69 76.1422 102.574 74.9005 102.411C73.8732 102.276 72.932 103 72.7975 104.026C72.6625 105.053 73.3857 105.995 74.4125 106.129C75.7532 106.305 77.1422 106.43 78.5407 106.501C78.5727 106.502 78.6045 106.503 78.6362 106.503C79.6285 106.503 80.457 105.724 80.5072 104.722C80.5592 103.688 79.763 102.807 78.7287 102.755Z" fill="#4998D2"/>
<path d="M56.2543 98.9344C56.8278 98.9344 57.3943 98.6719 57.7621 98.1756C58.3786 97.3436 58.2041 96.1694 57.3721 95.5529C56.3643 94.8059 55.3808 93.9911 54.4493 93.1314C53.6886 92.4291 52.5021 92.4766 51.7998 93.2376C51.0976 93.9986 51.1451 95.1849 51.9061 95.8871C52.9358 96.8376 54.0236 97.7386 55.1391 98.5654C55.4748 98.8144 55.8661 98.9344 56.2543 98.9344Z" fill="#4998D2"/>
<path d="M96.0645 35.8145H100.072C101.108 35.8145 101.947 34.975 101.947 33.9395C101.947 32.904 101.108 32.0645 100.072 32.0645H96.0645C95.029 32.0645 94.1895 32.904 94.1895 33.9395C94.1895 34.975 95.029 35.8145 96.0645 35.8145Z" fill="#4998D2"/>
<path d="M96.0645 43.8306H100.072C101.108 43.8306 101.947 42.9911 101.947 41.9556C101.947 40.9201 101.108 40.0806 100.072 40.0806H96.0645C95.029 40.0806 94.1895 40.9201 94.1895 41.9556C94.1895 42.9911 95.029 43.8306 96.0645 43.8306Z" fill="#4998D2"/>
</g>
<defs>
<clipPath id="clip0_1010_547">
<rect width="128" height="128" fill="white"/>
</clipPath>
</defs>
</svg>
