<svg width="272" height="60" viewBox="0 0 272 60" fill="none" xmlns="http://www.w3.org/2000/svg">
<path fill-rule="evenodd" clip-rule="evenodd" d="M30.2564 37.8248L28.3638 38.3256C27.9321 38.4459 27.5923 38.6411 27.5101 38.9752C27.4911 39.0478 27.4815 39.1226 27.4814 39.1977C27.4814 39.6252 27.7857 39.9768 28.216 40.043H28.2346L30.1739 40.5623C33.8296 41.545 36.8615 44.6709 36.8615 48.4842C36.8615 48.9846 36.808 49.4955 36.6971 50.0151C35.9891 53.3732 33.7201 56.2481 29.8347 56.2481C29.7138 56.2481 29.5861 56.2481 29.4565 56.2397C26.9216 56.1194 24.5606 53.8451 24.5606 51.2485C24.5606 50.5901 24.7067 49.9129 25.0462 49.2545C25.3018 48.7484 25.8093 48.4715 26.2542 48.2287L26.3151 48.1954C26.9036 47.8899 27.3809 47.6218 27.5187 47.0652C27.5813 46.8225 27.6123 46.5726 27.6109 46.3217C27.6109 45.4412 27.2345 44.5977 26.4985 44.1056C26.122 43.8458 25.7539 43.744 25.3957 43.744C24.3486 43.744 23.3284 44.6332 22.5302 45.6076C21.4644 46.9072 21.0327 48.2701 21.0327 49.6245C21.0327 51.8982 22.236 54.1523 23.7421 56.0173C25.7269 58.4743 28.8515 59.4961 31.966 59.532H32.149C36.7341 59.532 41.2722 57.2036 42.8436 52.7232C43.2549 51.575 43.4664 50.3636 43.4687 49.1426C43.4687 47.3519 43.0083 45.5804 42.0434 44.031C40.9244 42.2218 39.2231 40.8402 37.2397 40.0971L36.6598 39.8847L37.2666 39.7539C40.1595 39.1068 42.8314 37.6987 45.0115 35.6725C48.2844 32.653 50.2485 28.4538 50.4789 23.9833C50.5698 23.2043 50.6171 22.4437 50.6171 21.7006C50.6171 11.3739 41.8586 3.66576 32.1476 0.928297C29.9483 0.312837 27.6766 0.00057372 25.3944 0C20.1996 0.000434212 15.1323 1.62421 10.888 4.64846C5.05408 8.79581 0 14.8988 0 22.0891C0 22.9511 0.0739082 23.8233 0.220343 24.7143C0.938012 28.879 1.96651 33.2677 6.04596 35.3363C6.92837 35.7809 7.93857 36.19 8.88487 36.19C9.45472 36.19 9.99729 36.0508 10.5015 35.6896C11.4395 35.0124 12.0629 33.9261 12.0629 32.8231C12.0629 32.3955 11.9621 31.9593 11.7521 31.5332C11.1453 30.3182 9.69302 30.0211 8.33332 29.8718C8.31091 29.8718 8.28575 29.8698 8.26055 29.8677C8.23524 29.8656 8.20989 29.8635 8.18723 29.8635C7.98381 29.8635 7.79213 29.9008 7.57041 29.9465C7.36871 29.9838 7.1387 30.0211 6.90972 30.0211C6.76048 30.024 6.61159 30.0052 6.46766 29.9653C5.68111 29.7125 5.24297 29.0209 4.85586 28.41L4.82406 28.3598L4.76976 28.2699C4.68927 28.1363 4.61232 28.0086 4.52981 27.888C3.58351 26.5133 3.20706 25.0302 3.20706 23.5265C3.20706 20.7158 4.53844 17.8211 5.96377 15.3821C7.69992 12.404 10.5202 10.3535 13.5155 8.81254C16.5022 7.2834 19.7729 6.49424 23.0521 6.49424C25.7715 6.49424 28.5009 7.03232 31.0642 8.13707C35.6023 10.0836 39.8745 13.2758 41.5202 18.1653C42.09 19.8538 42.3839 21.6071 42.3839 23.3602C42.3839 26.3285 41.5467 29.2693 39.8109 31.764C37.5502 35.0207 36.3652 36.0052 30.2554 37.8227L30.2564 37.8248ZM10.2736 15.8267L14.9308 13.9429L14.9312 13.9433L19.0099 12.1442H19.3311C19.5715 12.1442 19.7545 12.1613 19.8823 12.2834C20.1044 12.487 20.131 12.803 20.131 13.1726L20.1127 56.979C20.1127 57.3863 20.0571 57.7497 19.8554 58.0175C19.6254 58.3335 19.3681 58.5472 19.0738 58.5472L9.74068 58.5099C9.39117 58.5099 9.13422 58.2689 9.13422 57.9534C9.13422 57.6751 9.38116 57.4714 9.74068 57.3863L11.4772 56.9605H11.4855L11.5038 56.9504C12.1845 56.6634 12.7996 56.1815 13.2686 55.5772C13.8098 54.8916 14.2335 54.0194 14.2335 53.0538L14.114 19.6571C14.114 18.907 13.7272 18.2197 13.2403 17.6816C13.2316 17.6732 13.2133 17.6544 13.203 17.6359L13.194 17.626C12.8741 17.2737 12.4445 16.8007 11.8536 16.8007H11.835L10.4483 16.8279H10.4197L10.4014 16.838C10.3558 16.8467 10.3088 16.8551 10.2636 16.8551C10.0619 16.8551 9.8771 16.7261 9.80457 16.5039C9.78627 16.4562 9.77625 16.4105 9.77625 16.3732C9.77625 16.151 9.98796 15.9369 10.2736 15.8267ZM71.9745 38.516L61.7941 38.599L61.7931 38.5983L53.312 38.5711H53.1655L53.1389 38.7273C53.0094 39.4603 52.9455 40.1933 52.9455 40.9267C52.9487 42.1885 53.1246 43.4438 53.4681 44.6569C53.9627 46.4121 54.8068 48.0469 55.9488 49.4613C57.5489 51.4466 59.6062 53.2557 62.2517 53.6271C62.593 53.6731 62.9325 53.7003 63.2637 53.7003C65.6049 53.7003 67.7831 52.5973 69.6115 51.1599C70.8259 50.1952 71.8349 48.9928 72.5782 47.6249L73.1394 46.8731C73.2958 46.6694 73.5079 46.5202 73.7092 46.5202C73.7774 46.5214 73.8441 46.5406 73.9026 46.576C74.0774 46.6778 74.1682 46.8546 74.1682 47.0394C74.1682 47.0868 74.1599 47.1329 74.1499 47.1702V47.1887L74.0491 47.9862C73.8187 49.87 72.8824 51.54 71.8253 53.1061C69.3362 56.7991 65.578 59.7025 61.0937 59.7025C58.4296 59.7025 55.9219 58.7286 53.7357 57.235C48.9213 53.9511 47.7081 47.8924 47.6711 42.2243V41.9749C47.6711 38.116 48.3049 34.2005 50.6026 31.0645C53.1286 27.6229 56.7756 24.8956 61.112 24.8583H61.2232C66.3243 24.8583 71.0178 27.9657 72.6721 32.8747C73.0399 33.9878 73.3794 35.1285 73.3794 36.2604C73.3794 36.6133 73.3528 36.9561 73.2786 37.3007C73.2504 37.4101 73.2417 37.5217 73.2338 37.623L73.2337 37.625C73.1964 37.9116 73.1594 38.1069 73.0299 38.2562C72.7913 38.5055 72.4248 38.516 72.0197 38.516H71.9745ZM59.9754 35.5766L54.3149 35.5578C53.9854 35.5578 53.5717 35.4559 53.3969 35.0657C53.3517 34.9722 53.3417 34.8704 53.3417 34.7874C53.3417 34.7103 53.3503 34.633 53.3582 34.5625L53.3582 34.5624L53.36 34.5465L53.3621 34.5281L53.3662 34.4932C53.3727 34.4399 53.3786 34.3913 53.3786 34.3428C53.5078 31.5495 55.2156 28.9899 57.9081 28.1077C58.5922 27.8752 59.3089 27.7559 60.0307 27.7544C60.8389 27.7544 61.6477 27.9124 62.4006 28.2381C64.5771 29.1936 66.0394 31.3455 66.0394 33.7113C66.0394 33.9623 66.0211 34.2221 65.9841 34.4819C65.9737 34.5465 65.9737 34.6211 65.9737 34.7041C65.9737 34.8994 65.9737 35.1776 65.772 35.3813C65.5973 35.5661 65.3586 35.5849 65.1839 35.5849H64.8175L64.7992 35.5954L59.9754 35.5766ZM99.5657 38.8124L89.3854 38.8954V38.8957L80.9042 38.8668H80.7581L80.7312 39.0247C80.6017 39.7578 80.5378 40.4908 80.5378 41.2241C80.541 42.4854 80.7169 43.7401 81.0607 44.9527C81.5549 46.7085 82.3991 48.344 83.5414 49.7587C85.1415 51.744 87.1989 53.5532 89.8443 53.9246C90.1856 53.9706 90.5251 53.9978 90.8563 53.9978C93.1975 53.9978 95.3757 52.8948 97.2044 51.4556C98.4191 50.4915 99.4286 49.2898 100.173 47.9224L100.732 47.1705C100.888 46.9669 101.1 46.8176 101.302 46.8176C101.37 46.8188 101.437 46.8381 101.495 46.8734C101.67 46.9752 101.761 47.152 101.761 47.3369C101.761 47.3843 101.753 47.4303 101.743 47.4676V47.4861L101.642 48.2836C101.411 50.1674 100.475 51.8375 99.4179 53.4036C96.9288 57.0965 93.1706 60 88.6863 60C86.0222 60 83.5145 59.026 81.3283 57.5324C76.5139 54.2485 75.3007 48.1898 75.2637 42.5217V42.2724C75.2637 38.4134 75.8975 34.498 78.1952 31.3619C80.7212 27.9204 84.3682 25.193 88.7047 25.1557H88.8159C93.9152 25.1557 98.609 28.2632 100.263 33.1711C100.631 34.2842 100.971 35.4249 100.971 36.5568C100.971 36.9097 100.944 37.2525 100.87 37.5971C100.846 37.7038 100.831 37.8122 100.825 37.9214C100.788 38.208 100.751 38.4033 100.621 38.5526C100.382 38.8019 100.016 38.8124 99.6109 38.8124H99.5657ZM87.7618 35.647L82.1026 35.6285C81.7714 35.6285 81.358 35.5267 81.1833 35.1365C81.138 35.043 81.1294 34.9412 81.1294 34.8579C81.1294 34.7749 81.1377 34.6919 81.1463 34.6172C81.1567 34.5423 81.1646 34.4778 81.1646 34.4132C81.2941 31.62 83.002 29.0607 85.6941 28.1781C86.3784 27.9466 87.0953 27.828 87.8171 27.8269C88.6252 27.8269 89.4337 27.9832 90.187 28.3089C92.3652 29.2644 93.8257 31.416 93.8257 33.7821C93.8257 34.0331 93.8071 34.2929 93.7705 34.5527C93.7618 34.6169 93.7618 34.6919 93.7618 34.7749C93.7618 34.9702 93.7618 35.2484 93.5584 35.4521C93.3854 35.6369 93.1467 35.6557 92.972 35.6557H92.6035L92.5852 35.6662L87.7615 35.6474L87.7618 35.647ZM106.687 30.7677C109.202 27.7076 112.725 25.6656 116.611 25.0162L116.611 25.0159L116.629 25.0072C117.52 24.7561 118.439 24.6253 119.349 24.6253C121.801 24.6253 124.21 25.5453 126.055 27.2798C126.096 27.3154 126.137 27.3542 126.179 27.3943C126.213 27.4268 126.248 27.4602 126.285 27.4936C127.563 28.69 128.912 29.9698 128.912 31.6583C128.912 31.7874 128.912 31.9077 128.895 32.0385C128.747 33.3179 128.169 34.5517 127.075 35.1644C126.589 35.4343 126.102 35.5546 125.641 35.5546C124.043 35.5546 122.583 34.1531 121.894 32.5389C121.766 32.2337 121.737 31.8993 121.711 31.5276L121.708 31.4919C121.68 31.1592 121.65 30.8022 121.517 30.4518C121.233 29.71 120.809 28.9582 120.194 28.4117C119.349 27.6599 118.302 27.4088 117.255 27.4088C116.63 27.4088 116.004 27.4936 115.416 27.6226C113.377 28.0672 111.981 29.71 110.841 31.2967C109.123 33.6896 108.957 36.6953 108.922 39.4784V40.0639C108.922 43.3663 109.335 46.8623 111.557 49.4878C113.266 51.4922 115.508 53.0688 118.172 53.4318C118.641 53.4963 119.1 53.5235 119.561 53.5235C121.939 53.5235 124.282 52.6887 126.074 51.0288C126.966 50.2128 127.682 49.2011 128.223 48.1065L128.711 47.1409L128.729 47.105V47.0575C128.729 46.6774 129.05 46.3908 129.41 46.3908C129.529 46.3908 129.646 46.4223 129.75 46.4822C129.914 46.5944 129.988 46.7709 129.988 47.0115C129.988 47.1782 129.951 47.3648 129.906 47.5311L129.593 48.5985C129.015 51.0103 127.866 53.2181 126.222 55.0272C123.814 57.6897 120.616 59.6652 117.025 59.7025H116.895C114.414 59.7025 112.017 58.8761 109.987 57.4575C108.543 56.4559 107.414 55.1203 106.394 53.6731C104.069 50.3979 102.977 46.4368 102.977 42.3927C102.948 42.0293 102.94 41.668 102.94 41.3064C102.94 37.4747 104.244 33.736 106.687 30.7677ZM131.793 54.4348L131.931 36.7717V36.7713L131.793 17.3175V17.2903L131.784 17.253C131.692 17.0291 131.628 16.7798 131.563 16.52L131.55 16.4686C131.416 15.9239 131.262 15.3009 130.736 14.9061C130.341 14.6177 129.882 14.3764 129.358 14.3764C129.321 14.3764 129.294 14.3764 129.257 14.3869L128.146 14.4514H128.098L128.053 14.4786C127.952 14.5532 127.841 14.5905 127.732 14.5905C127.52 14.5905 127.309 14.4514 127.236 14.2289C127.218 14.1731 127.208 14.1271 127.208 14.0796C127.208 13.8387 127.446 13.6162 127.788 13.4669L136.553 9.66377C136.672 9.60763 136.8 9.58078 136.929 9.58078C137.071 9.5803 137.211 9.61901 137.332 9.69272C137.59 9.8486 137.746 10.1461 137.756 10.4529L137.939 29.7299V30.1473L138.242 29.8589C139.4 28.766 140.677 27.7917 142.064 26.9757C143.416 26.1761 144.775 25.3786 146.299 25.0731C147.036 24.9339 147.779 24.851 148.515 24.851C149.755 24.851 150.977 25.0818 152.098 25.6384C154.266 26.7062 155.597 28.8393 156.517 31.076C157.187 32.6798 157.436 34.4244 157.455 36.1691L157.63 54.3329C157.638 55.0203 157.969 55.6225 158.382 56.1048C158.778 56.578 159.292 56.9766 159.936 57.1161L161.074 57.357L161.102 57.3654L161.129 57.357H161.174C161.543 57.357 161.836 57.6541 161.836 58.0071V58.0716C161.8 58.4248 161.479 58.6654 161.092 58.6654L147.587 58.6738C147.211 58.6738 146.935 58.4517 146.906 58.1172V58.0799C146.906 57.802 147.201 57.6814 147.641 57.5335C147.688 57.5234 147.725 57.5046 147.77 57.4861L149.157 57.0142C149.626 56.8563 150.068 56.6153 150.416 56.2066C150.848 55.6975 151.014 55.0286 151.014 54.3786V54.3514L150.848 34.981C150.829 32.9308 149.755 31.0097 147.953 30.0187C147.211 29.6096 146.41 29.452 145.602 29.452C144.693 29.452 143.773 29.6556 142.92 29.9067C141.128 30.426 139.649 31.6224 138.499 33.0599C138.454 33.1261 138.409 33.1805 138.353 33.2468C138.215 33.3943 138.059 33.5707 137.977 33.7932C137.884 34.0255 137.866 34.248 137.866 34.4701V34.499L138.003 54.3329V54.3518L138.013 54.3702C138.141 54.9641 138.399 55.5022 138.748 55.974L138.756 55.9839C139.186 56.5489 139.718 57.2457 140.558 57.3469L141.725 57.4861H141.752C142.046 57.4861 142.305 57.7476 142.305 58.0531V58.0799C142.284 58.377 142.056 58.6096 141.762 58.6096L127.852 58.5078C127.539 58.5078 127.309 58.2853 127.309 57.9886C127.309 57.7371 127.566 57.5607 127.934 57.4962L129.633 57.2179H129.652L129.67 57.2095C130.199 56.9862 130.666 56.6354 131.03 56.1878C131.407 55.7247 131.785 55.1305 131.793 54.4348ZM173.119 25.1432C169.234 25.7925 165.711 27.8345 163.196 30.8946C160.752 33.863 159.448 37.6016 159.448 41.4334C159.448 41.795 159.457 42.1563 159.485 42.5196C159.485 46.5638 160.578 50.5249 162.902 53.8001C163.922 55.2459 165.054 56.5829 166.496 57.5844C168.526 59.003 170.924 59.8295 173.404 59.8295H173.533C177.125 59.7922 180.323 57.8167 182.73 55.1542C184.374 53.345 185.524 51.1372 186.102 48.7255L186.414 47.658C186.46 47.4917 186.497 47.3051 186.497 47.1385C186.497 46.8978 186.423 46.7214 186.258 46.6091C186.155 46.5492 186.038 46.5177 185.919 46.5177C185.561 46.5177 185.238 46.8044 185.238 47.1845V47.2319L185.219 47.2678L184.734 48.2334C184.191 49.3281 183.475 50.3397 182.584 51.1557C180.791 52.8156 178.449 53.6505 176.069 53.6505C175.609 53.6505 175.15 53.6233 174.681 53.5588C172.017 53.1957 169.775 51.6192 168.065 49.6147C165.844 46.9892 165.43 43.4933 165.43 40.1909V39.6054C165.466 36.8222 165.632 33.8166 167.349 31.4237C168.489 29.837 169.886 28.1941 171.925 27.7495C172.513 27.6205 173.138 27.5358 173.763 27.5358C174.81 27.5358 175.858 27.7868 176.703 28.5387C177.318 29.0851 177.742 29.837 178.026 30.5787C178.159 30.927 178.188 31.2851 178.216 31.6176L178.219 31.6545C178.246 32.0262 178.274 32.3607 178.402 32.6658C179.091 34.28 180.552 35.6815 182.152 35.6815C182.611 35.6815 183.098 35.5612 183.584 35.2913C184.678 34.6786 185.256 33.4448 185.404 32.1654C185.422 32.0346 185.422 31.9143 185.422 31.7853C185.422 30.0968 184.071 28.817 182.794 27.6205C182.757 27.5871 182.722 27.5537 182.687 27.5212C182.645 27.4811 182.604 27.4424 182.564 27.4067C180.718 25.6722 178.311 24.7523 175.857 24.7523C174.948 24.7523 174.029 24.883 173.138 25.1341L173.12 25.1428L173.119 25.1432ZM186.813 28.251L190.975 26.4879L195.173 24.7906L195.222 24.7865C195.325 24.778 195.427 24.7696 195.523 24.7533L195.555 24.7493C195.689 24.7322 195.817 24.716 195.945 24.716C196.111 24.716 196.267 24.7533 196.395 24.8367C196.771 25.0693 196.975 25.5052 196.983 25.9498L197.02 28.5007L197.029 28.947L197.333 28.6314C197.928 28.0019 198.566 27.416 199.244 26.8781C199.318 26.8122 199.4 26.7473 199.483 26.6915L199.507 26.6723C200.325 26.0205 201.128 25.3816 202.101 25.0504C202.937 24.7617 203.827 24.5211 204.691 24.5211C205.317 24.5211 205.913 24.6414 206.475 24.9674C207.816 25.7273 208.826 27.1379 208.826 28.5753C208.826 29.1047 208.688 29.6424 208.375 30.162C207.733 31.2465 206.567 31.8589 205.327 31.8589H205.224C204.512 31.8405 203.954 31.4184 203.332 30.9479L203.323 30.941C203.011 30.6997 202.679 30.4486 202.321 30.2638C202.236 30.2174 202.15 30.1606 202.06 30.1013L202.06 30.1012L202.003 30.0632L201.953 30.0312L201.948 30.0275C201.684 29.8432 201.381 29.6321 200.998 29.6054H200.906C200.429 29.6054 200.015 29.8544 199.676 30.0602C199.655 30.0693 199.635 30.0821 199.615 30.0949C199.598 30.1055 199.582 30.1161 199.565 30.1247C198.995 30.4675 198.545 30.9494 198.168 31.4414C198.146 31.4737 198.12 31.5064 198.095 31.5391C198.07 31.5718 198.045 31.6045 198.022 31.6367L197.986 31.683C197.652 32.1081 197.269 32.5963 197.277 33.2234L197.36 54.1795C197.36 55.0701 197.839 55.8778 198.472 56.4532C198.968 56.9065 199.565 57.2409 200.264 57.3239L201.908 57.5188L201.953 57.5293L202 57.5105C202.083 57.4732 202.165 57.4547 202.239 57.4547C202.578 57.4547 202.891 57.7514 202.891 58.1131V58.1692C202.864 58.4559 202.642 58.6323 202.348 58.7069C202.247 58.7258 202.146 58.7341 202.046 58.7341L187.023 58.7069H186.996L186.969 58.7157C186.904 58.7341 186.831 58.7443 186.776 58.7443C186.482 58.7443 186.214 58.5305 186.169 58.2062V58.1399C186.169 57.8076 186.583 57.6395 187.089 57.575L188.695 57.3612C189.238 57.2967 189.78 57.1304 190.24 56.7862C190.699 56.4347 191.295 55.9238 191.295 55.1821L191.268 32.7687C191.258 31.8676 190.974 30.9595 190.294 30.3011C189.79 29.8091 189.137 29.4747 188.42 29.4373L187.06 29.3829H187.006L186.959 29.4101C186.858 29.4663 186.757 29.4935 186.646 29.4935C186.371 29.4935 186.114 29.2982 186.058 29.0011C186.058 28.9863 186.056 28.9686 186.053 28.9525L186.053 28.9524C186.051 28.9389 186.05 28.9266 186.05 28.9181C186.05 28.621 186.389 28.426 186.813 28.251ZM231.134 42.7348L231.115 32.7627C231.115 31.0742 230.73 29.3941 229.764 28.0212C228.552 26.3055 226.641 25.35 224.592 24.9141C223.186 24.6284 221.755 24.4823 220.32 24.4778C218.933 24.4778 217.627 24.6253 216.626 24.951C213.897 25.842 211.141 27.1305 209.946 29.7927L209.943 29.8017L209.943 29.8019C209.935 29.8293 209.926 29.8618 209.911 29.8861C209.524 30.7398 209.156 31.5834 209.156 32.4472C209.156 32.6508 209.175 32.8457 209.212 33.041C209.551 34.5991 210.526 36.0651 212.106 36.0651H212.207C213.741 36.0093 214.632 34.5615 214.992 33.0682C215.019 32.9287 215.037 32.7899 215.037 32.6403C215.037 32.391 215 32.1312 214.955 31.8529C214.908 31.5834 214.862 31.2863 214.862 30.9909C214.862 30.8873 214.862 30.7956 214.881 30.6941C214.955 30.0525 215.037 29.3481 215.368 28.7169C216.222 27.057 218.077 26.4362 219.796 26.3885C219.829 26.3885 219.861 26.3863 219.893 26.3842C219.925 26.3822 219.957 26.3801 219.989 26.3801C221.505 26.3801 223.039 26.945 224.067 28.1415C224.858 29.0698 225.337 30.2478 225.337 31.4728V31.5L225.308 37.3823L213.861 41.9749C212.199 42.6417 210.635 43.5511 209.506 44.9241C208.109 46.6314 207.301 48.7565 207.301 50.8977C207.301 51.9839 207.513 53.0702 207.953 54.1171C209.193 57.0394 211.904 59.0065 215.046 59.2851C215.294 59.312 215.541 59.3221 215.79 59.3221C218.748 59.3221 221.515 57.7727 223.085 55.1845C223.839 53.9591 224.216 52.5217 224.354 51.0661C224.361 50.971 224.369 50.8762 224.377 50.7816C224.416 50.3122 224.455 49.8488 224.455 49.3856C224.455 48.4779 224.316 47.5782 223.821 46.7332C223.315 45.8712 222.276 45.0175 221.322 45.0175C220.908 45.0175 220.503 45.1751 220.145 45.5741C219.796 45.9626 219.639 46.4361 219.639 46.9181C219.639 47.4478 219.824 47.9855 220.145 48.4402C220.297 48.6559 220.543 48.768 220.835 48.9011L220.863 48.9138C221.147 49.0344 221.487 49.1823 221.717 49.4787C222.13 50.0273 222.332 50.694 222.332 51.3527C222.332 51.3766 222.33 51.4001 222.327 51.4234C222.325 51.4463 222.323 51.469 222.323 51.4919C222.286 52.364 221.836 53.1243 221.295 53.7185C220.486 54.6196 219.364 55.0352 218.226 55.0352C217.868 55.0352 217.508 54.9896 217.15 54.9062C215.478 54.5261 214.404 53.1159 213.778 51.6411C213.466 50.9165 213.328 50.1476 213.328 49.3856C213.328 48.3199 213.604 47.2441 214.073 46.2597C214.789 44.7849 216.01 43.6073 217.518 42.9301L217.537 42.9196L225.392 40.2031L225.474 54.5076C225.483 55.9447 225.676 57.3923 226.668 58.4039C227.569 59.312 228.865 59.6464 230.177 59.6464C231.712 59.6464 233.182 58.9503 234.221 57.7643L235.846 55.9179C235.876 55.884 235.906 55.8521 235.935 55.8204L235.935 55.8201C235.97 55.7822 236.005 55.7445 236.04 55.7041C236.361 55.3693 236.646 55.0454 236.646 54.7486C236.646 54.6468 236.609 54.5261 236.49 54.3957C236.331 54.2174 236.103 54.1161 235.865 54.1171C235.581 54.1171 235.295 54.2667 235.131 54.5261L235.093 54.5721L235.048 54.5906L233.477 55.2968C233.312 55.3697 233.137 55.407 232.962 55.407C232.557 55.407 232.172 55.2222 231.868 54.9997C231.418 54.6599 231.323 54.1311 231.244 53.6864L231.234 53.6351C231.224 53.5806 231.214 53.5268 231.204 53.4737C231.18 53.3469 231.157 53.2243 231.125 53.1058L231.115 53.0786V53.0597L231.134 42.7348ZM240.335 55.1015L240.372 40.9633L240.377 40.9678L240.367 29.7791V29.7519V29.7229C240.367 29.3439 240.368 28.8059 239.991 28.4435C239.642 28.1091 239.145 28.1007 238.779 28.1007H236.563C235.903 28.1007 235.389 27.571 235.389 26.8941V26.877C235.397 26.2357 235.948 25.735 236.6 25.7161L239.044 25.6704C239.058 25.6718 239.071 25.6732 239.085 25.6746C239.155 25.6818 239.224 25.6889 239.293 25.6889C239.635 25.6903 239.96 25.541 240.184 25.2802C240.362 25.0755 240.383 24.8068 240.4 24.592C240.401 24.5738 240.403 24.5559 240.404 24.5385C240.404 24.436 240.413 24.3336 240.433 24.233C240.577 23.5221 240.611 22.7951 240.644 22.0814C240.647 22.0218 240.65 21.9623 240.653 21.9029C240.69 20.9474 240.735 20.0107 240.984 19.1026C241.498 17.246 242.233 15.4372 243.483 13.9621C245.376 11.7355 248.031 10.3354 250.925 9.98251C251.504 9.90788 252.082 9.87231 252.67 9.87231C254.425 9.87231 256.171 10.2336 257.659 11.1891C257.687 11.1978 257.714 11.2163 257.741 11.2351C258.743 11.8747 259.763 12.5334 260.195 13.611C260.462 14.2509 260.635 14.965 260.635 15.6423C260.635 16.4774 260.378 17.2377 259.699 17.7757C259.211 18.166 258.652 18.3323 258.082 18.3323C257.274 18.3323 256.428 17.9979 255.721 17.5058C255.34 17.2329 255.112 16.8219 254.859 16.366L254.848 16.3463L254.818 16.2908C254.642 15.9726 254.455 15.6341 254.186 15.3455L254.159 15.3168C253.608 14.731 253.026 14.1135 252.283 13.7128C251.504 13.2954 250.621 12.8863 249.702 12.8863C249.389 12.8841 249.078 12.9376 248.784 13.0443C247.745 13.3972 247.075 14.2693 246.587 15.1401C246.184 15.8735 245.954 16.6811 245.954 17.5159L245.945 24.0566C245.935 24.1211 245.927 24.1772 245.927 24.2414C245.929 24.6054 246.071 24.9544 246.322 25.2157C246.661 25.5686 247.139 25.6059 247.544 25.6143L251.301 25.6516H251.421C252.542 25.6516 253.654 25.4755 254.729 25.1512C256.087 24.7421 257.43 24.1294 258.541 23.1551C259.58 22.2474 260.351 21.0781 260.966 19.8527C261.132 19.5288 261.233 19.1671 261.324 18.8331L261.337 18.791C261.461 18.3615 261.581 17.9491 261.822 17.5993C261.902 17.4769 261.968 17.3253 262.034 17.1773C262.043 17.1571 262.051 17.137 262.06 17.117C262.235 16.6895 262.363 16.4485 262.612 16.4485C262.636 16.4485 262.665 16.453 262.7 16.4586C262.717 16.4614 262.737 16.4644 262.758 16.4673C263.126 16.5793 263.235 17.0239 263.235 17.5159L263.272 24.1584C263.272 24.1804 263.27 24.2028 263.268 24.2261C263.266 24.2515 263.264 24.2779 263.264 24.3062C263.264 24.7338 263.492 25.1327 263.842 25.3737C264.109 25.5686 264.422 25.5773 264.688 25.5773H264.889L268.702 25.5686H268.721C268.776 25.5585 268.83 25.5501 268.886 25.5501C269.548 25.5501 270.118 26.0966 270.118 26.7839C270.118 27.4984 269.484 28.0261 268.767 28.0261L264.467 28.0449C264.127 28.0449 263.786 28.1568 263.539 28.4062C263.337 28.6116 263.282 28.8525 263.282 29.075C263.282 29.2075 263.299 29.3345 263.315 29.4562C263.32 29.4872 263.324 29.5179 263.328 29.5482C263.354 29.6961 263.373 29.8164 263.373 29.9371L263.428 50.8673C263.428 51.8312 263.613 52.8055 264.154 53.6215C264.679 54.4295 265.458 55.059 266.386 55.3474C266.781 55.468 267.205 55.5426 267.627 55.5426C268.171 55.5455 268.709 55.4219 269.198 55.1814C269.55 55.0078 269.851 54.7437 270.131 54.4975L270.144 54.4853C270.149 54.4807 270.155 54.4765 270.162 54.4722C270.169 54.4672 270.177 54.4622 270.181 54.4567L270.916 53.8168L270.945 53.7896L270.963 53.7523C271.064 53.5385 271.275 53.4078 271.496 53.4078C271.602 53.4095 271.706 53.4387 271.798 53.4925C271.955 53.5842 272 53.7049 272 53.8353C272 54.085 271.835 54.3922 271.66 54.652L271.087 55.5064C270.6 56.2394 270.059 56.9061 269.425 57.4732C267.981 58.7526 266.292 59.7643 264.408 59.7643H264.334C262.369 59.7371 260.567 58.7526 259.319 57.2406C258.012 55.6539 257.839 53.5124 257.839 51.4333L257.821 30.162C257.858 30.0312 257.875 29.8921 257.875 29.7613C257.878 29.4171 257.761 29.0827 257.545 28.8163C257.288 28.492 256.893 28.2869 256.48 28.2869L247.318 28.2695C246.914 28.2695 246.538 28.4257 246.271 28.7228C246.061 28.9739 246.014 29.2609 246.014 29.5203C246.014 29.6248 246.021 29.7229 246.029 29.8198L246.032 29.8649C246.042 29.967 246.042 30.0584 246.042 30.1519L246.142 54.5823C246.142 55.249 246.463 55.8432 246.868 56.3063C247.24 56.7621 247.74 57.0926 248.302 57.2535L249.312 57.5317L249.368 57.5401L249.413 57.5317C249.468 57.5129 249.524 57.5045 249.578 57.5045C249.919 57.5045 250.222 57.7727 250.23 58.1256L250.24 58.1528C250.24 58.4499 250.01 58.6536 249.689 58.7387C249.578 58.7655 249.468 58.784 249.368 58.784L237.698 58.7094H237.661L237.634 58.7282C237.561 58.7572 237.488 58.7655 237.422 58.7655C237.12 58.7655 236.863 58.5246 236.863 58.1818C236.863 57.8473 237.221 57.7539 237.727 57.6709L238.673 57.5234C239.167 57.4368 239.614 57.1728 239.93 56.7799C240.317 56.3019 240.327 55.6625 240.335 55.1416L240.335 55.1015Z" fill="white" fill-opacity="0.79"/>
</svg>
