<svg width="264" height="36" viewBox="0 0 264 36" fill="none" xmlns="http://www.w3.org/2000/svg">
<path fill-rule="evenodd" clip-rule="evenodd" d="M38.9355 0C48.0513 0 51.2812 5.1431 51.2812 18.0962C51.2812 31.046 48.0513 36 38.9355 36C29.6279 36 26.5899 31.046 26.5899 18.0962C26.5899 5.1431 29.6279 0 38.9355 0ZM0 0.764605H13.4851C19.9432 0.764605 22.9813 4.19278 22.9813 9.33253C22.9813 13.1422 21.4631 16.3813 17.4741 17.1425V17.3349C22.0303 17.7147 23.9305 21.5244 23.9305 25.1416C23.9305 31.2367 21.081 35.4278 13.4851 35.4278H0V0.764605ZM8.92724 14.2866H11.2062C12.9162 14.2866 14.0557 12.764 14.0557 10.8584C14.0557 8.95273 12.9162 7.23781 11.2062 7.23781H8.92724V14.2866ZM11.3964 28.9512H8.92724V20.38H11.3964C13.1064 20.38 14.6263 21.9025 14.6263 24.5694C14.6263 27.4287 13.1047 28.9512 11.3964 28.9512ZM41.9735 18.0962C41.9735 27.4304 41.5948 29.9066 38.9355 29.9066C36.086 29.9066 35.8975 27.4287 35.8975 18.0962C35.8975 8.76367 36.086 6.09676 38.9355 6.09676C41.5948 6.09676 41.9735 8.762 41.9735 18.0962ZM54.6996 0.764605H67.4239L71.2227 21.3353L74.8313 0.764605H87.7459V35.4278H79.3892V9.52493H79.2007L74.4509 35.4278H67.9945L63.0562 9.52493V35.4278H54.6996V0.764605ZM105.22 0.764605H91.7348H91.7332V35.4278H105.218C112.814 35.4278 115.664 31.2367 115.664 25.1416C115.664 21.5244 113.955 17.7147 109.397 17.3349V17.1425C113.196 16.3813 114.716 13.1422 114.716 9.33253C114.716 4.19278 111.676 0.764605 105.22 0.764605ZM100.66 14.2866H102.941C104.649 14.2866 105.791 12.764 105.791 10.8584C105.791 8.95273 104.651 7.23781 102.941 7.23781H100.66V14.2866ZM103.32 28.9512H100.66V20.38H103.32C104.84 20.38 106.359 21.9025 106.359 24.5694C106.359 27.4287 104.84 28.9512 103.32 28.9512ZM124.593 0.764605H135.989L144.347 35.4295H134.85L133.9 29.3344H126.683L125.732 35.4295H116.236L124.593 0.764605ZM127.821 22.4764L130.292 7.81001L132.759 22.4764H127.821ZM146.815 0.764605H160.87C167.896 0.764605 170.365 4.5709 170.365 9.90473C170.365 14.4756 168.655 17.5257 164.477 18.2869C168.847 18.6701 170.176 21.526 170.176 26.0969V28.9529C170.176 30.8586 170.176 33.1424 170.555 33.907C170.655 34.006 170.741 34.1052 170.825 34.2011L170.826 34.202L170.826 34.2021C171.062 34.4733 171.275 34.7177 171.696 34.8573V35.4295H162.008C161.249 33.5238 161.249 30.2864 161.249 28.7639V26.4767C161.249 22.4764 160.49 21.526 158.213 21.526H155.932V35.4311H146.815V0.764605ZM157.641 15.4293H155.931V7.23614H157.641C160.298 7.23614 161.436 8.38054 161.436 11.2365C161.436 13.7144 160.3 15.4293 157.641 15.4293ZM174.354 0.764605H187.459C197.906 0.764605 198.283 8.95441 198.283 18.0962C198.283 27.238 197.904 35.4278 187.459 35.4278H174.354V0.764605ZM185.178 28.9512H183.278V7.23781H185.178C188.595 7.23781 188.977 8.76367 188.977 18.0962C188.977 27.4287 188.596 28.9512 185.178 28.9512ZM201.895 0.764605H211.01V35.4278H201.895V0.764605ZM235.512 0.764605H214.999V35.4278H235.89V28.0009H224.114V21.1412H234.749V14.0958H224.114V8.19148H235.512V0.764605ZM239.309 0.764605H253.364C260.201 0.764605 262.859 4.5709 262.859 9.90473C262.859 14.4756 260.959 17.5257 256.971 18.2869C261.341 18.6701 262.478 21.526 262.478 26.0969V28.9529C262.478 30.8586 262.478 33.1424 263.049 33.907L263.052 33.913C263.243 34.2908 263.434 34.6692 264 34.8573V35.4295H254.502C253.555 33.5238 253.555 30.2864 253.555 28.7639V26.4767C253.555 22.4764 252.795 21.526 250.707 21.526H248.238V35.4311H239.309V0.764605ZM249.946 15.4293H248.236V7.23614H249.946C252.6 7.23614 253.741 8.38054 253.741 11.2365C253.741 13.7144 252.602 15.4293 249.946 15.4293Z" fill="white" fill-opacity="0.79"/>
</svg>
