<svg width="130" height="135" viewBox="0 0 130 135" fill="none" xmlns="http://www.w3.org/2000/svg">
<path fill-rule="evenodd" clip-rule="evenodd" d="M119.309 0H28.3912V29.0683H79.2337C85.5139 29.0683 93.5883 26.6713 99.8699 20.0781L119.309 0ZM28.4575 44.1303H75.7096L56.8689 63.3085C51.485 68.7017 44.607 73.4972 34.4385 73.4972H28.4575V44.1303ZM86.4153 54.8202V101.868H58.3032V92.2794C58.3032 83.7149 62.3584 79.4523 65.5689 76.0776C65.9534 75.6735 66.3257 75.2821 66.6775 74.8976L86.4153 54.8202ZM101.539 101.979V49.8365C101.539 44.4426 101.539 39.6478 107.22 33.6546L129.524 10.5803V101.98H101.539V101.979ZM111.525 118.206C111.795 112.991 115.574 110.89 120.57 110.89C125.005 110.89 129.677 112.258 129.679 117.609V134.161L124.921 134.179C124.705 133.488 124.534 132.755 124.49 132.021C122.552 134.05 119.337 134.558 116.624 134.558C113.167 134.558 110.454 132.446 109.573 129.822V134.179H103.757V121.579C103.757 117.91 102.904 116.099 100.062 116.099C97.2076 116.099 95.774 117.953 95.774 122.484V134.179H90.2574V128.596C89.4526 133.231 85.043 134.787 80.4487 134.783C75.587 134.779 72.029 132.748 70.2276 128.542C69.4488 133.22 65.0219 134.787 60.4103 134.783C55.2175 134.779 51.511 132.461 49.8437 127.641C47.9522 132.735 44.2284 134.783 39.4171 134.783C33.1787 134.783 29.0517 130.963 28.2102 125.268C26.5566 130.852 21.6797 134.913 14.5183 134.913C5.69107 134.913 0 127.793 0 118.903C0 109.755 6.13961 103.085 14.5183 103.085C21.8413 103.085 27.2633 106.604 27.9318 112.901H22.059C21.3177 110.504 20.0464 107.806 14.5183 107.806C8.44575 107.806 6.1634 113.509 6.1634 118.903C6.1634 124.038 8.44575 129.646 14.5183 129.667C19.7471 129.684 21.6163 126.763 22.6907 123.81H28.0674C28.0551 123.558 28.0472 123.304 28.0472 123.045C28.0472 116.358 32.6551 111.265 39.4164 111.265C46.996 111.265 50.2079 117.652 49.7774 124.513H34.1623C34.3339 128.397 36.229 130.166 39.6313 130.166C42.0859 130.166 44.0459 128.448 44.6791 126.9H50.0997C50.0974 126.906 50.0955 126.911 50.094 126.917H54.7834C55.7843 129.385 58.0407 130.908 60.4521 130.908C62.2181 130.908 64.4572 129.993 64.4572 127.835C64.4572 125.98 61.916 125.332 57.5237 124.383C53.9923 123.607 50.9571 121.98 50.9096 118.054C50.8504 113.202 55.3704 110.816 60.1507 110.816C64.7572 110.816 68.7493 112.906 69.2224 118.386H64.4551C63.8594 116.199 62.1749 115.065 59.9783 115.065C58.6003 115.065 56.0836 115.15 56.1276 117.437C56.1618 119.237 58.7476 119.766 61.5979 120.349L61.5981 120.349C62.2306 120.478 62.8761 120.61 63.5097 120.759C67.0583 121.573 70.2997 122.857 70.3459 126.93H74.8233C75.8213 129.385 78.0777 130.909 80.4891 130.909C82.2559 130.909 84.4949 129.993 84.4949 127.836C84.4949 125.981 81.9544 125.333 77.5614 124.384C74.0301 123.608 70.9949 121.981 70.9473 118.054C70.8882 113.203 75.4074 110.817 80.1877 110.817C84.7949 110.817 88.7863 112.906 89.2594 118.387H84.4921C83.8979 116.2 82.2119 115.066 80.0161 115.066C78.6373 115.066 76.1213 115.15 76.1653 117.438C76.1995 119.238 78.785 119.767 81.6353 120.35L81.6357 120.35C82.2679 120.479 82.9133 120.611 83.5467 120.76C86.703 121.484 89.6156 122.578 90.2552 125.677V111.87H95.4704L96.2182 113.329H96.3465C97.5789 112.229 99.8966 111.254 101.955 111.266C108.457 111.303 109.571 114.933 109.571 120.457V126.189C110.726 122.886 114.956 121.087 118.191 120.645C121.938 120.085 124.196 119.645 124.23 117.786C124.278 115.153 122.533 114.803 120.381 114.803C118.054 114.803 116.435 116.314 116.295 118.206H111.525ZM39.3197 115.886C42.2915 115.886 43.627 117.525 44.1866 120.632H34.238C34.3238 118.907 35.4437 115.886 39.3197 115.886ZM119.114 130.645C123.894 130.645 124.066 126.847 124.066 125.51H124.066V122.998C122.911 122.977 119.319 123.51 118.162 124.068C116.855 124.551 115.068 125.553 115.068 127.796C115.068 130.083 117.132 130.645 119.114 130.645Z" fill="white" fill-opacity="0.79"/>
</svg>
