<svg width="269" height="44" viewBox="0 0 269 44" fill="none" xmlns="http://www.w3.org/2000/svg">
<path fill-rule="evenodd" clip-rule="evenodd" d="M101.948 42.3077H88.4961C89.4372 40.971 89.9047 39.9912 89.9047 38.6848V19.0338H86.8291C86.8404 18.2188 87.1332 17.4318 87.6595 16.802H89.9047V12.7497C89.9047 5.75179 96.2464 0.44743 101.807 0.0361458C105.018 -0.211834 108.007 0.822424 110.665 2.94538L107.368 7.02798C105.984 4.92922 104.212 3.05425 102.164 3.18731C100.171 3.30223 99.8079 5.28607 99.8079 6.67113V16.796H106.894C106.906 17.5968 106.653 18.3798 106.174 19.0278H99.8079V38.461L101.948 42.3077ZM141.479 16.5379H147.335C147.356 17.3275 147.111 18.1024 146.637 18.7477H141.479V36.2648C141.479 38.0974 143.186 38.7442 144.507 38.7202C145.744 38.6604 146.887 38.0661 147.616 37.1033L148.12 37.6722C146.382 40.3132 143.186 42.3314 140.015 42.3075C136.875 42.2835 132.532 40.7983 132.532 37.1033V18.6459H129.392C134.158 16.2983 138.283 13.5255 141.473 10.1538V16.5379H141.479ZM150.091 42.3077H163.029C161.819 41.0744 160.775 39.6346 160.781 37.9818V22.7131C162.361 20.259 165.183 20.9414 167.33 22.037L170.253 16.4027C169.663 15.7266 168.804 15.1319 167.969 15.2446C165.398 15.5366 163.543 17.1503 161.667 18.7828L161.667 18.783C161.371 19.0405 161.074 19.2984 160.775 19.5516V15.3259L149.823 18.1994L151.272 19.946V39.0461C151.257 40.2453 150.838 41.4002 150.091 42.3077ZM194.875 25.9504H177.9C177.286 31.1143 180.996 37.0246 185.966 36.9691C189.063 36.9444 192.085 35.328 194.101 32.9466L194.629 33.5574C192.939 37.4441 189.044 42.1946 182.078 42.3056C173.833 42.4413 168.365 35.8894 168.555 28.227C168.807 17.7327 179.092 15.1231 183.374 15.2341C189.321 15.3699 194.905 19.5342 194.875 25.9504ZM210.448 39.9927L210.448 39.9929C207.992 41.1499 205.413 42.3648 202.751 42.2686C198.524 42.1329 196.282 39.9674 196.282 37.2158C196.312 32.6073 199.851 31.1636 203.083 30.195C203.758 29.9933 204.414 29.7882 205.057 29.5874L205.058 29.5873L205.058 29.5872C207.068 28.9591 208.947 28.3721 210.879 28.0542V20.2314C210.879 16.7888 206.179 17.1467 205.792 20.4843C205.754 20.7947 205.727 21.1094 205.699 21.4264L205.699 21.4272C205.645 22.0424 205.59 22.6665 205.46 23.2852L197.308 24.9818C197.111 17.7883 204.907 15.8202 210.215 15.7647C215.081 15.74 220.057 17.597 220.057 22.841V38.6101C220.057 39.6651 220.469 40.7201 221.329 41.5283H212.402C211.91 40.9502 211.619 40.2268 211.573 39.4677C211.201 39.638 210.826 39.8147 210.448 39.9927ZM187.158 23.7788H178.176C178.121 20.3116 179.725 17.1713 182.489 17.2269C186.138 17.3379 187.158 21.1691 187.158 23.7788ZM210.879 29.7755V37.0554C209.97 38.024 208.587 39.332 207.15 39.1962C205.964 39.1099 204.772 37.7526 204.772 36.5557V33.8041C204.772 31.8299 207.838 30.0038 210.879 29.7755ZM221.329 18.6912L232.083 15.9486L232.859 18.8858C238.981 14.2541 244.998 14.6809 249.488 18.8858C256.719 11.8002 266.419 16.1996 266.419 22.0802V37.1049C266.419 39.037 267.699 40.6554 268.961 42.2524L269 42.3014H256.356C257.327 41.3309 257.894 40.0158 257.938 38.63V22.4505C257.938 18.2958 249.679 18.2958 249.679 22.4505V38.6614C249.679 40.017 250.541 41.404 251.564 42.3077H238.648C239.56 40.9835 240.225 39.7659 240.225 38.3538V22.3313C240.225 18.4904 232.853 18.8293 232.853 22.3313V38.8559C232.853 40.2115 233.93 41.4542 235.039 42.3014H222.512C223.097 40.9772 223.399 39.7032 223.399 38.3476V21.7162C223.405 20.4987 222.906 19.5134 221.329 18.6912ZM108.182 34.7207V41.6088C112.924 44.5176 120.933 44.953 126.072 41.9111C129.731 39.7643 130.79 32.3078 127.077 29.5562C124.842 27.9034 122.468 26.8414 120.102 25.7829C118.806 25.2031 117.513 24.6244 116.246 23.9502C113.08 22.2569 115.873 18.8341 119.092 18.9671C122.883 19.1062 126.596 22.1783 127.083 24.9541H127.781V19.2634C125.188 17.7092 123.075 16.9231 119.092 16.9231C114.356 16.9231 107.37 19.0457 107.261 24.7908C107.153 29.659 111.57 33.3903 116.011 34.5574C119.555 35.4827 121.667 37.1941 121.667 38.7725C121.637 40.8165 119.501 41.8265 117.876 41.9051C113.249 42.153 110.812 39.4559 108.182 34.7207ZM83.2655 3.38462L71.5063 5.56097C72.6854 6.66448 73.6032 7.85381 73.5969 9.25772V38.4761C73.5616 39.8982 72.9909 41.2597 71.9907 42.3077H85.1266C83.8965 41.3145 83.2655 39.7145 83.2655 38.2247V3.38462ZM40.8608 16.9231H52.7356V37.2397C52.7356 38.8223 54.0239 40.5745 55.5674 40.5745H58.0071C59.8244 40.5745 60.6086 38.6528 60.6086 37.2397V21.4763C60.6086 19.8371 59.9427 18.3675 58.7041 16.9231H69.938V38.5711C69.938 39.7895 70.3798 41.0581 71.5063 41.9059L61.4488 43.5765C60.9696 43.2373 60.7206 42.5842 60.6895 41.5417C58.2498 43.2373 55.2562 44.0538 52.1195 43.9973C45.1427 43.8842 42.8523 38.9102 42.8523 34.445V20.7917C42.8523 19.3284 42.037 18.0284 40.8608 16.9231ZM40.8608 26.4988H26.557C27.6888 27.8985 29.0734 29.7151 29.0674 31.65V38.089C27.3336 39.9616 25.5456 41.5293 22.3249 41.3613C12.8432 40.8885 11.7837 31.0341 11.3803 24.2031C10.9469 16.7252 15.3897 7.88474 21.7048 7.82875C30.6687 7.77275 34.7624 14.6037 36.2253 17.677H37.0681L36.3336 7.93451C35.0897 8.66707 33.7332 8.08187 31.8161 7.25481C29.549 6.27675 26.4979 4.96045 21.9215 5.08517C12.6024 5.34024 0.219034 11.4931 0.00230981 24.4271C-0.160233 34.2816 8.26791 44.304 21.4881 43.9929C27.5322 43.8561 36.0086 42.0644 38.8561 38.6489V31.8739C38.8776 29.8915 39.5892 27.9833 40.8608 26.4988Z" fill="white" fill-opacity="0.79"/>
</svg>
