<svg width="211" height="76" viewBox="0 0 211 76" fill="none" xmlns="http://www.w3.org/2000/svg">
<path fill-rule="evenodd" clip-rule="evenodd" d="M0 0H77.1682V75.1105H0V0ZM38.5196 40.1512C38.5195 40.1512 38.5194 40.1512 38.5194 40.1512C37.1588 40.1512 36.0554 39.0515 36.0554 37.6955C36.0554 36.4233 37.0253 35.378 38.2677 35.2524C38.3454 35.2446 38.4241 35.2403 38.5037 35.2398C38.509 35.2398 38.5143 35.2397 38.5196 35.2397C38.6046 35.2397 38.6887 35.244 38.7715 35.2524C40.0138 35.3781 40.9836 36.4234 40.9836 37.6954C40.9836 38.9381 40.057 39.9655 38.855 40.1286C38.7453 40.1435 38.6334 40.1512 38.5196 40.1512ZM19.251 5.53248L19.251 5.53251C19.2575 5.5366 19.264 5.5407 19.2705 5.54569C22.9397 8.04552 42.3138 22.0888 42.3138 22.0888C42.6412 22.3236 43.0438 22.4626 43.479 22.4626C43.9208 22.4626 44.3301 22.3194 44.6608 22.0763C44.6608 22.0763 64.0266 8.03886 67.6866 5.54569C67.6948 5.53987 67.7021 5.53527 67.7098 5.53047L67.7099 5.53042L67.72 5.52405V8.43926C67.72 9.88022 67.1387 11.1872 66.1965 12.1378L45.162 33.0679C44.7302 33.4933 44.1355 33.7572 43.4798 33.7572C42.8434 33.7572 42.2671 33.5083 41.8386 33.1054H41.8352L41.8068 33.0762C41.8027 33.0729 41.7977 33.0687 41.7935 33.0646C41.7914 33.0625 41.7893 33.06 41.7872 33.0575C41.7851 33.055 41.783 33.0525 41.781 33.0504L20.7606 12.1187C19.8193 11.168 19.238 9.86191 19.238 8.41928V5.52405C19.2423 5.52704 19.2466 5.52976 19.251 5.53248ZM6.36865 56.9116C6.37617 56.9016 6.38369 56.8907 6.3912 56.8791C8.89942 53.2238 22.9898 33.9137 22.9898 33.9137C23.2262 33.5873 23.3649 33.1861 23.3649 32.7524C23.3649 32.312 23.2212 31.9042 22.9773 31.5745C22.9773 31.5745 8.89273 12.2727 6.3912 8.6249C6.38369 8.61491 6.37617 8.60408 6.36865 8.59243H9.29365C10.7403 8.59243 12.0516 9.17264 13.0054 10.1108L34.0058 31.075C34.4334 31.5062 34.6973 32.0981 34.6973 32.7524C34.6973 33.3859 34.4476 33.9603 34.0433 34.3873V34.3907L34.0141 34.4198L34.0101 34.424L34.0061 34.4281L34.0024 34.4314C33.9995 34.4349 33.9962 34.438 33.9928 34.4409C33.9913 34.4422 33.9898 34.4435 33.9882 34.4448L12.9862 55.3948C12.0324 56.333 10.7211 56.9116 9.27527 56.9116H6.36865ZM70.777 66.6362C68.2688 62.9801 54.1784 43.6707 54.1784 43.6707C53.942 43.3436 53.8033 42.9423 53.8033 42.5095C53.8033 42.0683 53.947 41.6612 54.1909 41.3307C54.1909 41.3307 68.2755 22.0297 70.777 18.382L70.7821 18.3744L70.7882 18.3658L70.7932 18.3588L70.7995 18.3495H67.8745C66.4279 18.3495 65.1166 18.9289 64.1628 19.867L43.1624 40.8321C42.7348 41.2625 42.4709 41.8543 42.4709 42.5095C42.4709 43.1421 42.7206 43.7173 43.1248 44.1436V44.1469L43.1541 44.1752L43.1569 44.1782L43.1592 44.181L43.1599 44.1818C43.1613 44.1836 43.1628 44.1853 43.1643 44.1869C43.1648 44.1875 43.1653 44.188 43.1658 44.1885C43.1676 44.1907 43.1695 44.1926 43.1716 44.1946L43.1763 44.1987L43.18 44.2018L64.182 65.1519C65.1358 66.0901 66.4471 66.6686 67.8938 66.6686H70.7995L70.792 66.6579C70.787 66.6509 70.782 66.6439 70.777 66.6362ZM57.8977 69.7162L57.9128 69.7266C57.9186 69.7305 57.9244 69.7343 57.9302 69.7378V66.8235C57.9302 65.3817 57.3489 64.0756 56.4076 63.1241L35.3722 42.1948C34.9404 41.7678 34.3457 41.5047 33.69 41.5047C33.0544 41.5047 32.4773 41.7536 32.0488 42.1573H32.0463L32.0171 42.1856C32.015 42.1877 32.0129 42.1896 32.0108 42.1915L32.0107 42.1915L32.0107 42.1916L32.0078 42.1942L32.0045 42.1973C32.0016 42.1998 31.9992 42.2025 31.9967 42.2054L31.994 42.2084L31.9912 42.2115L10.9716 63.1432C10.0303 64.0939 9.449 65.4008 9.449 66.8418V69.7378C9.45498 69.7342 9.46071 69.7302 9.46661 69.7262L9.46668 69.7262L9.46674 69.7261C9.46993 69.7239 9.47317 69.7217 9.47653 69.7195C9.47818 69.7184 9.47986 69.7173 9.48157 69.7162C13.1499 67.2164 32.524 53.1731 32.524 53.1731C32.8523 52.9383 33.254 52.7993 33.6892 52.7993C34.1319 52.7993 34.5403 52.9433 34.8719 53.1855C34.8719 53.1855 54.2377 67.2222 57.8977 69.7162Z" fill="white" fill-opacity="0.48"/>
<path d="M87.3131 41.0634L90.1821 40.8304C91.8793 40.6555 92.4648 40.3625 92.4648 39.9546V7.28292C92.4648 6.87502 92.1717 6.75765 89.772 6.52456L87.3716 6.34975L87.1962 5.47485H102.415L102.24 6.34975L99.4307 6.58283C97.675 6.75765 97.0895 7.04983 97.0895 7.45856V40.1303C97.0895 40.5382 97.4403 40.6555 99.8408 40.8886L102.182 41.0634L102.357 41.9383H87.1377L87.3131 41.0634Z" fill="white" fill-opacity="0.48"/>
<path fill-rule="evenodd" clip-rule="evenodd" d="M114.417 40.8886C110.377 40.4799 110.377 39.7224 112.192 34.5296L114.944 26.8287H126.476L129.871 37.1551C130.749 39.8389 130.105 40.7721 128.114 40.8886L125.715 41.0634L125.538 41.9383H140.641L140.466 41.0634L138.242 40.8886C136.076 40.7138 135.607 40.0129 134.436 36.629L123.865 5.47485H119.078L120.287 8.83043L112.368 30.7953C109.031 39.8389 108.562 40.4799 105.577 40.8886L104.114 41.0634L103.938 41.9383H116.465L116.289 41.0634L114.417 40.8886ZM120.797 10.2006H120.972L126.066 25.6616H115.294C115.353 25.6616 120.797 10.2006 120.797 10.2006Z" fill="white" fill-opacity="0.48"/>
<path fill-rule="evenodd" clip-rule="evenodd" d="M184.754 40.8886C180.715 40.4799 180.715 39.7224 182.53 34.5296L185.281 26.8287H196.814L200.209 37.1551C201.087 39.8389 200.443 40.7721 198.452 40.8886L196.052 41.0634L195.876 41.9383H210.979L210.805 41.0634L208.579 40.8886C206.414 40.7138 205.945 40.0129 204.774 36.629L194.203 5.47485H189.416L190.612 8.73303L182.706 30.7953C179.369 39.8389 178.901 40.4799 175.916 40.8886L174.452 41.0634L174.276 41.9383H186.803L186.628 41.0634L184.754 40.8886ZM191.136 10.2006H191.311L196.403 25.6616H185.632C185.691 25.6616 191.136 10.2006 191.136 10.2006Z" fill="white" fill-opacity="0.48"/>
<path fill-rule="evenodd" clip-rule="evenodd" d="M144.857 40.8304L142.339 41.0634L142.164 41.9383H154.984C169.326 41.9383 177.17 33.5956 177.17 22.9187C177.17 12.4749 169.677 5.1835 156.154 5.29921L142.223 5.47485L142.398 6.34975L144.448 6.52456C146.906 6.75765 147.198 6.87502 147.198 7.28292V39.9546C147.198 40.3625 146.555 40.6555 144.857 40.8304ZM155.218 6.46713C166.809 6.46713 172.194 14.2838 172.194 24.2614C172.194 33.0121 166.867 40.6555 156.389 40.8886H151.823V6.46713H155.218Z" fill="white" fill-opacity="0.48"/>
<path fill-rule="evenodd" clip-rule="evenodd" d="M107.96 48.4299H106.341L101.968 58.4051H103.757L104.779 56.0135H109.479L110.487 58.4051H112.332L107.96 48.4299ZM107.122 50.5094L108.84 54.4718H105.418L107.122 50.5094Z" fill="white" fill-opacity="0.48"/>
<path d="M112.674 53.4811V53.4528C112.674 50.6367 114.789 48.3308 117.799 48.3308C119.631 48.3308 120.738 48.9668 121.689 49.8725L120.568 51.1603C119.772 50.4244 118.921 49.9299 117.785 49.9299C115.883 49.9299 114.505 51.4858 114.505 53.4245V53.4528C114.505 55.3908 115.883 56.9757 117.785 56.9757C119.006 56.9757 119.787 56.4813 120.639 55.6888L121.76 56.8201C120.724 57.8956 119.589 58.5748 117.729 58.5748C114.832 58.5748 112.674 56.3248 112.674 53.4811Z" fill="white" fill-opacity="0.48"/>
<path d="M122.585 53.4811V53.4528C122.585 50.6367 124.701 48.3308 127.71 48.3308C129.542 48.3308 130.649 48.9668 131.6 49.8725L130.479 51.1603C129.684 50.4244 128.832 49.9299 127.696 49.9299C125.794 49.9299 124.417 51.4858 124.417 53.4245V53.4528C124.417 55.3908 125.794 56.9757 127.696 56.9757C128.917 56.9757 129.698 56.4813 130.55 55.6888L131.671 56.8201C130.635 57.8956 129.499 58.5748 127.639 58.5748C124.742 58.5748 122.585 56.3248 122.585 53.4811Z" fill="white" fill-opacity="0.48"/>
<path fill-rule="evenodd" clip-rule="evenodd" d="M137.933 48.5005H133.504V58.4049H135.25V54.9528H137.436L139.878 58.4049H141.937L139.254 54.6547C140.645 54.2593 141.625 53.2829 141.625 51.6554V51.6271C141.625 50.7647 141.327 50.0289 140.801 49.4903C140.162 48.8676 139.183 48.5005 137.933 48.5005ZM139.85 51.7545C139.85 52.7593 139.055 53.4102 137.805 53.4102H135.25V50.0846H137.792C139.083 50.0846 139.85 50.6648 139.85 51.7262V51.7545Z" fill="white" fill-opacity="0.48"/>
<path d="M143.486 48.5005H150.855V50.0563H145.233V52.6319H150.216V54.1886H145.233V56.8482H150.926V58.4049H143.486V48.5005Z" fill="white" fill-opacity="0.48"/>
<path fill-rule="evenodd" clip-rule="evenodd" d="M156.421 48.5005H152.715V58.4049H156.421C159.544 58.4049 161.702 56.2405 161.702 53.4527V53.4244C161.702 50.6365 159.544 48.5005 156.421 48.5005ZM159.871 53.481C159.871 55.4189 158.508 56.8199 156.421 56.8199H154.461V50.0846H156.421C158.508 50.0846 159.871 51.5139 159.871 53.4527V53.481Z" fill="white" fill-opacity="0.48"/>
<rect x="163.351" y="48.5005" width="1.74648" height="9.9044" fill="white" fill-opacity="0.48"/>
<path d="M170.193 50.1129H167.042V48.5005H175.106V50.1129H171.954V58.4049H170.193V50.1129Z" fill="white" fill-opacity="0.48"/>
<path d="M176.669 48.5005H184.037V50.0563H178.415V52.6319H183.398V54.1886H178.415V56.8482H184.108V58.4049H176.669V48.5005Z" fill="white" fill-opacity="0.48"/>
<path fill-rule="evenodd" clip-rule="evenodd" d="M189.889 48.5005H186.183V58.4049H189.889C193.012 58.4049 195.17 56.2405 195.17 53.4527V53.4244C195.17 50.6365 193.012 48.5005 189.889 48.5005ZM193.338 53.481C193.338 55.4189 191.976 56.8199 189.889 56.8199H187.929V50.0846H189.889C191.976 50.0846 193.338 51.5139 193.338 53.4527V53.481Z" fill="white" fill-opacity="0.48"/>
<path fill-rule="evenodd" clip-rule="evenodd" d="M123.983 62.2358H120.277V72.1402H123.983C127.107 72.1402 129.264 69.9759 129.264 67.188V67.1597C129.264 64.3719 127.107 62.2358 123.983 62.2358ZM127.434 67.2163C127.434 69.1543 126.071 70.5553 123.983 70.5553H122.024V63.82H123.983C126.071 63.82 127.434 65.2493 127.434 67.188V67.2163Z" fill="white" fill-opacity="0.48"/>
<path d="M130.529 62.2358H137.898V63.7917H132.276V66.3673H137.259V67.9239H132.276V70.5836H137.969V72.1402H130.529V62.2358Z" fill="white" fill-opacity="0.48"/>
<path fill-rule="evenodd" clip-rule="evenodd" d="M145.182 62.165H143.564L139.19 72.1402H140.98L142.002 69.7486H146.701L147.71 72.1402H149.555L145.182 62.165ZM144.345 64.2445L146.063 68.2069H142.641L144.345 64.2445Z" fill="white" fill-opacity="0.48"/>
<path d="M151.26 62.2358H153.006V70.5553H158.231V72.1402H151.26V62.2358Z" fill="white" fill-opacity="0.48"/>
<path d="M160.049 62.2358H167.417V63.7917H161.795V66.3673H166.778V67.9239H161.795V70.5836H167.488V72.1402H160.049V62.2358Z" fill="white" fill-opacity="0.48"/>
<path fill-rule="evenodd" clip-rule="evenodd" d="M173.992 62.2358H169.562V72.1402H171.308V68.6881H173.495L175.936 72.1402H177.995L175.311 68.3901C176.703 67.9947 177.683 67.0182 177.683 65.3908V65.3625C177.683 64.5001 177.384 63.7642 176.859 63.2256C176.22 62.6029 175.24 62.2358 173.992 62.2358ZM175.908 65.4899C175.908 66.4946 175.113 67.1456 173.863 67.1456H171.308V63.82H173.849C175.141 63.82 175.908 64.4002 175.908 65.4616V65.4899Z" fill="white" fill-opacity="0.48"/>
</svg>
