<svg width="255" height="49" viewBox="0 0 255 49" fill="none" xmlns="http://www.w3.org/2000/svg">
<path d="M127.839 8.4426H128.601C136.504 8.4426 144.402 8.4426 152.3 8.4426C154.433 8.40217 156.554 8.78386 158.541 9.56596C159.387 9.86396 160.155 10.3509 160.788 10.9903C161.42 11.6297 161.901 12.4049 162.193 13.2578C162.715 14.8209 162.735 16.5094 162.251 18.0847C161.865 19.3089 161.075 20.3637 160.012 21.0745C159.814 21.2149 159.535 21.291 159.541 21.6596C159.616 21.7122 159.698 21.7824 159.791 21.8409C160.832 22.4329 161.716 23.2673 162.37 24.2741C163.023 25.281 163.427 26.4309 163.548 27.6274C163.799 29.2221 163.515 30.8555 162.741 32.2699C161.967 33.6843 160.747 34.799 159.273 35.4382C157.616 36.1589 155.843 36.5751 154.039 36.6669C153.335 36.7195 152.626 36.7078 151.916 36.7078H127.839V8.4426ZM133.265 32.0974H134.248C140.267 32.0974 146.292 32.0974 152.312 32.0974C153.288 32.0857 154.262 31.9839 155.22 31.7932C155.829 31.669 156.397 31.3944 156.875 30.994C157.352 30.5936 157.722 30.0801 157.953 29.4997C158.184 28.9193 158.268 28.2903 158.197 27.6693C158.125 27.0482 157.902 26.4548 157.546 25.9424C156.956 25.1673 156.103 24.6382 155.15 24.4563C154.216 24.2272 153.256 24.1229 152.294 24.1462H133.265V32.0974ZM133.265 19.6059C133.515 19.6059 133.672 19.641 133.847 19.641C140.023 19.641 146.203 19.641 152.387 19.641C153.279 19.6539 154.169 19.5376 155.028 19.2958C155.647 19.1483 156.196 18.7884 156.58 18.2781C156.964 17.7677 157.16 17.1388 157.133 16.4992C157.135 16.2687 157.125 16.0383 157.104 15.8088C157.084 15.3465 156.935 14.8992 156.675 14.5176C156.415 14.136 156.054 13.8353 155.633 13.6498C154.614 13.236 153.521 13.0369 152.422 13.0647C151.073 13.0179 149.724 13.0647 148.351 13.0647H134.004C133.765 13.0647 133.521 13.094 133.265 13.1057V19.6059Z" fill="white" fill-opacity="0.48"/>
<path d="M223.259 36.4739H218.234C218.234 36.1872 218.17 35.9415 218.17 35.6957V15.4344C218.145 14.4194 218.319 13.4094 218.682 12.4622C219.017 11.703 219.497 11.018 220.096 10.4466C220.695 9.87523 221.4 9.4288 222.172 9.13309C223.453 8.63189 224.798 8.31669 226.167 8.19697C227.943 8.01656 229.728 7.95597 231.512 8.01559H243.539C245.049 8.02132 246.556 8.14456 248.046 8.38419C249.248 8.5473 250.414 8.91323 251.495 9.46659C252.363 9.87167 253.114 10.4915 253.678 11.2682C254.243 12.0449 254.602 12.9529 254.723 13.9074C254.829 14.5891 254.891 15.277 254.909 15.9668C254.944 22.5977 254.969 29.2111 254.985 35.8069C254.985 36.0117 254.985 36.2106 254.985 36.4856C253.321 36.55 251.71 36.4856 250.024 36.4856C249.995 36.1697 249.954 35.9005 249.954 35.6372C249.954 32.6182 249.954 29.5992 249.954 26.5802C249.954 26.3111 249.954 26.0419 249.919 25.7903C249.337 25.6499 224.242 25.6148 223.37 25.7494C223.37 25.9776 223.341 26.2233 223.341 26.469V35.5963C223.317 35.8947 223.277 36.1638 223.259 36.4739ZM249.675 20.9868C249.714 20.9159 249.742 20.8388 249.756 20.7586C249.756 19.0034 249.756 17.2131 249.756 15.4403C249.749 15.1875 249.698 14.938 249.605 14.7031C249.151 13.4802 248.133 12.9478 246.97 12.7547C245.977 12.5889 244.971 12.5048 243.964 12.5032C239.043 12.4798 234.121 12.4798 229.197 12.5032C228.556 12.4962 227.915 12.5275 227.278 12.5968C226.525 12.6611 225.785 12.8325 225.08 13.1058C224.491 13.3215 223.987 13.7228 223.643 14.25C223.299 14.7771 223.134 15.4019 223.172 16.0312C223.172 17.5056 223.172 18.9566 223.172 20.4544C223.189 20.6507 223.216 20.846 223.253 21.0395L249.675 20.9868Z" fill="white" fill-opacity="0.48"/>
<path d="M208.778 36.4739H203.736C203.684 35.2687 203.736 34.0985 203.736 32.9635C203.736 31.8284 203.736 30.5646 203.736 29.3652V25.8781L203.62 25.7728C203.62 25.7728 203.585 25.7553 203.544 25.7553L177.71 25.7202C177.547 25.7202 177.39 25.7202 177.129 25.7553C177.129 26.0244 177.076 26.2935 177.076 26.5568C177.076 29.6226 177.076 32.6885 177.076 35.7543V36.4037C175.401 36.559 173.715 36.559 172.04 36.4037C172.04 36.1931 171.999 35.9708 171.999 35.7484C171.999 28.8796 171.999 22.0127 171.999 15.1478C171.969 14.1314 172.168 13.1213 172.581 12.1931C173.283 10.8021 174.469 9.71928 175.913 9.15068C177.199 8.63776 178.553 8.31839 179.932 8.20285C181.639 8.02052 183.357 7.95796 185.073 8.01563C189.493 8.01563 193.913 7.98052 198.333 8.01563C200.235 8.00432 202.128 8.28648 203.945 8.85229C205.041 9.20025 206.049 9.78311 206.9 10.5607C207.934 11.5949 208.555 12.9754 208.644 14.4398C208.7 14.9665 208.729 15.4957 208.732 16.0254C208.759 22.2467 208.784 28.4681 208.807 34.6894C208.807 35.058 208.807 35.4266 208.807 35.7952C208.842 36.0176 208.819 36.2165 208.778 36.4739ZM203.544 20.9927C203.544 19.138 203.544 17.3652 203.544 15.5983C203.558 15.119 203.438 14.6455 203.197 14.2317C202.957 13.8179 202.605 13.4804 202.183 13.2579C201.726 12.9947 201.225 12.8145 200.706 12.7255C199.757 12.5735 198.799 12.4914 197.839 12.4798C192.942 12.4564 188.045 12.4564 183.148 12.4798C182.484 12.4759 181.82 12.5072 181.159 12.5734C180.428 12.6202 179.708 12.78 179.025 13.0473C178.406 13.2396 177.871 13.6383 177.509 14.1777C177.146 14.717 176.977 15.3647 177.03 16.0137C177.03 17.4881 177.03 18.9625 177.03 20.4369C177.03 20.6124 177.065 20.7879 177.082 20.9752L203.544 20.9927Z" fill="white" fill-opacity="0.48"/>
<path d="M118.115 36.667C116.859 36.667 115.667 36.6085 114.486 36.667C114.047 36.6966 113.607 36.6327 113.194 36.4795C112.781 36.3262 112.405 36.0871 112.09 35.7777C107.065 31.413 101.999 27.0892 96.9688 22.7538L87.8089 14.9195C87.5007 14.6562 87.175 14.4105 86.7446 14.0653C86.6803 14.9277 86.6609 15.7928 86.6865 16.6572C86.6865 17.488 86.6865 18.313 86.6865 19.1438V36.6319C84.9417 36.7079 83.2726 36.6319 81.5162 36.6728C81.5162 36.3627 81.4639 36.0877 81.4639 35.8303C81.4639 29.566 81.4639 23.2979 81.4639 17.0258C81.4639 14.471 81.4639 11.9122 81.4639 9.34957C81.4639 9.08043 81.4639 8.81129 81.5046 8.50705C81.7256 8.50705 81.9059 8.44269 82.0862 8.43684C83.6448 8.43684 85.1976 8.43684 86.7388 8.43684C87.1053 8.43902 87.4563 8.58612 87.7159 8.8464L94.5553 14.7323L110.962 28.8152L112.235 29.8917C112.404 30.0322 112.59 30.155 112.881 30.3715C112.881 29.9795 112.956 29.7162 112.956 29.4588C112.956 27.6333 112.956 25.8137 112.956 23.9941V8.54801C114.676 8.39285 116.407 8.39285 118.127 8.54801L118.115 36.667Z" fill="white" fill-opacity="0.48"/>
<path d="M64.7782 23.4148C64.5862 24.544 64.4292 25.5152 64.2489 26.4806C64.1617 26.9545 64.0105 27.4167 63.9232 27.8907C63.8989 28.0373 63.8374 28.1752 63.7447 28.2909C63.652 28.4067 63.5312 28.4966 63.394 28.5518C61.8083 29.3262 60.1167 29.8587 58.375 30.1315C57.0024 30.3714 55.6241 30.582 54.2457 30.7517C52.9953 30.9097 51.7391 31.0091 50.4829 31.091C48.3601 31.2315 46.2374 31.3485 44.1146 31.4538C43.219 31.5006 42.3291 31.5182 41.4335 31.5182C37.5427 31.5182 33.6461 31.5182 29.7554 31.5182C26.6672 31.4772 23.5732 31.3602 20.4908 31.2315C18.0656 31.132 15.6404 30.9857 13.221 30.8219C11.2146 30.6873 9.2081 30.5118 7.20746 30.3129C5.54414 30.1549 3.89245 29.9384 2.23494 29.7278C1.96742 29.6927 1.69989 29.6225 1.40328 29.5581C0.840235 28.0687 0.402511 26.5343 0.0947266 24.9711C0.676308 25.0647 1.17065 25.1583 1.67663 25.2227C2.69439 25.3573 3.71216 25.4977 4.73574 25.603C6.07919 25.7434 7.42265 25.8604 8.7661 25.9657C10.1096 26.0711 11.5984 26.1998 13.0116 26.2817C15.5939 26.4299 18.1761 26.5625 20.7583 26.6795C21.7179 26.7205 22.6833 26.7205 23.6662 26.7381C28.156 26.8083 32.64 26.9077 37.124 26.9487C39.1188 26.9487 41.1136 26.9077 43.1026 26.8258C45.5918 26.7205 48.081 26.5801 50.5701 26.4046C53.6966 26.2105 56.8059 25.798 59.8754 25.17C61.2952 24.9365 62.6692 24.4784 63.9465 23.8126C64.1559 23.6898 64.3943 23.6079 64.7782 23.4148Z" fill="white" fill-opacity="0.48"/>
<path d="M2.89844 32.2204C5.72492 32.4193 8.52814 32.6417 11.3314 32.8055C14.1346 32.9693 16.9029 33.0922 19.6945 33.2326C27.3539 33.6246 35.025 33.7007 42.696 33.5836C45.3713 33.5368 48.0466 33.3847 50.716 33.2326C52.3852 33.1331 54.0485 32.981 55.706 32.7938C57.502 32.6107 59.2774 32.2621 61.01 31.7523C61.2472 31.6689 61.4784 31.5692 61.7021 31.4539C61.9552 31.3145 62.2309 31.2214 62.5163 31.179C62.4465 31.3077 62.3825 31.4364 62.3069 31.5651C61.107 33.5319 59.621 35.3068 57.8986 36.8308C57.6634 37.0496 57.3627 37.1834 57.0436 37.2111C56.02 37.3457 55.0081 37.5212 53.9903 37.6558C53.3099 37.7436 52.6294 37.8196 51.9432 37.8606C50.78 37.9366 49.5645 38.001 48.3781 38.0302C45.6795 38.1063 42.9752 38.2058 40.2766 38.2116C35.624 38.2116 31.0295 38.1765 26.4059 38.1414C24.9404 38.1414 23.4748 38.0966 22.0092 38.0068C19.9329 37.9132 17.8509 37.7845 15.7746 37.6558C14.2218 37.5563 12.6748 37.451 11.122 37.334C9.77602 37.2508 8.44051 37.0432 7.13235 36.7138C6.89138 36.6579 6.66773 36.5434 6.48098 36.3803C5.10646 35.1619 3.90144 33.7626 2.89844 32.2204V32.2204Z" fill="white" fill-opacity="0.48"/>
<path d="M64.4934 19.9048C63.9641 19.4893 63.5628 19.1324 63.115 18.8282C61.3375 17.6593 59.3686 16.8155 57.2992 16.3358C55.612 15.9246 53.8978 15.6353 52.1697 15.4698C49.6295 15.235 47.0776 15.153 44.5277 15.2241C41.8974 15.2691 39.2711 15.4487 36.6589 15.7624C34.6641 16.0023 32.6634 16.2304 30.6744 16.4996C29.1798 16.7044 27.6909 16.9559 26.2079 17.2134C21.1365 18.0969 16.1291 19.2495 11.1566 20.5425C8.01604 21.3616 4.89294 22.2685 1.85128 23.3918C1.26969 23.6083 0.688113 23.854 0.0600055 24.1173C-0.0694542 22.6118 0.0108043 21.0954 0.298454 19.6122C1.52559 19.2202 2.74109 18.8165 3.96241 18.4421C8.31652 17.1198 12.7191 15.9847 17.1701 15.0369C20.2351 14.3816 23.3 13.7614 26.3824 13.2173C28.7668 12.796 31.1746 12.4918 33.5765 12.1934C35.6644 11.9301 37.7523 11.6844 39.8518 11.5381C43.0952 11.2953 46.3501 11.2484 49.5991 11.3977C52.4782 11.4997 55.3357 11.9396 58.1134 12.7083C59.7269 13.1737 61.2719 13.8524 62.7079 14.7268C63.408 16.4143 64.0043 18.1436 64.4934 19.9048V19.9048Z" fill="white" fill-opacity="0.48"/>
<path d="M60.0672 11.0286C59.5263 10.8589 58.9855 10.6893 58.4446 10.5079C56.3449 9.86755 54.1857 9.4441 52.0007 9.24411C49.0196 8.93645 46.0194 8.86212 43.0269 9.02178C40.7006 9.10369 38.3742 9.32017 36.0479 9.52495C34.2508 9.68292 32.4537 9.88185 30.6683 10.11C28.6793 10.3909 26.6903 10.6951 24.7129 11.0813C22.1927 11.5376 19.6725 12.0271 17.1524 12.5498C13.4419 13.328 9.74883 14.2114 6.10231 15.2529C4.52041 15.7034 2.95596 16.2124 1.37988 16.6922C1.29288 16.7014 1.20516 16.7014 1.11816 16.6922C1.83932 15.0013 2.4907 13.3163 3.73528 11.8945C6.11976 11.2685 8.52751 10.6132 10.9411 9.99886C15.3436 8.86966 19.7637 7.81066 24.236 6.96815C26.9307 6.46108 29.6331 5.99886 32.3432 5.58151C34.088 5.31822 35.792 5.1778 37.5193 4.99643C40.2937 4.68353 43.0855 4.55453 45.8766 4.61027C48.0312 4.64038 50.1762 4.90521 52.274 5.40013C53.8858 5.76602 55.3824 6.52786 56.6301 7.61759C57.8339 8.68243 58.9564 9.79994 60.1603 10.894L60.0672 11.0286Z" fill="white" fill-opacity="0.48"/>
<path d="M53.3099 40.0077C52.7898 40.5057 52.1824 40.9024 51.5187 41.1779C49.259 42.3541 46.8724 43.265 44.4059 43.8927C42.7726 44.333 41.1084 44.6479 39.4276 44.8347C38.311 44.9283 37.206 45.1857 36.0951 45.2384C34.2457 45.3378 32.3846 45.3846 30.5352 45.3495C28.158 45.2851 25.7895 45.0328 23.4516 44.5948C21.5189 44.2464 19.6125 43.7635 17.7463 43.1496C15.4689 42.384 13.2809 41.3717 11.2209 40.1306C10.9152 39.9235 10.6202 39.7009 10.3369 39.4636L13.3844 39.762C14.5883 39.879 15.7921 40.0487 17.0018 40.1072C19.9097 40.2476 22.7653 40.2944 25.6441 40.4641C31.0005 40.7801 36.3568 40.6923 41.7132 40.6864C43.3126 40.6864 44.9119 40.5519 46.5113 40.4758C46.6218 40.4758 46.7381 40.4758 46.8544 40.4758C48.8435 40.4829 50.8303 40.3401 52.7981 40.0487C52.9679 40.026 53.1387 40.0124 53.3099 40.0077V40.0077Z" fill="white" fill-opacity="0.48"/>
<path d="M46.5517 2.4924C45.8189 2.4924 45.0861 2.4924 44.3533 2.4924C42.5678 2.5392 40.7824 2.53335 39.0027 2.66207C37.2231 2.79079 35.5133 3.05992 33.7685 3.24715C32.3204 3.43438 30.8606 3.63915 29.4183 3.83223C28.7437 3.93169 28.0632 4.03116 27.3886 4.15987C25.2774 4.55188 23.1663 4.94388 21.061 5.37099C19.7815 5.62843 18.5136 5.95607 17.2516 6.24861C15.251 6.72838 13.2503 7.20229 11.2555 7.71131C9.85972 8.06821 8.48138 8.48362 7.09721 8.88147C6.99385 8.919 6.8807 8.919 6.77734 8.88147C6.95763 8.7001 7.13211 8.51287 7.31821 8.3432C8.58892 7.25184 9.96659 6.29324 11.43 5.48216C13.5255 4.26325 15.732 3.24841 18.0193 2.45144C19.9842 1.76758 21.9934 1.22022 24.0329 0.813215C27.2731 0.207434 30.5667 -0.0611688 33.8616 0.0116547C35.7635 0.0550729 37.6601 0.231018 39.5378 0.538227C41.7104 0.873068 43.8506 1.39373 45.9352 2.09454C46.1678 2.17645 46.3888 2.29347 46.6156 2.39293L46.5517 2.4924Z" fill="white" fill-opacity="0.48"/>
<path d="M82.9764 42.4417V47.8069L82.3076 47.842C82.154 45.6473 82.1346 43.4452 82.2494 41.2481C82.4123 41.2481 82.5868 41.213 82.7612 41.2072C82.9357 41.2013 83.1276 41.2072 83.3777 41.2072C84.1803 42.9624 84.9887 44.7177 85.8145 46.5665C86.0239 46.2564 85.9134 45.9814 85.9308 45.6948C85.9483 45.4081 85.9308 45.1097 85.9308 44.7996V41.2891C86.0362 41.2619 86.143 41.2404 86.2507 41.2247C86.3845 41.2247 86.5124 41.2247 86.6811 41.2247V47.7659C86.3379 47.9298 85.9715 47.7659 85.5528 47.8654L83.0985 42.4242L82.9764 42.4417Z" fill="white" fill-opacity="0.48"/>
<path d="M123.582 41.1369C124.42 41.1369 125.216 41.1018 126.013 41.1369C127.397 41.213 127.671 42.9448 127.176 43.6645C126.953 43.9215 126.699 44.1495 126.42 44.3432C126.646 44.3819 126.859 44.4757 127.041 44.6165C127.222 44.7573 127.367 44.9406 127.461 45.1506C127.655 45.6971 127.645 46.2962 127.432 46.8356C127.35 47.065 127.209 47.2682 127.023 47.4244C126.837 47.5807 126.613 47.6844 126.374 47.7249C125.945 47.7922 125.511 47.8274 125.077 47.8303C124.6 47.8303 124.117 47.8303 123.652 47.8303C123.472 45.6036 123.449 43.3669 123.582 41.1369V41.1369ZM124.268 47.0404C124.85 47.0404 125.28 47.0404 125.734 47.0404C125.99 47.0331 126.233 46.928 126.415 46.7465C126.596 46.5649 126.702 46.3207 126.711 46.0633C126.762 45.8006 126.716 45.528 126.581 45.2972C126.446 45.0665 126.231 44.8936 125.978 44.8112C125.422 44.6519 124.835 44.6298 124.268 44.7469V47.0463V47.0404ZM124.408 43.9863C124.862 43.9863 125.269 43.9863 125.676 43.9863C125.919 43.9772 126.149 43.8731 126.317 43.6962C126.486 43.5192 126.579 43.2833 126.577 43.0385C126.598 42.919 126.593 42.7965 126.564 42.6788C126.535 42.5611 126.482 42.4509 126.408 42.355C126.334 42.2592 126.241 42.18 126.135 42.1224C126.029 42.0647 125.912 42.03 125.792 42.0204C125.35 41.9502 124.896 41.9561 124.408 41.9268V43.9863Z" fill="white" fill-opacity="0.48"/>
<path d="M106.547 47.8069H105.838V41.2832C106.217 41.1772 106.614 41.1592 107.001 41.2306C107.811 43.0092 108.618 44.782 109.42 46.5489H109.531V41.2832H110.293V47.7835H109.13C108.286 46.0282 107.53 44.1794 106.687 42.389L106.536 42.43L106.547 47.8069Z" fill="white" fill-opacity="0.48"/>
<path d="M249.791 41.2248H250.954L253.379 46.549L253.502 46.5139V41.2482L254.176 41.1897V47.807C253.978 47.807 253.821 47.807 253.67 47.807C253.519 47.807 253.31 47.807 253.089 47.807L250.652 42.4125H250.541C250.541 42.8455 250.541 43.2784 250.541 43.7114C250.541 44.1444 250.541 44.63 250.541 45.0922V47.7953H249.791V41.2248Z" fill="white" fill-opacity="0.48"/>
<path d="M198.577 47.7951L196.117 42.3129H196.024V47.7658H195.309V41.2539H196.472L198.891 46.6308H198.984V41.248H199.705V47.7951H198.577Z" fill="white" fill-opacity="0.48"/>
<path d="M145.967 46.6251V41.2599H146.671V47.7894C146.496 47.7894 146.322 47.8304 146.147 47.8421C145.973 47.8538 145.781 47.8421 145.566 47.8421C144.717 45.9893 143.881 44.1482 143.059 42.3189H142.96V47.7718L142.379 47.8128C142.175 47.6431 142.134 42.2721 142.286 41.2365C142.367 41.2122 142.451 41.1946 142.536 41.1838H143.385C144.222 43.0093 145.042 44.823 145.868 46.6309L145.967 46.6251Z" fill="white" fill-opacity="0.48"/>
<path d="M248.325 44.4778C248.261 45.1623 248.249 45.8586 248.121 46.5314C247.924 47.5846 247.197 47.9649 246.243 47.9883C245.793 48.0327 245.343 47.9112 244.976 47.6464C244.609 47.3816 244.35 46.9916 244.248 46.549C244.188 46.3588 244.149 46.1626 244.132 45.9639C244.132 44.9985 244.132 44.0273 244.132 43.0385C244.104 42.6685 244.194 42.2993 244.389 41.9839C244.583 41.6685 244.872 41.4232 245.213 41.2833C245.587 41.1114 245.999 41.042 246.407 41.0821C246.816 41.1222 247.207 41.2703 247.54 41.5114C247.758 41.6837 247.933 41.9043 248.052 42.156C248.171 42.4077 248.231 42.6837 248.226 42.9624C248.226 43.4656 248.226 43.9746 248.226 44.4778H248.325ZM247.371 44.4778C247.371 43.9922 247.371 43.5124 247.371 43.0268C247.365 42.7766 247.309 42.53 247.208 42.3013C247.082 42.1153 246.906 41.9698 246.699 41.8823C246.493 41.7948 246.266 41.7689 246.046 41.8078C245.826 41.8467 245.621 41.9488 245.457 42.1017C245.293 42.2546 245.176 42.4519 245.12 42.6699C245.062 43.3076 245.068 43.9512 245.068 44.5948C245.034 45.1403 245.034 45.6875 245.068 46.233C245.068 46.3731 245.098 46.5116 245.156 46.6387C245.215 46.7658 245.3 46.8785 245.407 46.9688C245.513 47.0591 245.638 47.1249 245.772 47.1616C245.907 47.1982 246.048 47.2048 246.185 47.1809C246.317 47.1992 246.452 47.1889 246.58 47.1506C246.708 47.1123 246.826 47.0469 246.927 46.9588C247.028 46.8707 247.108 46.7619 247.164 46.6398C247.22 46.5176 247.249 46.3849 247.249 46.2506C247.325 45.6772 247.313 45.0629 247.342 44.4778H247.371Z" fill="white" fill-opacity="0.48"/>
<path d="M218.973 44.4426C219.008 43.8575 219.008 43.2315 219.083 42.6464C219.112 42.2862 219.257 41.9454 219.497 41.6761C219.736 41.4067 220.057 41.2235 220.409 41.1544C220.918 41.0139 221.458 41.0323 221.956 41.2071C222.228 41.2989 222.472 41.4579 222.666 41.6696C222.86 41.8813 222.998 42.1387 223.067 42.4182C223.125 42.592 223.158 42.7733 223.166 42.9565C223.19 44.0573 223.159 45.1587 223.073 46.2563C223.023 46.6148 222.88 46.9536 222.657 47.2384C222.435 47.5233 222.142 47.744 221.808 47.8782C221.474 48.0124 221.111 48.0554 220.755 48.0028C220.399 47.9502 220.063 47.8039 219.781 47.5786C219.581 47.4256 219.416 47.2308 219.297 47.0076C219.179 46.7845 219.11 46.5382 219.095 46.2856C219.025 45.6479 219.008 45.0628 218.973 44.4426ZM222.235 44.4836C222.235 43.9979 222.235 43.5182 222.235 43.0326C222.241 42.9644 222.241 42.8959 222.235 42.8278C222.232 42.5489 222.121 42.2821 221.926 42.0843C221.73 41.8866 221.466 41.7733 221.188 41.7688C221.046 41.7448 220.9 41.751 220.76 41.7869C220.62 41.8228 220.489 41.8877 220.375 41.9774C220.261 42.0671 220.167 42.1797 220.099 42.308C220.031 42.4363 219.99 42.5774 219.979 42.7225C219.915 43.8926 219.979 45.1037 219.979 46.2973C219.988 46.3882 220.012 46.477 220.049 46.5606C220.106 46.7371 220.217 46.8917 220.364 47.0036C220.512 47.1154 220.69 47.1793 220.874 47.1866C221.038 47.2263 221.208 47.2268 221.372 47.1881C221.536 47.1495 221.688 47.0727 221.817 46.9641C221.946 46.8554 222.048 46.7178 222.115 46.5624C222.181 46.407 222.211 46.238 222.2 46.0691C222.27 45.5426 222.235 45.0101 222.235 44.4777V44.4836Z" fill="white" fill-opacity="0.48"/>
<path d="M104.32 44.4777C104.32 44.9341 104.32 45.3963 104.32 45.8527C104.309 46.0497 104.282 46.2454 104.239 46.4378C104.185 46.83 103.998 47.1914 103.71 47.4611C103.421 47.7307 103.05 47.8921 102.657 47.918C101.436 48.0701 100.511 47.6021 100.29 46.3266C100.241 46.1031 100.21 45.8762 100.197 45.6479C100.197 44.7995 100.197 43.9453 100.197 43.0969C100.167 42.7328 100.245 42.3678 100.42 42.0481C100.596 41.7284 100.863 41.4683 101.185 41.3007C101.55 41.1137 101.957 41.0266 102.365 41.0481C102.773 41.0697 103.169 41.1992 103.512 41.4236C103.744 41.5748 103.934 41.7819 104.066 42.0262C104.198 42.2704 104.268 42.5439 104.268 42.822C104.303 43.3719 104.268 43.9278 104.268 44.4777H104.32ZM103.512 44.4777C103.502 43.9008 103.463 43.3247 103.395 42.7517C103.39 42.6124 103.356 42.4756 103.295 42.3501C103.235 42.2246 103.149 42.113 103.044 42.0223C102.938 41.9317 102.816 41.8639 102.683 41.8233C102.55 41.7827 102.411 41.7701 102.273 41.7864C102.129 41.774 101.983 41.7923 101.847 41.8403C101.71 41.8883 101.585 41.9647 101.479 42.0647C101.374 42.1646 101.291 42.2858 101.235 42.4203C101.179 42.5549 101.153 42.6997 101.156 42.8454C101.11 43.9687 101.121 45.0979 101.156 46.2213C101.18 46.4941 101.303 46.7485 101.502 46.9353C101.701 47.1221 101.962 47.2279 102.234 47.2323C102.506 47.2366 102.77 47.1393 102.975 46.959C103.18 46.7787 103.311 46.5283 103.343 46.2564C103.448 45.6479 103.465 44.9985 103.512 44.4777Z" fill="white" fill-opacity="0.48"/>
<path d="M189.65 44.39C189.65 43.9336 189.65 43.4714 189.65 43.0092C189.637 42.7484 189.679 42.4879 189.773 42.2447C189.868 42.0015 190.012 41.7811 190.197 41.5982C190.383 41.4152 190.604 41.2738 190.848 41.1832C191.091 41.0926 191.351 41.0549 191.61 41.0726C192.912 41.0433 193.686 41.6928 193.773 42.9507C193.82 43.5884 193.773 44.2379 193.773 44.8815C193.772 45.3629 193.739 45.8438 193.674 46.3208C193.665 46.566 193.604 46.8065 193.496 47.0267C193.388 47.2468 193.235 47.4418 193.048 47.5989C192.86 47.756 192.642 47.8719 192.408 47.939C192.173 48.006 191.927 48.0228 191.685 47.9883C191.432 48.0041 191.177 47.9681 190.938 47.8825C190.698 47.797 190.479 47.6635 190.292 47.4903C190.105 47.317 189.955 47.1075 189.85 46.8743C189.746 46.6412 189.69 46.3892 189.685 46.1335C189.632 45.5485 189.685 44.9634 189.685 44.3783L189.65 44.39ZM190.633 44.3432C190.633 44.5304 190.633 44.7118 190.633 44.9283C190.64 45.4431 190.679 45.957 190.749 46.467C190.777 46.677 190.883 46.8684 191.046 47.0022C191.209 47.1359 191.417 47.2019 191.627 47.1867C192.383 47.2452 192.79 47.0053 192.86 46.2272C192.946 45.0825 192.966 43.9338 192.918 42.7869C192.923 42.5384 192.834 42.2972 192.671 42.111C192.507 41.9247 192.28 41.8068 192.034 41.7805C191.872 41.7373 191.703 41.7313 191.538 41.7632C191.374 41.7951 191.219 41.864 191.085 41.9647C190.95 42.0655 190.841 42.1954 190.763 42.3449C190.686 42.4943 190.643 42.6594 190.638 42.8278C190.598 43.3076 190.633 43.84 190.633 44.3432Z" fill="white" fill-opacity="0.48"/>
<path d="M182.397 47.8126H181.443C181.275 47.3212 181.106 46.8063 180.92 46.2622H178.373C178.204 46.7712 178.041 47.2685 177.872 47.8009H177.14C177.277 47.0633 177.49 46.3419 177.774 45.6478C177.989 44.8989 178.256 44.1617 178.495 43.4245C178.733 42.6873 178.96 41.9852 179.204 41.2422H180.28C180.978 43.4187 181.682 45.5952 182.397 47.8126ZM180.722 45.408L179.699 41.9794C179.332 43.2198 179.012 44.3197 178.681 45.408H180.722Z" fill="white" fill-opacity="0.48"/>
<path d="M92.9505 47.8009H92.0083L91.4907 46.2622H88.9725C88.8096 46.7361 88.641 47.2509 88.4607 47.8009H87.6465L89.7809 41.2305H90.8394C91.5198 43.3953 92.2293 45.5659 92.9505 47.8009ZM91.2988 45.4138C90.9382 44.2963 90.6882 43.2022 90.2462 42.0437C89.9263 43.2139 89.5192 44.2787 89.2924 45.4138H91.2988Z" fill="white" fill-opacity="0.48"/>
<path d="M207.911 47.8068H207.08L206.556 46.2505H204.026C203.846 46.7712 203.677 47.2861 203.503 47.8185H202.712C203.387 45.5893 204.131 43.4421 204.829 41.2422H205.835C206.651 43.3889 207.344 45.5806 207.911 47.8068V47.8068ZM205.288 42.1374C204.968 43.2607 204.585 44.2846 204.364 45.3846H206.353C206.044 44.3431 205.771 43.3543 205.463 42.3714C205.434 42.3246 205.376 42.2836 205.288 42.1374Z" fill="white" fill-opacity="0.48"/>
<path d="M112.544 46.268C112.381 46.7946 112.23 47.2685 112.067 47.7892H111.247C111.939 45.5835 112.614 43.4245 113.294 41.2422H114.364C115.062 43.3953 115.76 45.5484 116.493 47.7951L115.638 47.8536L115.103 46.268H112.544ZM113.87 41.9794C113.498 43.2081 113.178 44.2788 112.846 45.3963H114.888C114.562 44.2671 114.231 43.2022 113.87 41.9794Z" fill="white" fill-opacity="0.48"/>
<path d="M169.551 47.8127H168.678L168.166 46.2622H165.613L165.113 47.7951H164.299L166.323 41.2539H167.404L169.551 47.8127ZM166.98 42.1374H166.869C166.55 43.2081 166.235 44.2729 165.904 45.3904H167.945L166.98 42.1374Z" fill="white" fill-opacity="0.48"/>
<path d="M128.979 41.2422H129.863V41.9618C129.863 43.132 129.863 44.3548 129.863 45.5484C129.86 45.825 129.883 46.1012 129.933 46.3733C129.979 46.6395 130.115 46.8814 130.319 47.0579C130.522 47.2344 130.78 47.3345 131.049 47.3414C131.317 47.3483 131.58 47.2615 131.792 47.0957C132.004 46.9299 132.153 46.6953 132.212 46.4318C132.289 46.1198 132.328 45.7996 132.329 45.4782C132.329 44.308 132.329 43.1378 132.329 41.9677V41.2422H133.172C133.172 41.4002 133.172 41.5289 133.172 41.6634C133.172 42.8804 133.172 44.1032 133.172 45.3202C133.165 45.7134 133.122 46.1051 133.044 46.4904C132.989 46.8579 132.817 47.1975 132.554 47.4582C132.291 47.7188 131.95 47.8863 131.584 47.9355C131.11 48.032 130.619 47.9935 130.165 47.8243C129.823 47.683 129.533 47.4382 129.335 47.1238C129.137 46.8093 129.041 46.4408 129.06 46.0691C128.996 45.2207 128.996 44.3665 128.979 43.5182C128.967 42.7751 128.979 42.0379 128.979 41.2422Z" fill="white" fill-opacity="0.48"/>
<path d="M231.588 47.8009C232.292 45.5659 232.966 43.407 233.652 41.2305H234.711C235.415 43.4011 236.118 45.5776 236.845 47.8009H235.956L235.461 46.2622H232.896L232.408 47.8009H231.588ZM235.17 45.4079C234.827 44.2378 234.507 43.1963 234.141 41.9852C233.78 43.208 233.461 44.2787 233.129 45.4079H235.17Z" fill="white" fill-opacity="0.48"/>
<path d="M161.53 42.9976H160.71C160.694 42.8638 160.671 42.731 160.641 42.5997C160.612 42.3779 160.5 42.1755 160.328 42.0332C160.157 41.891 159.938 41.8195 159.716 41.8333C159.501 41.8106 159.285 41.8545 159.096 41.959C158.906 42.0636 158.753 42.2239 158.657 42.4184C158.579 42.6259 158.572 42.8539 158.637 43.0659C158.703 43.278 158.837 43.4619 159.018 43.5885C159.277 43.7776 159.547 43.9515 159.826 44.1092C160.166 44.2978 160.494 44.5069 160.809 44.7353C161.143 44.9665 161.389 45.3052 161.506 45.6957C161.624 46.0862 161.605 46.5052 161.454 46.8838C161.304 47.2624 161.029 47.5781 160.676 47.7788C160.323 47.9796 159.913 48.0534 159.512 47.9883C158.739 47.9883 158.041 47.7952 157.721 46.9878C157.617 46.6518 157.543 46.3072 157.5 45.9581H158.39C158.419 46.0268 158.444 46.0971 158.465 46.1687C158.64 47.0054 159.047 47.3389 159.861 47.1926C160.035 47.18 160.202 47.1185 160.343 47.015C160.484 46.9116 160.593 46.7704 160.658 46.6075C160.741 46.4272 160.769 46.2258 160.737 46.0296C160.704 45.8333 160.614 45.6514 160.478 45.5076C160.206 45.2633 159.912 45.0459 159.6 44.8581C159.256 44.6358 158.873 44.4661 158.547 44.2204C158.239 44.0122 158.009 43.7053 157.896 43.3494C157.783 42.9936 157.793 42.6098 157.925 42.2604C158.034 41.9203 158.248 41.6239 158.535 41.4136C158.822 41.2034 159.169 41.0902 159.524 41.0902H159.803C161.019 41.0727 161.577 41.6695 161.53 42.9976Z" fill="white" fill-opacity="0.48"/>
<path d="M208.726 45.9405H209.499C209.53 46.0111 209.557 46.0834 209.581 46.157C209.738 46.9819 210.098 47.2569 210.895 47.1867C211.082 47.1934 211.267 47.1405 211.422 47.0354C211.578 46.9303 211.697 46.7785 211.761 46.6016C211.853 46.4091 211.882 46.1926 211.844 45.9826C211.807 45.7726 211.704 45.5798 211.552 45.4315C211.31 45.2139 211.049 45.0182 210.773 44.8464C210.389 44.6007 209.97 44.3959 209.61 44.1209C209.344 43.9356 209.142 43.6734 209.028 43.3692C208.915 43.065 208.897 42.7333 208.976 42.4183C209.016 42.0949 209.158 41.7929 209.381 41.5561C209.604 41.3194 209.896 41.1603 210.214 41.1019C210.66 41.0136 211.118 41.0136 211.564 41.1019C212.343 41.2598 212.64 41.7923 212.68 42.9332L211.866 42.9741L211.738 42.5119C211.701 42.2934 211.585 42.0965 211.412 41.9592C211.239 41.822 211.022 41.7541 210.802 41.7689C210.594 41.7554 210.387 41.8037 210.206 41.9077C210.025 42.0117 209.878 42.1669 209.784 42.3539C209.7 42.5703 209.688 42.8086 209.753 43.032C209.817 43.2553 209.953 43.4509 210.139 43.5885C210.389 43.7815 210.68 43.922 210.953 44.0975C211.313 44.295 211.659 44.5179 211.988 44.7645C212.299 45.025 212.513 45.3836 212.595 45.7819C212.678 46.1803 212.624 46.595 212.442 46.9585C212.31 47.2257 212.109 47.4521 211.86 47.6138C211.505 47.8253 211.102 47.9432 210.689 47.9565C210.277 47.9698 209.867 47.8781 209.499 47.6899C208.888 47.4383 208.633 46.8181 208.726 45.9405Z" fill="white" fill-opacity="0.48"/>
<path d="M137.465 42.9683C137.437 42.8396 137.403 42.7109 137.36 42.5822C137.329 42.3624 137.217 42.1626 137.045 42.0234C136.873 41.8843 136.655 41.8163 136.435 41.8333C136.227 41.8206 136.02 41.8692 135.84 41.9732C135.659 42.0771 135.512 42.2318 135.417 42.4184C135.339 42.6206 135.326 42.8426 135.38 43.0528C135.434 43.263 135.553 43.4505 135.72 43.5885C135.975 43.7795 136.241 43.9553 136.517 44.1151C136.894 44.327 137.257 44.5635 137.604 44.823C137.882 45.0493 138.083 45.3557 138.182 45.701C138.281 46.0463 138.272 46.4138 138.157 46.7538C138.085 47.0723 137.913 47.3588 137.665 47.5699C137.417 47.781 137.108 47.9053 136.784 47.924C136.425 47.9765 136.061 47.9765 135.702 47.924C134.69 47.7426 134.243 47.0697 134.342 45.9347C134.464 45.9347 134.597 45.9347 134.725 45.9347C134.853 45.9347 134.993 45.9347 135.132 45.9756C135.165 46.0677 135.192 46.1615 135.214 46.2565C135.22 46.4071 135.258 46.5545 135.327 46.6883C135.396 46.8222 135.493 46.9391 135.612 47.0307C135.731 47.1224 135.868 47.1865 136.015 47.2185C136.161 47.2506 136.313 47.2497 136.458 47.216C136.666 47.233 136.872 47.1793 137.045 47.0636C137.218 46.9479 137.348 46.7769 137.412 46.5783C137.485 46.3723 137.492 46.1484 137.431 45.9384C137.371 45.7284 137.246 45.5428 137.075 45.4081C136.802 45.2033 136.493 45.0337 136.214 44.823C135.892 44.6441 135.58 44.4488 135.278 44.238C134.994 44.0194 134.783 43.7182 134.675 43.3751C134.566 43.0321 134.565 42.6639 134.672 42.3203C134.779 41.9767 134.988 41.6745 135.271 41.4544C135.554 41.2344 135.898 41.1073 136.255 41.0902C136.346 41.0845 136.437 41.0845 136.528 41.0902C137.761 41.0902 138.308 41.6753 138.273 42.9859L137.465 42.9683Z" fill="white" fill-opacity="0.48"/>
<path d="M156.511 42.9917H155.72L155.61 42.5705C155.586 42.361 155.484 42.1686 155.324 42.0326C155.164 41.8966 154.958 41.8273 154.749 41.8391C154.544 41.8082 154.335 41.8396 154.149 41.9293C153.962 42.019 153.807 42.1628 153.702 42.3423C153.607 42.5358 153.578 42.7556 153.62 42.9673C153.662 43.179 153.773 43.3707 153.935 43.5125C154.204 43.7296 154.49 43.9252 154.79 44.0975C155.131 44.2759 155.462 44.4712 155.784 44.6826C156.127 44.9404 156.37 45.3114 156.468 45.7306C156.567 46.1499 156.517 46.5907 156.325 46.9761C156.175 47.2572 155.952 47.4918 155.679 47.6548C155.357 47.8327 154.999 47.9365 154.632 47.9587C154.265 47.981 153.898 47.9212 153.557 47.7836C153.202 47.6373 152.912 47.3659 152.742 47.0201C152.572 46.6744 152.533 46.2781 152.632 45.9054C152.717 45.8994 152.803 45.8994 152.888 45.9054H153.371C153.408 45.9972 153.441 46.091 153.469 46.1863C153.473 46.349 153.513 46.5088 153.588 46.6533C153.662 46.7977 153.769 46.9229 153.9 47.0191C154.03 47.1153 154.181 47.18 154.34 47.208C154.5 47.2361 154.663 47.2268 154.819 47.1809C154.992 47.18 155.161 47.1294 155.306 47.0351C155.451 46.9408 155.567 46.8066 155.639 46.6485C155.729 46.4729 155.764 46.274 155.741 46.0777C155.717 45.8815 155.635 45.6971 155.505 45.5485C155.278 45.3231 155.024 45.1267 154.749 44.9635C154.388 44.7236 153.987 44.5422 153.632 44.2906C153.304 44.0938 153.053 43.7891 152.921 43.4278C152.79 43.0666 152.786 42.6708 152.911 42.3072C153.018 41.9391 153.244 41.6177 153.554 41.3949C153.865 41.172 154.24 41.0606 154.621 41.0785H154.894C156.063 41.1078 156.616 41.7455 156.511 42.9917Z" fill="white" fill-opacity="0.48"/>
<path d="M213.634 45.9462H214.483C214.518 46.0691 214.553 46.2154 214.593 46.3675C214.654 46.5591 214.76 46.7329 214.902 46.8739C215.045 47.0149 215.22 47.1187 215.411 47.1764C215.602 47.234 215.805 47.2438 216.001 47.2048C216.197 47.1658 216.381 47.0792 216.536 46.9526C216.641 46.855 216.725 46.7365 216.783 46.6046C216.84 46.4727 216.87 46.3302 216.87 46.1861C216.87 46.042 216.84 45.8995 216.783 45.7676C216.725 45.6357 216.641 45.5172 216.536 45.4197C216.288 45.215 216.021 45.0348 215.739 44.8814C215.39 44.6649 215.012 44.4894 214.681 44.2436C214.366 44.0346 214.13 43.7262 214.009 43.3671C213.888 43.008 213.889 42.6186 214.012 42.2602C214.118 41.9285 214.324 41.6381 214.601 41.4286C214.878 41.2192 215.213 41.1009 215.559 41.0901C215.694 41.0813 215.83 41.0813 215.966 41.0901C217.129 41.0901 217.682 41.7161 217.629 42.9916H216.809C216.809 42.8804 216.757 42.7517 216.728 42.623C216.704 42.4016 216.597 42.1978 216.428 42.054C216.259 41.9102 216.041 41.8374 215.821 41.8507C215.615 41.8294 215.407 41.869 215.223 41.9646C215.039 42.0602 214.887 42.2077 214.785 42.3889C214.688 42.5848 214.661 42.8089 214.71 43.0225C214.759 43.236 214.88 43.4258 215.053 43.5591C215.267 43.7336 215.494 43.8902 215.733 44.0272C216.1 44.2553 216.495 44.4484 216.838 44.7059C217.173 44.9276 217.422 45.2587 217.543 45.6434C217.664 46.0281 217.649 46.4429 217.501 46.818C217.327 47.5669 216.594 47.9882 215.617 47.9882C214.64 47.9882 213.942 47.5727 213.738 46.818C213.688 46.5296 213.653 46.2385 213.634 45.9462V45.9462Z" fill="white" fill-opacity="0.48"/>
<path d="M228.318 43.0033H227.522C227.522 42.8863 227.481 42.781 227.469 42.6757C227.382 42.0321 227.155 41.8039 226.562 41.7746C225.969 41.7454 225.486 42.0087 225.399 42.6055C225.323 43.3836 225.323 44.1676 225.317 44.9458C225.308 45.4038 225.338 45.8618 225.405 46.3149C225.424 46.5611 225.538 46.7901 225.723 46.9529C225.908 47.1157 226.148 47.1996 226.393 47.1866C226.635 47.2202 226.881 47.1569 227.076 47.0102C227.272 46.8635 227.403 46.6453 227.44 46.4026C227.487 46.2271 227.516 46.0457 227.562 45.8175H228.301C228.359 46.859 228.051 47.4733 227.318 47.7366C226.751 47.9213 226.14 47.9213 225.573 47.7366C225.363 47.6756 225.171 47.5629 225.015 47.4087C224.858 47.2545 224.742 47.0636 224.678 46.8531C224.552 46.5085 224.474 46.1483 224.445 45.7824C224.41 44.8639 224.41 43.9394 224.445 43.0209C224.468 42.6792 224.539 42.3424 224.654 42.0204C224.717 41.832 224.821 41.6605 224.959 41.5186C225.097 41.3767 225.265 41.2682 225.451 41.2013C226.054 40.9687 226.718 40.9542 227.33 41.1603C227.497 41.2051 227.65 41.2904 227.777 41.4087C227.904 41.527 228 41.6747 228.057 41.839C228.167 42.2216 228.254 42.6104 228.318 43.0033V43.0033Z" fill="white" fill-opacity="0.48"/>
<path d="M151.474 41.8215H149.148V43.8927H151.41L151.457 44.5187C150.685 44.6124 149.907 44.6437 149.13 44.6123V46.8883H151.579L151.62 47.5494H148.293V41.1135H151.55C151.616 41.2235 151.645 41.3524 151.631 41.4804C151.618 41.6084 151.562 41.7283 151.474 41.8215V41.8215Z" fill="white" fill-opacity="0.48"/>
<path d="M169.567 41.1428H170.463C170.952 42.9878 171.442 44.8386 171.934 46.6952H172.045L173.516 41.1428H174.208C173.749 43.372 173.132 45.5657 172.365 47.7074H171.428L169.567 41.1428Z" fill="white" fill-opacity="0.48"/>
<path d="M238.2 41.9033H236.456L236.403 41.248H240.695V41.8741H239.02V47.6898H238.189L238.2 41.9033Z" fill="white" fill-opacity="0.48"/>
<path d="M95.0963 47.7309H94.3111C94.2588 47.099 94.3111 46.4613 94.3111 45.8294C94.3111 45.1975 94.3111 44.5422 94.3111 43.8986V41.9035H92.6246L92.5664 41.3477C92.7409 41.1663 95.7477 41.1253 96.8468 41.2599V41.845H95.1952C95.1674 42.0389 95.15 42.2342 95.1428 42.4301C95.1428 43.9688 95.1428 45.5076 95.1428 47.0463C95.1137 47.2804 95.1021 47.5027 95.0963 47.7309Z" fill="white" fill-opacity="0.48"/>
<path d="M183.77 41.9033H182.025L181.973 41.248H186.218V41.8858H184.584V47.6898H183.77V41.9033Z" fill="white" fill-opacity="0.48"/>
<path d="M117.435 41.1428H118.208C118.26 43.0853 118.208 45.0044 118.243 46.9936H120.633V47.6665H117.435V41.1428Z" fill="white" fill-opacity="0.48"/>
<path d="M229.715 41.1545C229.809 41.1339 229.904 41.1202 230 41.1135C230.134 41.1135 230.267 41.1135 230.389 41.1135C230.558 43.2997 230.579 45.4949 230.453 47.684H229.715V41.1545Z" fill="white" fill-opacity="0.48"/>
<path d="M187.26 41.1487H188.051V47.7191H187.266C187.26 45.5368 187.26 43.3837 187.26 41.1487Z" fill="white" fill-opacity="0.48"/>
<path d="M176.128 47.7191H175.441C175.306 45.5294 175.296 43.3336 175.412 41.1428L176.058 41.1077C176.222 43.3077 176.245 45.516 176.128 47.7191Z" fill="white" fill-opacity="0.48"/>
<path d="M140.564 41.1545V47.7191H139.819V41.1545H140.564Z" fill="white" fill-opacity="0.48"/>
<path d="M97.8758 41.1487H98.6493C98.6901 43.3193 98.6493 45.49 98.6493 47.7016H97.8584L97.8758 41.1487Z" fill="white" fill-opacity="0.48"/>
<path d="M241.765 47.7075V41.1721H242.509V47.7075H241.765Z" fill="white" fill-opacity="0.48"/>
</svg>
