<svg width="231" height="62" viewBox="0 0 231 62" fill="none" xmlns="http://www.w3.org/2000/svg">
<rect x="191.677" y="40.9448" width="19.8778" height="19.7577" transform="rotate(90 191.677 40.9448)" fill="url(#paint0_linear_848_277)"/>
<path d="M191.737 60.7626L179.13 53.5437L171.867 41.0049V60.7626H191.737Z" fill="url(#paint1_linear_848_277)"/>
<path d="M171.708 1.98657L191.411 21.571H211.289V41.3287L230.993 60.9131V1.98657H171.708Z" fill="url(#paint2_linear_848_277)"/>
<path d="M230.992 1.98657L191.411 21.571H211.289V41.3287L230.992 1.98657Z" fill="url(#paint3_linear_848_277)"/>
<path opacity="0.68" fill-rule="evenodd" clip-rule="evenodd" d="M211.289 21.5712H191.411L171.708 1.97925L211.289 21.5712ZM231 60.9133L211.289 21.5712V41.3214L231 60.9133Z" fill="url(#paint4_linear_848_277)"/>
<path fill-rule="evenodd" clip-rule="evenodd" d="M11.7757 51.8633H9.95624L7.38623 60.9359H8.90246L9.47863 58.7205H12.132L12.6172 60.9057H14.1335L11.7757 51.8633ZM10.828 53.0766L11.8515 57.545H9.76664L10.828 53.0766Z" fill="#4998D2"/>
<path d="M19.6602 51.8633H21.0854V60.9208H19.6602V51.8633Z" fill="#4998D2"/>
<path fill-rule="evenodd" clip-rule="evenodd" d="M65.7916 51.8633H63.9645L61.4097 60.9133H62.9259L63.4945 58.7205H66.1024L66.6255 60.9057H68.1417L65.7916 51.8633ZM64.844 53.0766L65.8675 57.545H63.7827L64.844 53.0766Z" fill="#4998D2"/>
<path d="M73.7363 51.8633H78.4973V53.0765H75.1616V55.5858H78.3002V56.8065H75.1616V60.9133H73.7363V51.8633Z" fill="#4998D2"/>
<path d="M85.9499 53.0765H83.8271V51.8633H89.4675V53.0765H87.3751V60.9133H85.9499V53.0765Z" fill="#4998D2"/>
<path fill-rule="evenodd" clip-rule="evenodd" d="M118.192 51.8633H116.365L113.788 60.9359H115.304L115.88 58.7205H118.488L119.026 60.9057H120.542L118.192 51.8633ZM117.245 53.0766L118.268 57.545H116.176L117.245 53.0766Z" fill="#4998D2"/>
<path d="M125.956 51.8633H127.381V59.7001H130.838V60.9133H125.956V51.8633Z" fill="#4998D2"/>
<path d="M136.637 51.8633H141.466V53.0765H138.062V55.5858H141.262V56.8065H138.062V59.7001H141.565V60.9133H136.637V51.8633Z" fill="#4998D2"/>
<path d="M53.9116 1.98657H62.1068L72.3566 32.6329L82.6973 1.98657H90.8849L98.2993 45.9178H90.1647L85.4265 18.1801L76.0334 45.9178H68.6266L59.317 18.1801L54.465 45.9178H46.2622L53.9116 1.98657Z" fill="white"/>
<path d="M102.272 1.98657H110.338L129.253 30.8998V1.98657H137.661V45.9178H129.572L110.679 17.1025V45.9178H102.272V1.98657Z" fill="white"/>
<path d="M144.393 1.98657H152.748V45.9178H144.393V1.98657Z" fill="white"/>
<path fill-rule="evenodd" clip-rule="evenodd" d="M39.1891 7.48001C34.9944 3.09238 29.1532 0.63572 23.064 0.698184C19.0015 0.681086 15.0089 1.74803 11.5027 3.78768C4.32259 7.89132 -0.073485 15.5243 0.00210532 23.7564C-0.0808323 29.8268 2.28968 35.6766 6.58255 39.9951C10.9695 44.5565 16.4835 46.8372 23.1246 46.8372C29.2068 46.9431 35.0593 44.53 39.2801 40.176C43.6592 35.8925 46.0696 30.0051 45.9439 23.8996C46.0558 17.7367 43.6132 11.7993 39.1891 7.48001ZM12.6551 13.124C15.3453 10.3367 19.0879 8.79783 22.9731 8.88159C26.8756 8.81858 30.6232 10.3978 33.291 13.2295C36.0852 16.0534 37.6134 19.8794 37.5289 23.8393C37.6382 27.7883 36.134 31.6131 33.3592 34.4415C30.7119 37.2477 26.9944 38.8105 23.1247 38.7442C19.6991 38.7836 16.3715 37.6081 13.7392 35.4287C10.2317 32.6054 8.47788 28.7624 8.47788 23.8996C8.33866 19.8926 9.84686 16.0021 12.6551 13.124Z" fill="white"/>
<path d="M148.722 58.11V58.3436C148.722 59.4437 149.192 60.0013 150.185 60.0013C150.538 60.02 150.882 59.8931 151.138 59.6506C151.393 59.4081 151.537 59.0715 151.534 58.7203C151.599 57.9319 151.04 57.2277 150.253 57.1078L149.283 56.7687C147.979 56.2638 147.418 55.5781 147.418 54.282C147.418 52.6317 148.517 51.72 150.192 51.72C152.467 51.72 152.717 53.1668 152.717 54.1011V54.3046H151.292V54.1162C151.292 53.2949 150.928 52.8126 150.041 52.8126C149.698 52.7958 149.365 52.932 149.133 53.1842C148.901 53.4363 148.795 53.7781 148.843 54.1162C148.843 54.8698 149.23 55.2842 150.185 55.6233L151.148 55.9775C152.263 56.2238 153.032 57.2405 152.96 58.3737C152.96 60.3028 151.807 61.1015 150.003 61.1015C147.789 61.1015 147.296 59.5944 147.296 58.336V58.1175L148.722 58.11Z" fill="#4998D2"/>
<path d="M104.311 58.11V58.3436C104.311 59.4437 104.789 60.0013 105.774 60.0013C106.127 60.02 106.472 59.8931 106.728 59.6506C106.983 59.4081 107.126 59.0715 107.124 58.7203C107.189 57.9344 106.634 57.2313 105.85 57.1078L104.872 56.7687C103.576 56.2638 103.007 55.5781 103.007 54.282C103.007 52.6317 104.107 51.72 105.79 51.72C108.064 51.72 108.314 53.1668 108.314 54.1011V54.3046H106.896V54.1162C106.896 53.2949 106.533 52.8126 105.646 52.8126C105.301 52.7934 104.966 52.9287 104.733 53.1811C104.499 53.4336 104.392 53.7767 104.44 54.1162C104.44 54.8698 104.827 55.2842 105.782 55.6233L106.745 55.9775C107.86 56.2238 108.629 57.2405 108.557 58.3737C108.557 60.3028 107.404 61.1015 105.608 61.1015C103.394 61.1015 102.894 59.5944 102.894 58.336V58.1175L104.311 58.11Z" fill="#4998D2"/>
<path fill-rule="evenodd" clip-rule="evenodd" d="M30.6147 51.8632H27.4609V60.8981H28.8862V56.9722H30.0537C31.0241 56.9722 31.3501 57.4017 31.3501 58.3888C31.3826 58.7448 31.3846 59.0551 31.3865 59.3501C31.3881 59.6048 31.3896 59.848 31.4107 60.0994C31.4143 60.383 31.4984 60.6599 31.6533 60.8981H33.2454C32.9905 60.7292 32.8326 60.4489 32.8208 60.1446C32.7753 59.602 32.7753 58.8862 32.7753 58.306C32.7223 57.04 32.2598 56.5427 31.3728 56.4523C32.3811 56.2639 32.889 55.3596 32.889 54.1916C32.9738 53.5642 32.7644 52.9328 32.3207 52.4785C31.877 52.0243 31.2482 51.7975 30.6147 51.8632ZM31.1029 55.4839C30.8251 55.7776 30.4274 55.9289 30.0234 55.8947L28.8862 55.8268V52.8805H30.0992C31.0392 52.8805 31.4486 53.4231 31.4486 54.3876C31.508 54.7863 31.3807 55.1902 31.1029 55.4839Z" fill="#4998D2"/>
<path d="M44.6327 57.6657V57.8616C44.6327 59.4968 43.9807 61.0943 41.8807 61.0943C39.6064 61.0943 38.9316 59.5872 38.9316 56.3922C38.9316 53.1972 39.6291 51.6826 41.8959 51.6826C44.4356 51.6826 44.5796 53.5815 44.5796 54.5234V54.6892H43.1543V54.5385C43.1543 53.7021 42.9042 52.7376 41.8807 52.7752C40.8573 52.8129 40.3645 53.4308 40.3645 56.347C40.3645 59.2632 40.8421 60.0017 41.8807 60.0017C43.071 60.0017 43.2074 58.6604 43.2074 57.8239V57.6657H44.6327Z" fill="#4998D2"/>
<path fill-rule="evenodd" clip-rule="evenodd" d="M53.7524 51.8632H50.5986V60.9132H52.0239V56.9873H53.2217C54.1997 56.9873 54.5257 57.4168 54.5257 58.4039C54.557 58.7463 54.558 59.0466 54.5589 59.3316C54.5598 59.5985 54.5607 59.8521 54.5863 60.1144C54.582 60.3883 54.65 60.6585 54.7834 60.8981H56.3831C56.1262 60.7309 55.9677 60.4496 55.9585 60.1446C55.9054 59.602 55.9054 58.8862 55.9054 58.306V58.306C55.86 57.04 55.3975 56.5427 54.5105 56.4523C55.5112 56.2639 56.0267 55.3596 56.0267 54.1916C56.1115 53.5642 55.902 52.9328 55.4584 52.4785C55.0147 52.0243 54.3859 51.7975 53.7524 51.8632ZM54.2406 55.4839C53.9628 55.7776 53.5651 55.9289 53.161 55.8947L52.0239 55.8268V52.8805H53.2368C54.1769 52.8805 54.5863 53.4231 54.5863 54.3876C54.6457 54.7863 54.5183 55.1902 54.2406 55.4839Z" fill="#4998D2"/>
<defs>
<linearGradient id="paint0_linear_848_277" x1="201.617" y1="70.5844" x2="221.374" y2="50.7073" gradientUnits="userSpaceOnUse">
<stop stop-color="#4998D2"/>
<stop offset="1" stop-color="#13173F"/>
</linearGradient>
<linearGradient id="paint1_linear_848_277" x1="178.932" y1="42.1334" x2="166.785" y2="53.6155" gradientUnits="userSpaceOnUse">
<stop stop-color="#4998D2"/>
<stop offset="1" stop-color="#13173F"/>
</linearGradient>
<linearGradient id="paint2_linear_848_277" x1="156.889" y1="16.7227" x2="215.814" y2="76.0055" gradientUnits="userSpaceOnUse">
<stop stop-color="#4998D2"/>
<stop offset="1" stop-color="#13173F"/>
</linearGradient>
<linearGradient id="paint3_linear_848_277" x1="222.568" y1="-21.7583" x2="187.053" y2="11.7957" gradientUnits="userSpaceOnUse">
<stop stop-color="#4998D2"/>
<stop offset="1" stop-color="#13173F"/>
</linearGradient>
<linearGradient id="paint4_linear_848_277" x1="208.21" y1="12.9319" x2="195.321" y2="25.105" gradientUnits="userSpaceOnUse">
<stop stop-color="#4998D2"/>
<stop offset="1" stop-color="#13173F"/>
</linearGradient>
</defs>
</svg>
