<svg width="214" height="57" viewBox="0 0 214 57" fill="none" xmlns="http://www.w3.org/2000/svg">
<rect x="177.516" y="37.8218" width="18.3369" height="18.2261" transform="rotate(90 177.516 37.8218)" fill="url(#paint0_linear_848_16)"/>
<path d="M177.571 56.1033L165.941 49.444L159.241 37.8772V56.1033H177.571Z" fill="url(#paint1_linear_848_16)"/>
<path d="M159.094 1.88379L177.27 19.95H195.607V38.1761L213.783 56.2423V1.88379H159.094Z" fill="url(#paint2_linear_848_16)"/>
<path d="M213.783 1.88379L177.27 19.95H195.607V38.1761L213.783 1.88379Z" fill="url(#paint3_linear_848_16)"/>
<path opacity="0.68" fill-rule="evenodd" clip-rule="evenodd" d="M195.607 19.9501H177.27L159.094 1.87695L195.607 19.9501ZM195.607 19.9501L213.79 56.2424L195.607 38.1692L195.607 19.9501Z" fill="url(#paint4_linear_848_16)"/>
<path fill-rule="evenodd" clip-rule="evenodd" d="M11.56 47.894H9.88153L7.51074 56.2633H8.90944L9.44094 54.2197H11.8887L12.3362 56.2355H13.7349L11.56 47.894ZM10.6858 49.0132L11.6299 53.1353H9.70667L10.6858 49.0132Z" fill="#4998D2"/>
<path d="M18.833 47.894H20.1478V56.2494H18.833V47.894Z" fill="#4998D2"/>
<path fill-rule="evenodd" clip-rule="evenodd" d="M61.3884 47.894H59.703L57.3462 56.2425H58.7449L59.2694 54.2197H61.6751L62.1577 56.2355H63.5564L61.3884 47.894ZM60.5142 49.0132L61.4584 53.1353H59.5352L60.5142 49.0132Z" fill="#4998D2"/>
<path d="M68.7178 47.894H73.1097V49.0132H70.0325V51.3279H72.9278V52.454H70.0325V56.2425H68.7178V47.894Z" fill="#4998D2"/>
<path d="M79.984 49.0132H78.0259V47.894H83.229V49.0132H81.2988V56.2425H79.984V49.0132Z" fill="#4998D2"/>
<path fill-rule="evenodd" clip-rule="evenodd" d="M109.727 47.894H108.042L105.664 56.2633H107.063L107.594 54.2197H110L110.497 56.2355H111.895L109.727 47.894ZM108.853 49.0132L109.797 53.1353H107.867L108.853 49.0132Z" fill="#4998D2"/>
<path d="M116.889 47.894H118.203V55.1233H121.392V56.2425H116.889V47.894Z" fill="#4998D2"/>
<path d="M126.742 47.894H131.197V49.0132H128.057V51.3279H131.008V52.454H128.057V55.1233H131.288V56.2425H126.742V47.894Z" fill="#4998D2"/>
<path d="M50.4299 1.88379H57.9899L67.445 30.1544L76.9841 1.88379H84.5371L91.3767 42.4094H83.8727L79.5018 16.822L70.8369 42.4094H64.0043L55.4163 16.822L50.9405 42.4094H43.3735L50.4299 1.88379Z" fill="#10163D"/>
<path d="M95.041 1.88379H102.482L119.931 28.5556V1.88379H127.687V42.4094H120.224L102.797 15.8279V42.4094H95.041V1.88379Z" fill="#10163D"/>
<path d="M133.896 1.88379H141.603V42.4094H133.896V1.88379Z" fill="#10163D"/>
<path fill-rule="evenodd" clip-rule="evenodd" d="M36.8484 6.95126C32.9788 2.90376 27.5905 0.637543 21.9733 0.695164C18.2258 0.679392 14.5426 1.66363 11.3083 3.54516C4.68477 7.33068 0.629477 14.372 0.699208 21.9659C0.622699 27.5657 2.80945 32.962 6.76953 36.9458C10.8164 41.1536 15.903 43.2575 22.0293 43.2575C27.6399 43.3552 33.0387 41.1291 36.9323 37.1126C40.972 33.1612 43.1955 27.7302 43.0796 22.098C43.1828 16.4129 40.9296 10.9357 36.8484 6.95126ZM12.3713 12.1577C14.853 9.58648 18.3055 8.16695 21.8894 8.24421C25.4894 8.18609 28.9465 9.64287 31.4075 12.2551C33.9851 14.8601 35.3949 18.3894 35.3169 22.0424C35.4177 25.6853 34.0301 29.2135 31.4705 31.8227C29.0283 34.4113 25.599 35.853 22.0293 35.7919C18.8692 35.8282 15.7996 34.7438 13.3714 32.7334C10.1358 30.129 8.51793 26.5838 8.51793 22.098C8.38951 18.4017 9.78079 14.8127 12.3713 12.1577Z" fill="#10163D"/>
<path d="M137.89 53.6564V53.8718C137.89 54.8867 138.324 55.4011 139.24 55.4011C139.565 55.4184 139.883 55.3013 140.119 55.0776C140.355 54.8538 140.487 54.5433 140.485 54.2194C140.544 53.4921 140.028 52.8425 139.303 52.7318L138.407 52.419C137.205 51.9533 136.687 51.3207 136.687 50.1251C136.687 48.6028 137.701 47.7617 139.247 47.7617C141.345 47.7617 141.576 49.0964 141.576 49.9583V50.146H140.261V49.9722C140.261 49.2145 139.925 48.7696 139.107 48.7696C138.79 48.7541 138.483 48.8798 138.27 49.1124C138.056 49.345 137.958 49.6603 138.002 49.9722C138.002 50.6673 138.359 51.0496 139.24 51.3625L140.128 51.6892C141.157 51.9164 141.866 52.8543 141.799 53.8996C141.799 55.6792 140.736 56.416 139.072 56.416C137.03 56.416 136.575 55.0257 136.575 53.8649V53.6633L137.89 53.6564Z" fill="#4998D2"/>
<path d="M96.922 53.6564V53.8718C96.922 54.8867 97.3626 55.4011 98.2718 55.4011C98.5972 55.4184 98.9154 55.3013 99.151 55.0776C99.3867 54.8538 99.519 54.5433 99.5166 54.2194C99.5769 53.4944 99.0646 52.8458 98.3417 52.7318L97.4396 52.419C96.2437 51.9533 95.7192 51.3207 95.7192 50.1251C95.7192 48.6028 96.7332 47.7617 98.2858 47.7617C100.384 47.7617 100.615 49.0964 100.615 49.9583V50.146H99.3068V49.9722C99.3068 49.2145 98.9711 48.7696 98.1529 48.7696C97.8352 48.752 97.5262 48.8767 97.3108 49.1096C97.0955 49.3425 96.9965 49.659 97.0409 49.9722C97.0409 50.6673 97.3976 51.0496 98.2788 51.3625L99.1669 51.6892C100.196 51.9164 100.905 52.8543 100.838 53.8996C100.838 55.6792 99.7754 56.416 98.1179 56.416C96.0758 56.416 95.6143 55.0257 95.6143 53.8649V53.6633L96.922 53.6564Z" fill="#4998D2"/>
<path fill-rule="evenodd" clip-rule="evenodd" d="M28.9386 47.8938H26.0293V56.2284H27.3441V52.6068H28.4211C29.3162 52.6068 29.6169 53.003 29.6169 53.9136C29.647 54.2419 29.6488 54.5282 29.6505 54.8004C29.652 55.0353 29.6535 55.2597 29.6729 55.4915C29.6762 55.7532 29.7538 56.0086 29.8967 56.2284H31.3653C31.1302 56.0725 30.9845 55.814 30.9737 55.5332C30.9317 55.0327 30.9317 54.3724 30.9317 53.8371C30.8828 52.6693 30.4562 52.2106 29.6379 52.1271C30.5681 51.9534 31.0366 51.1192 31.0366 50.0418C31.1148 49.463 30.9216 48.8805 30.5123 48.4615C30.103 48.0424 29.523 47.8332 28.9386 47.8938ZM29.3889 51.2339C29.1327 51.5048 28.7658 51.6444 28.3931 51.6128L27.3441 51.5502V48.8323H28.463C29.3302 48.8323 29.7078 49.3328 29.7078 50.2225C29.7626 50.5904 29.6452 50.9629 29.3889 51.2339Z" fill="#4998D2"/>
<path d="M41.8699 53.2463V53.4271C41.8699 54.9355 41.2685 56.4091 39.3313 56.4091C37.2333 56.4091 36.6108 55.0189 36.6108 52.0716C36.6108 49.1242 37.2542 47.7271 39.3453 47.7271C41.6881 47.7271 41.821 49.4788 41.821 50.3477V50.5006H40.5062V50.3616C40.5062 49.59 40.2754 48.7002 39.3313 48.735C38.3872 48.7697 37.9326 49.3397 37.9326 52.0299C37.9326 54.72 38.3732 55.4012 39.3313 55.4012C40.4293 55.4012 40.5552 54.1639 40.5552 53.3923V53.2463H41.8699Z" fill="#4998D2"/>
<path fill-rule="evenodd" clip-rule="evenodd" d="M50.2828 47.8938H47.3735V56.2423H48.6883V52.6207H49.7933C50.6954 52.6207 50.9961 53.0169 50.9961 53.9275C51.025 54.2434 51.026 54.5203 51.0268 54.7832C51.0276 55.0295 51.0284 55.2634 51.0521 55.5054C51.0481 55.7581 51.1108 56.0073 51.2339 56.2284H52.7095C52.4726 56.0741 52.3264 55.8146 52.3179 55.5332C52.269 55.0327 52.269 54.3724 52.269 53.8371C52.227 52.6693 51.8004 52.2106 50.9822 52.1271C51.9053 51.9534 52.3809 51.1192 52.3809 50.0418C52.4591 49.463 52.2658 48.8805 51.8565 48.4615C51.4473 48.0424 50.8672 47.8332 50.2828 47.8938ZM50.7332 51.2339C50.4769 51.5048 50.1101 51.6444 49.7373 51.6128L48.6883 51.5502V48.8323H49.8072C50.6744 48.8323 51.0521 49.3328 51.0521 50.2225C51.1069 50.5904 50.9894 50.9629 50.7332 51.2339Z" fill="#4998D2"/>
<defs>
<linearGradient id="paint0_linear_848_16" x1="186.685" y1="65.1637" x2="204.91" y2="46.8275" gradientUnits="userSpaceOnUse">
<stop stop-color="#4998D2"/>
<stop offset="1" stop-color="#13173F"/>
</linearGradient>
<linearGradient id="paint1_linear_848_16" x1="165.758" y1="38.9183" x2="154.553" y2="49.5102" gradientUnits="userSpaceOnUse">
<stop stop-color="#4998D2"/>
<stop offset="1" stop-color="#13173F"/>
</linearGradient>
<linearGradient id="paint2_linear_848_16" x1="145.424" y1="15.4776" x2="199.781" y2="70.1647" gradientUnits="userSpaceOnUse">
<stop stop-color="#4998D2"/>
<stop offset="1" stop-color="#13173F"/>
</linearGradient>
<linearGradient id="paint3_linear_848_16" x1="206.012" y1="-20.0204" x2="173.249" y2="10.9325" gradientUnits="userSpaceOnUse">
<stop stop-color="#4998D2"/>
<stop offset="1" stop-color="#13173F"/>
</linearGradient>
<linearGradient id="paint4_linear_848_16" x1="192.766" y1="11.9805" x2="180.877" y2="23.21" gradientUnits="userSpaceOnUse">
<stop stop-color="#4998D2"/>
<stop offset="1" stop-color="#13173F"/>
</linearGradient>
</defs>
</svg>
