<svg width="15" height="15" viewBox="0 0 15 15" fill="none" xmlns="http://www.w3.org/2000/svg">
<path fill-rule="evenodd" clip-rule="evenodd" d="M13.9996 10.733V12.69C14.0011 13.0574 13.8473 13.4083 13.5761 13.6567C13.3048 13.905 12.9413 14.0278 12.5747 13.9947C10.5633 13.7766 8.63128 13.0906 6.93379 11.992C5.35449 10.9904 4.01552 9.65413 3.01197 8.07797C1.90731 6.37614 1.21986 4.43855 1.00531 2.42217C0.972284 2.05743 1.09438 1.69562 1.34178 1.42514C1.58918 1.15466 1.93909 1.00041 2.30605 1.00006H4.26695C4.92311 0.993619 5.48239 1.47364 5.57422 2.12209C5.65699 2.74838 5.81048 3.36332 6.03177 3.95517C6.21135 4.43195 6.09649 4.96943 5.73763 5.33161L4.90752 6.16008C5.838 7.79325 7.19292 9.14549 8.82933 10.0741L9.65945 9.24566C10.0223 8.88751 10.5609 8.77288 11.0386 8.9521C11.6316 9.17295 12.2478 9.32614 12.8753 9.40874C13.5326 9.50128 14.0161 10.0707 13.9996 10.733Z" stroke="#4998D2" stroke-width="1.32638" stroke-linecap="round" stroke-linejoin="round"/>
</svg>
