<svg width="205" height="91" viewBox="0 0 205 91" fill="none" xmlns="http://www.w3.org/2000/svg">
<path d="M136.361 13.8669L123.589 0L87.0449 40.2765L123.623 40.2567L136.361 13.8669Z" fill="white" fill-opacity="0.79"/>
<path d="M126.707 40.2566L138.144 15.8009L160.702 40.3502L126.707 40.2566Z" fill="white" fill-opacity="0.79"/>
<path fill-rule="evenodd" clip-rule="evenodd" d="M58.6686 35.4103H69.2349L67.6529 42.8599H57.0838L58.6686 35.4103ZM9.11187 36.1306H37.9274C50.1124 36.1306 51.5101 43.3987 50.2854 49.1666C48.3462 58.295 42.3926 63.7056 32.9689 63.7056H14.901L11.6436 79.0443H0L9.11187 36.1306ZM16.5596 55.8931H29.048C32.6485 55.8931 36.8756 55.7711 38.1003 50.0088C39.2854 44.4195 35.9655 43.9346 32.6655 43.9346H19.0998L16.5596 55.8931ZM66.8109 46.8243H56.2475L49.4037 79.0443H59.9699L66.8109 46.8243ZM84.1019 46.8243H73.8929L64.5145 91H75.0808L78.3893 75.4372H78.5083C79.9372 78.3212 83.912 80.2467 89.8542 80.2467C100.001 80.2467 109.269 73.3926 111.489 62.923C113.887 51.6252 106.865 45.982 96.4089 45.982C91.9663 45.982 88.2326 46.8867 83.2939 51.2084H83.1748L84.1019 46.8243ZM88.5728 72.4285C93.914 72.4285 99.2156 69.2411 100.517 63.1016C101.821 56.9763 97.8689 53.7918 92.5305 53.7918C87.2488 53.7918 81.9473 56.9763 80.6488 63.1016C79.3419 69.2411 83.2911 72.4285 88.5728 72.4285ZM132.848 80.2467C142.513 80.2467 150.516 77.0621 155.197 69.4226H143.907C141.824 72.1874 138.515 73.6337 134.254 73.6337C127.047 73.6337 124.921 68.9433 125.573 65.8722L125.599 65.7502H156.574L156.779 64.7861C159.356 52.6461 154.128 45.6162 140.199 45.6162C127.47 45.6162 117.848 50.7887 115.273 62.923C112.693 75.0771 120.124 80.2467 132.848 80.2467ZM146.978 59.5002L147 59.3754C147.372 57.6399 146.3 52.2293 138.555 52.2293C130.211 52.2293 127.118 58.5956 126.954 59.3754L126.925 59.5002H146.978ZM176.082 46.8243H165.879L159.035 79.0443H169.604L172.553 65.149C173.88 58.8933 178.078 55.2295 185.282 55.2295C187.264 55.2295 189.092 55.652 190.901 56.1937L193.005 46.2798C191.857 46.0416 190.431 45.982 189.226 45.982C183.227 45.982 179.754 48.2053 174.863 53.1282H174.744L176.082 46.8243ZM200.713 40.4438C201.847 40.4347 202.938 40.8788 203.742 41.6776C204.547 42.4763 205 43.5634 205 44.6974C205 47.1561 203.044 48.9993 200.713 48.9993C198.372 48.9993 196.404 47.1589 196.404 44.6974C196.404 42.2814 198.372 40.4438 200.713 40.4438ZM204.22 44.6974C204.22 46.7874 202.689 48.3669 200.713 48.3669C198.712 48.3669 197.181 46.7874 197.181 44.6974C197.181 42.6528 198.712 41.0733 200.713 41.0733C202.689 41.0733 204.22 42.65 204.22 44.6974ZM199.046 42.2161H200.974C202.165 42.2161 202.726 42.684 202.726 43.6454C202.726 44.55 202.151 44.9271 201.411 45.0037L202.84 47.2128H202.006L200.645 45.0604H199.823V47.2128H199.046V42.2161ZM200.631 44.4337H199.82V42.8428H200.849C201.374 42.8428 201.947 42.9478 201.947 43.6113C201.947 44.3997 201.314 44.4337 200.631 44.4337Z" fill="white" fill-opacity="0.79"/>
</svg>
