<svg width="55" height="55" viewBox="0 0 55 55" fill="none" xmlns="http://www.w3.org/2000/svg">
<rect x="18.4219" y="35.9453" width="18.3369" height="18.2261" transform="rotate(90 18.4219 35.9453)" fill="url(#paint0_linear_876_73)"/>
<path d="M18.4764 54.2266L6.84622 47.5673L0.146484 36.0005V54.2266H18.4764Z" fill="url(#paint1_linear_876_73)"/>
<path d="M0 0.00732422L18.176 18.0735H36.5129V36.2996L54.6889 54.3659V0.00732422H0Z" fill="url(#paint2_linear_876_73)"/>
<path d="M54.6887 0.00732422L18.1758 18.0735H36.5126V36.2996L54.6887 0.00732422Z" fill="url(#paint3_linear_876_73)"/>
<path opacity="0.68" fill-rule="evenodd" clip-rule="evenodd" d="M36.5129 18.0732H18.176L0 0L36.5129 18.0732ZM36.5129 18.0732V36.2923L54.6959 54.3655L36.5129 18.0732Z" fill="url(#paint4_linear_876_73)"/>
<defs>
<linearGradient id="paint0_linear_876_73" x1="27.5913" y1="63.2872" x2="45.8167" y2="44.951" gradientUnits="userSpaceOnUse">
<stop stop-color="#4998D2"/>
<stop offset="1" stop-color="#13173F"/>
</linearGradient>
<linearGradient id="paint1_linear_876_73" x1="9.31243" y1="63.3424" x2="27.5379" y2="45.0131" gradientUnits="userSpaceOnUse">
<stop stop-color="#4998D2"/>
<stop offset="1" stop-color="#13173F"/>
</linearGradient>
<linearGradient id="paint2_linear_876_73" x1="27.3475" y1="81.5533" x2="81.704" y2="26.8664" gradientUnits="userSpaceOnUse">
<stop stop-color="#4998D2"/>
<stop offset="1" stop-color="#13173F"/>
</linearGradient>
<linearGradient id="paint3_linear_876_73" x1="36.4342" y1="54.4513" x2="72.7252" y2="17.9397" gradientUnits="userSpaceOnUse">
<stop stop-color="#4998D2"/>
<stop offset="1" stop-color="#13173F"/>
</linearGradient>
<linearGradient id="paint4_linear_876_73" x1="27.351" y1="81.5564" x2="81.7144" y2="26.8625" gradientUnits="userSpaceOnUse">
<stop stop-color="#4998D2"/>
<stop offset="1" stop-color="#13173F"/>
</linearGradient>
</defs>
</svg>
